<svg width="282" height="282" viewBox="0 0 282 282" fill="none" xmlns="http://www.w3.org/2000/svg">
<path d="M99.4333 5.76774C99.4333 8.71326 101.821 11.1011 104.767 11.1011C107.712 11.1011 110.1 8.71326 110.1 5.76774C110.1 2.82222 107.712 0.434407 104.767 0.434407C101.821 0.434407 99.4333 2.82222 99.4333 5.76774ZM104.508 4.80181C69.9646 14.0576 40.2288 36.0933 21.3207 66.4477L23.0183 67.5051C41.6582 37.5813 70.9722 15.8582 105.025 6.73367L104.508 4.80181ZM21.3207 66.4477C2.41258 96.8021 -4.25518 133.207 2.66734 168.292L4.62951 167.905C-2.19481 133.318 4.37837 97.429 23.0183 67.5051L21.3207 66.4477ZM2.66734 168.292C9.58985 203.378 29.5854 234.522 58.6058 255.42L59.7746 253.797C31.1658 233.195 11.4538 202.493 4.62951 167.905L2.66734 168.292ZM58.6058 255.42C87.6263 276.318 123.503 285.408 158.973 280.85L158.718 278.866C123.751 283.359 88.3834 274.398 59.7746 253.797L58.6058 255.42ZM158.973 280.85C194.443 276.291 226.856 258.426 249.65 230.869L248.109 229.595C225.639 256.76 193.685 274.372 158.718 278.866L158.973 280.85ZM249.65 230.869C272.444 203.313 283.915 168.125 281.742 132.43L279.746 132.551C281.888 167.74 270.58 202.429 248.109 229.595L249.65 230.869ZM281.742 132.43C279.569 96.7339 263.913 63.1976 237.945 38.6101L236.57 40.0624C262.17 64.3011 277.603 97.3617 279.746 132.551L281.742 132.43ZM237.945 38.6101C211.976 14.0227 177.635 0.221286 141.874 1.91411e-05L141.862 1.99998C177.115 2.21811 210.969 15.8238 236.57 40.0624L237.945 38.6101Z" fill="white"/>
</svg>
