<svg width="52" height="52" viewBox="0 0 52 52" fill="none" xmlns="http://www.w3.org/2000/svg">
<path d="M31 17.5001C31 17.3674 30.9473 17.2403 30.8536 17.1465C30.7598 17.0527 30.6326 17.0001 30.5 17.0001H28C26.7411 16.9373 25.5086 17.3754 24.5717 18.2186C23.6348 19.0618 23.0698 20.2415 23 21.5001V24.2001H20.5C20.3674 24.2001 20.2402 24.2527 20.1464 24.3465C20.0527 24.4403 20 24.5674 20 24.7001V27.3001C20 27.4327 20.0527 27.5598 20.1464 27.6536C20.2402 27.7474 20.3674 27.8001 20.5 27.8001H23V34.5001C23 34.6327 23.0527 34.7598 23.1464 34.8536C23.2402 34.9474 23.3674 35.0001 23.5 35.0001H26.5C26.6326 35.0001 26.7598 34.9474 26.8536 34.8536C26.9473 34.7598 27 34.6327 27 34.5001V27.8001H29.62C29.7312 27.8017 29.8397 27.7661 29.9285 27.6991C30.0172 27.6321 30.0811 27.5374 30.11 27.4301L30.83 24.8301C30.8499 24.7562 30.8526 24.6787 30.8378 24.6036C30.8231 24.5286 30.7913 24.4579 30.7449 24.397C30.6985 24.3362 30.6388 24.2868 30.5704 24.2526C30.5019 24.2185 30.4265 24.2005 30.35 24.2001H27V21.5001C27.0249 21.2525 27.1411 21.0232 27.326 20.8567C27.5109 20.6903 27.7512 20.5988 28 20.6001H30.5C30.6326 20.6001 30.7598 20.5474 30.8536 20.4536C30.9473 20.3598 31 20.2327 31 20.1001V17.5001Z" fill="white"/>
<circle cx="26" cy="26" r="25" stroke="white" stroke-width="0.7"/>
</svg>
