<svg width="818" height="769" viewBox="0 0 818 769" fill="none" xmlns="http://www.w3.org/2000/svg">
<rect x="331" y="1" width="109" height="127" fill="#00F38E"/>
<rect x="661" y="130" width="109" height="127" fill="#00F38E"/>
<line opacity="0.2" x1="-4.37114e-08" y1="128.5" x2="818" y2="128.5" stroke="white"/>
<line opacity="0.2" x1="-4.37114e-08" y1="0.5" x2="818" y2="0.499928" stroke="white"/>
<line opacity="0.2" x1="-4.37114e-08" y1="256.5" x2="818" y2="256.5" stroke="white"/>
<line opacity="0.2" x1="-4.37114e-08" y1="384.5" x2="818" y2="384.5" stroke="white"/>
<line opacity="0.2" x1="-4.37114e-08" y1="512.5" x2="818" y2="512.5" stroke="white"/>
<line opacity="0.2" x1="-4.37114e-08" y1="640.5" x2="818" y2="640.5" stroke="white"/>
<line opacity="0.2" x1="-4.37114e-08" y1="768.5" x2="818" y2="768.5" stroke="white"/>
<line opacity="0.2" x1="110.5" y1="1" x2="110.5" y2="769" stroke="white"/>
<line opacity="0.2" x1="220.5" y1="1" x2="220.5" y2="769" stroke="white"/>
<line opacity="0.2" x1="330.5" y1="1" x2="330.5" y2="769" stroke="white"/>
<line opacity="0.2" x1="440.5" y1="1" x2="440.5" y2="769" stroke="white"/>
<line opacity="0.2" x1="660.5" y1="1" x2="660.5" y2="769" stroke="white"/>
<line opacity="0.2" x1="550.5" y1="1" x2="550.5" y2="768" stroke="white"/>
<line opacity="0.2" x1="0.5" y1="1" x2="0.500033" y2="768" stroke="white"/>
</svg>
