<svg width="60" height="60" viewBox="0 0 60 60" fill="none" xmlns="http://www.w3.org/2000/svg">
<path d="M10 45.5331C10.0227 45.5182 10.0508 45.5081 10.0656 45.4878C10.0766 45.4729 10.0703 45.4456 10.0727 45.4245C10.1023 45.1542 10.1234 44.8823 10.1672 44.6143C10.1875 44.487 10.2508 44.3659 10.2945 44.2417C10.3 44.2253 10.3063 44.2081 10.307 44.1917C10.3156 44.0159 10.3836 43.8604 10.4578 43.7034C10.5023 43.6088 10.5109 43.4971 10.5516 43.3995C10.6148 43.2463 10.6914 43.0979 10.7633 42.9479C10.7922 42.887 10.8281 42.8284 10.8524 42.7659C10.9289 42.5706 11.0258 42.3901 11.1547 42.2206C11.2859 42.0471 11.3664 41.8362 11.4945 41.6596C11.643 41.4541 11.8188 41.2682 11.9836 41.0752C12.0727 40.9713 12.161 40.8666 12.2571 40.7705C12.393 40.6346 12.5344 40.5041 12.6766 40.3744C12.8 40.2619 12.9242 40.1487 13.0555 40.0448C13.1571 39.9643 13.2711 39.9002 13.3766 39.8252C13.4571 39.7682 13.5282 39.6971 13.6118 39.6455C13.7735 39.5463 13.9414 39.4565 14.1071 39.3619C14.2133 39.3018 14.3196 39.2408 14.4563 39.1627C14.5149 39.0666 14.3961 38.9783 14.3391 38.9119C14.1985 38.7479 14.0805 38.5744 13.9797 38.3846C13.9118 38.2572 13.8258 38.14 13.7618 38.0111C13.718 37.9236 13.7024 37.8221 13.6688 37.7291C13.6282 37.6158 13.5805 37.5057 13.5368 37.3932C13.5289 37.3736 13.5258 37.3518 13.5203 37.3314C13.4961 37.2354 13.461 37.14 13.4508 37.0416C13.4188 36.7221 13.3805 36.4018 13.375 36.0814C13.3711 35.8658 13.4078 35.6471 13.4461 35.433C13.4742 35.276 13.5344 35.1252 13.5805 34.9713C13.6086 34.8775 13.6328 34.7822 13.6664 34.6908C13.7485 34.465 13.818 34.2314 13.9258 34.0181C14.0203 33.8306 14.1774 33.6752 14.2774 33.4892C14.3969 33.2666 14.5797 33.1072 14.7508 32.933C14.9415 32.7392 15.1336 32.5548 15.361 32.3955C15.5883 32.2361 15.8274 32.1009 16.068 31.9697C16.2344 31.8791 16.4321 31.8455 16.6157 31.7869C16.7602 31.7408 16.9055 31.6939 17.0508 31.6486C17.0633 31.6447 17.0758 31.6431 17.0891 31.6423C17.4696 31.6173 17.8493 31.5806 18.2305 31.5736C18.4282 31.5697 18.629 31.608 18.8251 31.6462C19.0235 31.6845 19.2212 31.7361 19.4134 31.8009C19.6056 31.8658 19.7962 31.9431 19.9759 32.0361C20.1306 32.1166 20.2618 32.2408 20.4157 32.3228C20.7993 32.5259 21.0876 32.84 21.3821 33.1439C21.5189 33.2845 21.6126 33.4674 21.7181 33.6361C21.847 33.8416 21.9821 34.0455 22.0876 34.2635C22.1689 34.4306 22.1993 34.6213 22.2681 34.7947C22.3556 35.0174 22.3751 35.2549 22.4345 35.4814C22.5446 35.9025 22.4853 36.3221 22.4821 36.7408C22.4806 36.9221 22.3962 37.1018 22.3509 37.2822C22.3204 37.4033 22.2985 37.5268 22.2595 37.6455C22.2235 37.7549 22.1704 37.8588 22.1228 37.9643C22.0946 38.026 22.0579 38.0838 22.0353 38.1463C21.9501 38.3791 21.8149 38.5791 21.6548 38.7666C21.5673 38.8682 21.5024 38.9893 21.4118 39.1237C21.4899 39.1713 21.586 39.2283 21.6821 39.2869C21.8001 39.3588 21.9165 39.4338 22.0368 39.5026C22.1501 39.5674 22.2735 39.6182 22.3821 39.6901C22.529 39.7877 22.6681 39.8963 22.8064 40.0057C22.9259 40.1002 23.0439 40.1987 23.1548 40.3033C23.3564 40.4955 23.5532 40.6932 23.7501 40.8909C23.8072 40.9479 23.8501 41.0237 23.915 41.0682C24.0173 41.1385 24.0712 41.0276 24.1243 40.9768C24.3595 40.7557 24.5822 40.5205 24.8173 40.2994C24.9829 40.1432 25.1572 39.9948 25.3369 39.8557C25.4603 39.7604 25.5978 39.683 25.7314 39.6018C25.94 39.4744 26.1509 39.3494 26.3611 39.2244C26.4244 39.1869 26.4884 39.1526 26.5361 39.1252C26.4267 38.969 26.3298 38.833 26.2345 38.6955C26.1384 38.5565 26.0353 38.4221 25.9517 38.276C25.879 38.1479 25.8298 38.0072 25.7705 37.8713C25.7259 37.769 25.6806 37.6674 25.6353 37.565C25.6322 37.5572 25.6267 37.5502 25.6251 37.5424C25.5947 37.3822 25.5775 37.2182 25.5322 37.0619C25.3923 36.5783 25.4658 36.0861 25.4728 35.5986C25.4751 35.4142 25.5587 35.2306 25.604 35.0463C25.6111 35.0174 25.608 34.9853 25.6173 34.9564C25.6595 34.8283 25.7033 34.7002 25.7486 34.5728C25.7814 34.4806 25.8103 34.3869 25.8517 34.2994C25.9173 34.1619 25.9931 34.0299 26.0642 33.8955C26.1259 33.7806 26.1775 33.6588 26.2517 33.5525C26.358 33.4017 26.4728 33.2564 26.5978 33.1213C26.7595 32.9455 26.9283 32.7752 27.1064 32.6166C27.2275 32.5088 27.3689 32.4228 27.5041 32.3322C27.597 32.2697 27.6963 32.2181 27.7908 32.1587C27.8533 32.1197 27.9072 32.0642 27.9728 32.0361C28.1244 31.972 28.2822 31.9236 28.4353 31.8642C28.5431 31.8228 28.6494 31.7744 28.7556 31.7291C28.7634 31.7259 28.772 31.7236 28.7806 31.722C28.9681 31.6923 29.1549 31.6564 29.3431 31.6361C29.6189 31.6064 29.8963 31.572 30.1728 31.572C30.4017 31.572 30.6322 31.6072 30.8588 31.647C31.0572 31.6822 31.2564 31.7306 31.4455 31.8001C31.6869 31.8892 31.926 31.9908 32.1518 32.1134C32.3338 32.2119 32.4869 32.3619 32.6658 32.4658C32.9924 32.6556 33.2104 32.9595 33.476 33.2119C33.5908 33.3213 33.6549 33.4838 33.7447 33.6197C33.8088 33.7166 33.8807 33.8088 33.9447 33.9056C33.9815 33.9619 34.0174 34.0205 34.0424 34.0822C34.1026 34.2306 34.1596 34.3806 34.2119 34.5322C34.2682 34.6955 34.2955 34.8728 34.376 35.0228C34.4393 35.1416 34.4151 35.2627 34.4494 35.376C34.5924 35.8463 34.5104 36.3252 34.5072 36.7994C34.5057 36.9877 34.419 37.176 34.3713 37.3643C34.3408 37.4846 34.3221 37.608 34.2791 37.7236C34.2276 37.8627 34.1596 37.9955 34.094 38.1291C34.0643 38.1908 34.0166 38.2447 33.9908 38.308C33.9307 38.451 33.8541 38.5791 33.7502 38.6979C33.6401 38.8221 33.5549 38.969 33.4416 39.1299C33.5268 39.1768 33.6276 39.2322 33.7283 39.2893C33.8361 39.3502 33.9447 39.4088 34.0502 39.4737C34.1494 39.5354 34.2424 39.6065 34.3401 39.6705C34.4744 39.7588 34.6158 39.8369 34.7455 39.9315C34.8705 40.0221 34.9908 40.1221 35.1041 40.2276C35.3315 40.4408 35.5526 40.6604 35.7744 40.8791C35.8323 40.9362 35.8737 41.0112 35.9346 41.0627C36.0369 41.1487 36.0955 41.0354 36.1463 40.9862C36.4205 40.719 36.676 40.433 36.9565 40.1737C37.1049 40.0369 37.2932 39.9448 37.4596 39.826C37.5823 39.7385 37.694 39.6354 37.8174 39.5487C37.8815 39.5033 37.962 39.4822 38.0315 39.4424C38.2182 39.3362 38.4026 39.226 38.5698 39.1283C38.4292 38.9229 38.301 38.7393 38.1768 38.5518C38.0776 38.4018 37.9768 38.251 37.8901 38.0932C37.844 38.0096 37.8307 37.9088 37.7956 37.8182C37.7526 37.7072 37.6979 37.601 37.6581 37.4893C37.6229 37.3924 37.5877 37.2932 37.5752 37.1916C37.5393 36.9135 37.5096 36.6338 37.4885 36.3533C37.4768 36.1978 37.4776 36.04 37.4901 35.8853C37.5096 35.6564 37.5331 35.4275 37.576 35.2025C37.6112 35.0181 37.6635 34.8346 37.7331 34.6603C37.8174 34.4494 37.9229 34.2463 38.0276 34.0439C38.1307 33.8455 38.2237 33.6369 38.3573 33.4611C38.5338 33.2291 38.7385 33.0173 38.944 32.8095C39.1034 32.6486 39.2776 32.5009 39.4557 32.3611C39.5518 32.2861 39.6706 32.24 39.7784 32.1791C39.9042 32.108 40.0253 32.0283 40.1542 31.9658C40.2448 31.922 40.3464 31.9033 40.4417 31.8681C40.555 31.8275 40.6659 31.7814 40.7784 31.7376C40.7901 31.733 40.8011 31.7251 40.8136 31.7236C40.9925 31.6939 41.1706 31.6556 41.3511 31.6369C41.6307 31.6072 41.9128 31.572 42.1933 31.572C42.4308 31.572 42.6698 31.6072 42.9042 31.6478C43.1081 31.683 43.3097 31.7376 43.5065 31.8025C43.6628 31.8548 43.8105 31.9337 43.9589 32.0056C44.1308 32.09 44.3066 32.1689 44.4683 32.2705C44.623 32.3681 44.7675 32.4837 44.9034 32.6072C45.08 32.7681 45.248 32.94 45.4113 33.115C45.5128 33.2244 45.5988 33.3478 45.6902 33.4658C45.7613 33.558 45.837 33.6478 45.8972 33.747C45.9652 33.8603 46.0183 33.983 46.0777 34.1017C46.1519 34.2502 46.2292 34.3963 46.2972 34.547C46.3339 34.6283 46.3558 34.7158 46.3824 34.801C46.4089 34.8869 46.4441 34.9728 46.4574 35.0611C46.4941 35.3174 46.5199 35.5752 46.5519 35.8322C46.5691 35.9666 46.612 36.101 46.6066 36.2346C46.5964 36.4955 46.573 36.7572 46.5316 37.015C46.4995 37.2143 46.4409 37.4104 46.3761 37.6018C46.3113 37.7924 46.2402 37.9846 46.1417 38.1596C45.9792 38.4486 45.8105 38.7354 45.5886 38.9862C45.5448 39.0354 45.5339 39.1143 45.5214 39.1455C45.7339 39.276 45.9097 39.3862 46.0878 39.4932C46.1949 39.5572 46.3089 39.6096 46.4113 39.6791C46.5409 39.7674 46.662 39.8674 46.787 39.9627C46.9753 40.1057 47.1738 40.2369 47.3488 40.3948C47.5378 40.5659 47.7066 40.7612 47.8808 40.9479C47.9933 41.069 48.105 41.1909 48.2089 41.319C48.3128 41.4479 48.4058 41.5846 48.5042 41.7182C48.5613 41.7956 48.6222 41.869 48.6746 41.9487C48.7246 42.0245 48.7667 42.1065 48.8128 42.1846C48.8738 42.2862 48.9355 42.387 48.9972 42.4877C49.0339 42.5471 49.0793 42.6026 49.1082 42.6651C49.1699 42.7987 49.2199 42.937 49.2808 43.0713C49.3496 43.2237 49.4261 43.3721 49.4941 43.5253C49.5285 43.6026 49.555 43.6846 49.5777 43.7667C49.6121 43.8901 49.6363 44.0159 49.6699 44.1385C49.7082 44.2776 49.7535 44.4143 49.7957 44.5518C49.8004 44.5682 49.8113 44.5839 49.8136 44.6003C49.8441 44.8354 49.8722 45.0714 49.9035 45.3065C50.0621 46.4948 49.9425 47.6894 49.9769 48.8808C49.9832 49.0972 49.8621 49.2698 49.7707 49.4573C49.6902 49.6214 49.5535 49.7058 49.4277 49.8089C49.3644 49.8605 49.2707 49.8737 49.1918 49.9081C48.8535 50.0581 48.4964 49.9792 48.1503 49.9792C35.8971 49.9839 23.6439 49.9831 11.3914 49.9831C11.3219 49.9831 11.2524 49.9792 11.1836 49.9831C10.9938 49.9972 10.8297 49.93 10.6625 49.8464C10.5188 49.7745 10.3773 49.7019 10.2867 49.573C10.2016 49.4526 10.1492 49.3097 10.0781 49.1792C10.0648 49.155 10.0305 49.1417 10.0055 49.1237C10.0055 47.9269 10.0055 46.7292 10.0055 45.5323L10 45.5331ZM35.6057 47.6315C35.6057 47.5753 35.6057 47.5292 35.6057 47.4823C35.6018 46.8753 35.6362 46.2667 35.5346 45.6628C35.5205 45.5776 35.5362 45.4878 35.5174 45.4042C35.4776 45.2221 35.4237 45.044 35.3791 44.8635C35.3463 44.7307 35.3237 44.5964 35.2893 44.4635C35.2682 44.3807 35.2385 44.2995 35.2033 44.2221C35.1635 44.1339 35.108 44.0526 35.0698 43.9643C35.0073 43.8213 34.9682 43.6659 34.8901 43.5331C34.783 43.3503 34.651 43.1823 34.526 43.0112C34.383 42.8159 34.244 42.6167 34.0877 42.4323C33.9885 42.3151 33.8627 42.2198 33.7432 42.1206C33.5744 41.9799 33.4041 41.8401 33.2283 41.7096C33.1205 41.6299 33.0018 41.5643 32.8854 41.4971C32.7346 41.4104 32.5861 41.3166 32.4268 41.2487C32.258 41.176 32.0729 41.1424 31.9049 41.069C31.7338 40.9948 31.5643 40.9299 31.3768 40.919C31.3643 40.919 31.351 40.9159 31.3385 40.9127C31.1353 40.8666 30.9338 40.7846 30.7299 40.7799C30.1072 40.7659 29.4806 40.7049 28.8627 40.8463C28.708 40.8823 28.5494 40.9026 28.3939 40.9369C28.3197 40.9534 28.2486 40.9862 28.1752 41.0096C28.0822 41.0409 27.9853 41.0643 27.8955 41.1018C27.7384 41.1682 27.5853 41.244 27.4306 41.3143C27.3541 41.3495 27.2712 41.3737 27.1994 41.4174C27.0986 41.4784 27.0064 41.5549 26.908 41.6213C26.7931 41.6987 26.6712 41.7659 26.5595 41.8471C26.4564 41.9221 26.3681 42.0174 26.2634 42.0901C25.9705 42.2932 25.7744 42.5877 25.5439 42.8487C25.4376 42.969 25.3689 43.1213 25.2822 43.2588C25.1876 43.4088 25.0806 43.5526 25.0001 43.7096C24.9267 43.8542 24.8822 44.0128 24.8259 44.1659C24.7962 44.2456 24.7673 44.3253 24.7415 44.4065C24.6923 44.5612 24.6447 44.7159 24.597 44.8706C24.5908 44.8909 24.5931 44.9143 24.5876 44.9346C24.5423 45.1026 24.4759 45.2667 24.4548 45.4378C24.4134 45.7643 24.3853 46.094 24.3728 46.4237C24.3595 46.7784 24.3697 47.1347 24.3697 47.4901V47.6315H35.6049H35.6057ZM12.3485 47.6331H22.0282C22.0282 47.2745 22.0189 46.9237 22.0314 46.5737C22.0423 46.2792 22.0056 45.987 22.0814 45.6886C22.1462 45.4339 22.0946 45.1557 22.1743 44.8925C22.2275 44.7167 22.2384 44.5276 22.2689 44.3448C22.2704 44.3362 22.2728 44.3276 22.2759 44.3198C22.3204 44.2026 22.3665 44.0854 22.4095 43.9674C22.461 43.8268 22.5087 43.6846 22.5587 43.5432C22.5868 43.4628 22.6181 43.3838 22.6423 43.3026C22.6501 43.2753 22.6517 43.2346 22.6368 43.2143C22.5735 43.126 22.504 43.0432 22.4345 42.9596C22.3798 42.8932 22.3228 42.8299 22.2681 42.7643C22.1704 42.6463 22.0821 42.519 21.9743 42.4112C21.7899 42.2276 21.5954 42.0541 21.4024 41.8799C21.336 41.8198 21.2657 41.7643 21.1923 41.7135C21.0829 41.6377 20.9688 41.5674 20.8563 41.4963C20.7634 41.4377 20.6728 41.3721 20.5735 41.3252C20.4368 41.2604 20.2931 41.2096 20.1524 41.1526C19.9767 41.0807 19.8048 40.9948 19.6235 40.9385C19.4134 40.8729 19.1977 40.819 18.9813 40.783C18.7415 40.7432 18.497 40.7049 18.2555 40.708C17.8665 40.7135 17.4774 40.7534 17.0883 40.7784C17.0712 40.7791 17.054 40.7823 17.0376 40.7869C16.8579 40.833 16.679 40.8807 16.4993 40.9268C16.3751 40.9588 16.2469 40.9784 16.1282 41.0229C15.9672 41.0838 15.8141 41.1651 15.6563 41.2346C15.5211 41.294 15.3821 41.3432 15.25 41.4065C15.1852 41.4377 15.1329 41.4948 15.0711 41.5338C14.9766 41.594 14.8774 41.6448 14.7836 41.7057C14.6469 41.7956 14.5063 41.8815 14.3813 41.9862C14.2243 42.1174 14.0774 42.262 13.9336 42.4073C13.7899 42.5534 13.6485 42.7026 13.5172 42.8596C13.4063 42.9924 13.3047 43.1354 13.2094 43.2807C13.1227 43.412 13.0414 43.5487 12.9719 43.6893C12.9047 43.8245 12.8578 43.969 12.7985 44.1081C12.7289 44.2721 12.643 44.4307 12.5867 44.5995C12.5211 44.7995 12.4719 45.0057 12.4305 45.212C12.393 45.3987 12.3547 45.5893 12.3524 45.7784C12.3422 46.394 12.3485 47.0089 12.3485 47.6354V47.6331ZM37.9471 47.6323H47.6488C47.5761 46.9495 47.705 46.2737 47.573 45.5987C47.5191 45.3214 47.5105 45.0354 47.4089 44.7659C47.3503 44.6112 47.3105 44.4495 47.2527 44.2948C47.1745 44.087 47.0894 43.8823 47.0035 43.6784C46.9777 43.6167 46.9394 43.5604 46.9019 43.5042C46.8378 43.4065 46.7714 43.3104 46.7042 43.2143C46.6074 43.076 46.5191 42.9299 46.4081 42.8034C46.2269 42.5971 46.0339 42.401 45.8402 42.2057C45.748 42.1127 45.6472 42.0268 45.5425 41.9479C45.4128 41.851 45.2769 41.7627 45.1409 41.6745C44.9956 41.5799 44.8519 41.4815 44.6995 41.4002C44.5706 41.3315 44.4284 41.2862 44.2941 41.226C44.1401 41.1573 43.9925 41.0721 43.8347 41.0151C43.6542 40.9494 43.4667 40.9041 43.28 40.8565C43.1542 40.8244 43.0269 40.7963 42.8979 40.7791C42.6612 40.7479 42.4237 40.7049 42.1862 40.7057C41.8698 40.7073 41.5534 40.7409 41.2386 40.7705C41.037 40.7893 40.8378 40.8252 40.637 40.8541C40.6284 40.8557 40.6198 40.8573 40.612 40.8604C40.4807 40.9073 40.351 40.9573 40.219 41.0002C40.1104 41.0354 39.9971 41.0596 39.8885 41.0955C39.8182 41.1182 39.7503 41.1502 39.6831 41.183C39.5956 41.226 39.5104 41.2737 39.4245 41.3198C39.3518 41.3596 39.2776 41.3963 39.2089 41.4416C39.0807 41.5252 38.9549 41.612 38.8292 41.7002C38.694 41.7955 38.5557 41.887 38.4284 41.9916C38.2979 42.0987 38.1729 42.2159 38.0549 42.337C37.9377 42.4581 37.8276 42.5862 37.7213 42.7174C37.619 42.844 37.5206 42.9752 37.4307 43.1112C37.3791 43.1893 37.237 43.2651 37.3916 43.3784C37.3995 43.3838 37.3956 43.4034 37.3987 43.4159C37.4299 43.5307 37.4596 43.6456 37.4924 43.7596C37.5174 43.8463 37.5479 43.9315 37.5729 44.0182C37.6221 44.1878 37.6706 44.3573 37.7174 44.5268C37.7252 44.5557 37.7198 44.5878 37.7276 44.6167C37.7721 44.7925 37.8401 44.9659 37.8596 45.1448C37.901 45.5198 37.9198 45.8971 37.944 46.2737C37.951 46.3901 37.9456 46.5081 37.9456 46.6253C37.9456 46.9589 37.9456 47.2917 37.9456 47.6323H37.9471ZM20.1517 36.1283C20.1743 35.5588 19.9477 35.0775 19.5915 34.658C19.3212 34.3385 18.961 34.1299 18.5634 34.0064C18.3634 33.9439 18.1438 33.9017 17.9376 33.9127C17.2415 33.9517 16.6391 34.2181 16.1961 34.7681C15.8852 35.1541 15.7001 35.6267 15.7235 36.1088C15.7579 36.8244 15.9813 37.4861 16.6274 37.926C17.0219 38.194 17.4485 38.3432 17.9196 38.3455C19.186 38.3518 20.1532 37.4033 20.1517 36.1283ZM42.1581 38.3494C42.7675 38.3057 43.4097 38.0525 43.8597 37.4119C44.1339 37.0221 44.2526 36.565 44.2511 36.1182C44.2487 35.4346 43.9526 34.8385 43.4089 34.401C43.0198 34.0877 42.5511 33.915 42.0604 33.9158C41.3167 33.9166 40.6909 34.2283 40.2432 34.8361C39.9706 35.2072 39.8245 35.626 39.8206 36.0971C39.8096 37.39 40.7831 38.333 42.1581 38.3486V38.3494ZM27.7955 36.1353C27.7666 36.7096 27.9713 37.2182 28.3556 37.6525C28.6892 38.0291 29.1306 38.2229 29.6142 38.3236C29.7314 38.3479 29.8549 38.3479 29.9752 38.3471C30.7049 38.344 31.3111 38.0611 31.7564 37.4869C32.0627 37.0924 32.1893 36.6275 32.1861 36.1197C32.1814 35.3478 31.8518 34.7588 31.2392 34.3135C30.8666 34.0424 30.4299 33.9017 29.9861 33.9181C29.2299 33.9455 28.5892 34.2455 28.1533 34.908C27.9088 35.2791 27.7744 35.6744 27.7955 36.1353Z" fill="#00F38E"/>
<path d="M30.3001 10.0055C30.3095 10.0297 30.3134 10.068 30.3298 10.075C30.4079 10.107 30.4899 10.1305 30.5704 10.1555C30.7509 10.2117 30.9337 10.2609 31.1102 10.3258C31.2884 10.3906 31.4595 10.475 31.636 10.543C31.7345 10.5813 31.8415 10.5984 31.9407 10.6344C32.0462 10.6727 32.147 10.7242 32.2517 10.7649C32.3485 10.8016 32.4493 10.8274 32.5454 10.8641C32.661 10.9078 32.7735 10.9602 32.8884 11.0039C32.9759 11.0375 33.0673 11.0625 33.1556 11.0953C33.2806 11.1422 33.4024 11.1961 33.5274 11.2406C33.6314 11.2774 33.7407 11.2984 33.8446 11.3352C33.947 11.3719 34.0439 11.4219 34.1446 11.4633C34.2228 11.4961 34.3025 11.5274 34.3829 11.5539C34.4876 11.5875 34.597 11.611 34.7009 11.6477C34.8032 11.6836 34.9009 11.7328 35.0017 11.7742C35.0845 11.8078 35.1665 11.843 35.2517 11.8695C35.3611 11.9039 35.4751 11.9242 35.5829 11.9625C35.6775 11.9961 35.765 12.0492 35.8572 12.0891C35.9392 12.1242 36.0228 12.1555 36.1079 12.1828C36.2876 12.2414 36.4697 12.2906 36.6478 12.3539C36.7525 12.3906 36.8486 12.4492 36.9517 12.4914C37.0353 12.5258 37.1244 12.5485 37.2095 12.5797C37.3384 12.6274 37.4642 12.6828 37.5947 12.7266C37.7033 12.7633 37.8173 12.7828 37.9251 12.8203C38.0197 12.8539 38.108 12.9047 38.2009 12.943C38.2869 12.9789 38.3744 13.0133 38.4634 13.0414C38.5728 13.0758 38.6869 13.0961 38.7947 13.1344C38.8853 13.1664 38.9697 13.2164 39.0572 13.2586C39.072 13.2657 39.0884 13.2719 39.1048 13.2766C39.2962 13.3352 39.49 13.3883 39.6798 13.4524C39.8916 13.5242 40.1009 13.6016 40.308 13.6836C40.472 13.7493 40.6299 13.8313 40.7947 13.8953C40.897 13.936 41.008 13.9524 41.1119 13.9891C41.2103 14.0235 41.3049 14.0703 41.4017 14.1118C41.4174 14.118 41.4314 14.1282 41.447 14.1336C41.6338 14.1914 41.8236 14.2399 42.0064 14.3079C42.1721 14.3688 42.3322 14.4469 42.4924 14.5243C42.6017 14.5774 42.7283 14.6204 42.808 14.7047C42.9252 14.8289 43.0268 14.9774 43.101 15.1313C43.2682 15.479 43.1814 15.8563 43.183 16.2196C43.1908 18.679 43.1869 21.1384 43.1869 23.5986C43.1869 23.6853 43.1869 23.772 43.1838 23.8587C43.1744 24.0587 43.0814 24.2212 42.983 24.3939C42.8916 24.554 42.7541 24.6415 42.6213 24.7408C42.5478 24.7962 42.4416 24.8118 42.3486 24.8376C42.2517 24.8642 42.1517 24.8806 42.0525 24.9017C42.0486 24.9025 42.0439 24.9056 42.04 24.904C41.8947 24.8689 41.7478 24.8392 41.6056 24.7947C41.5236 24.7689 41.4408 24.7314 41.372 24.6798C41.2135 24.5611 41.0666 24.4384 40.9869 24.2384C40.8986 24.0165 40.8439 23.797 40.8447 23.5595C40.8463 21.529 40.8447 19.4993 40.8447 17.4688C40.8447 17.4048 40.8447 17.3399 40.8447 17.2594C40.7244 17.3063 40.6213 17.3469 40.5174 17.3876C40.4986 17.3954 40.4806 17.4071 40.4611 17.4133C40.2822 17.4696 40.1025 17.5219 39.9252 17.5813C39.7783 17.6305 39.633 17.6821 39.49 17.7407C39.3259 17.8071 39.1681 17.8876 39.0033 17.9509C38.897 17.9923 38.7814 18.0094 38.6728 18.0469C38.5619 18.0852 38.4548 18.1337 38.3462 18.1782C38.2712 18.2087 38.1986 18.2446 38.122 18.2696C38.0087 18.3055 37.8923 18.3313 37.7783 18.3649C37.697 18.3891 37.6119 18.4094 37.5392 18.4509C37.4665 18.4915 37.408 18.5415 37.408 18.6532C37.4126 20.7657 37.4119 22.8782 37.4111 24.9908C37.4111 25.0908 37.4072 25.19 37.4095 25.29C37.4158 25.5415 37.3126 25.7525 37.1533 25.9345C37.0595 26.0415 36.9494 26.1376 36.8353 26.2236C36.772 26.2712 36.6861 26.2892 36.6103 26.3189C36.4829 26.3689 36.3556 26.4173 36.2283 26.4666C36.1634 26.4916 36.0993 26.5181 36.0329 26.5392C35.9236 26.5736 35.8111 26.5986 35.7032 26.6369C35.5931 26.6759 35.4868 26.7267 35.3782 26.7712C35.3025 26.8025 35.2275 26.8353 35.1493 26.8595C35.04 26.8939 34.9251 26.9134 34.8189 26.9541C34.654 27.0166 34.4939 27.0939 34.3306 27.1619C34.2478 27.1962 34.1634 27.2244 34.0782 27.2517C33.8985 27.3095 33.7149 27.3572 33.5376 27.422C33.361 27.4869 33.1915 27.5712 33.0157 27.6392C32.9149 27.6783 32.8056 27.6947 32.7048 27.7322C32.6009 27.7705 32.5024 27.8244 32.3993 27.865C32.3079 27.9009 32.2126 27.9259 32.1204 27.9603C31.9993 28.0056 31.8806 28.0572 31.7602 28.1025C31.6767 28.1345 31.5923 28.1634 31.5071 28.1908C31.3274 28.2478 31.1446 28.297 30.9673 28.3611C30.786 28.4267 30.6157 28.5306 30.4305 28.5752C30.2407 28.6205 30.0501 28.7119 29.8469 28.658C29.7251 28.6259 29.6079 28.5775 29.4899 28.5345C29.4102 28.5049 29.3329 28.4666 29.2524 28.4408C29.143 28.4064 29.029 28.3861 28.9212 28.3486C28.8266 28.3158 28.7376 28.265 28.6454 28.2259C28.5594 28.19 28.4727 28.1548 28.3837 28.1267C28.2743 28.0923 28.1602 28.072 28.0524 28.0338C27.9618 28.0017 27.8774 27.9509 27.7891 27.9095C27.7704 27.9009 27.7493 27.8947 27.7297 27.8884C27.5508 27.8322 27.3711 27.7791 27.1938 27.7197C27.0516 27.672 26.9102 27.6197 26.7711 27.5642C26.6063 27.4978 26.4461 27.4212 26.2805 27.3564C26.1774 27.3166 26.068 27.2939 25.9641 27.258C25.8493 27.2181 25.7368 27.172 25.6235 27.1275C25.5485 27.0978 25.4766 27.0595 25.4008 27.0353C25.2875 26.9994 25.1696 26.9783 25.0571 26.9384C24.9547 26.9025 24.8594 26.8447 24.7571 26.8064C24.6586 26.7689 24.5531 26.747 24.4539 26.7103C24.3446 26.6697 24.2399 26.6197 24.1321 26.5751C24.061 26.5455 23.9899 26.5134 23.9164 26.49C23.8031 26.4548 23.6844 26.4337 23.5727 26.3931C23.468 26.3556 23.3742 26.2806 23.268 26.2587C23.0703 26.2189 22.9641 26.0665 22.8399 25.9415C22.75 25.8509 22.6852 25.7392 22.6305 25.6126C22.5539 25.4384 22.5688 25.2704 22.568 25.1009C22.5641 22.9579 22.5656 20.8149 22.5656 18.672C22.5656 18.5149 22.5102 18.4688 22.3563 18.4321C22.2375 18.404 22.1281 18.3376 22.0133 18.293C21.9289 18.2602 21.8406 18.236 21.7555 18.204C21.6273 18.1563 21.5023 18.1016 21.3734 18.0563C21.2695 18.0204 21.1594 18.0001 21.0555 17.9634C20.9562 17.9282 20.8617 17.8813 20.7648 17.8399C20.7461 17.8321 20.7266 17.8227 20.707 17.8165C20.5281 17.7602 20.3484 17.7071 20.1711 17.6477C20.025 17.5993 19.8789 17.5469 19.7359 17.4891C19.5719 17.4227 19.4125 17.3446 19.2476 17.2805C19.1414 17.2391 19.0258 17.2204 18.9179 17.1829C18.8078 17.1438 18.7015 17.093 18.5929 17.0477C18.5226 17.018 18.4531 16.9844 18.3797 16.9618C18.2664 16.9258 18.1468 16.9071 18.0359 16.8649C17.8703 16.8024 17.7156 16.7008 17.5461 16.6618C17.3351 16.6133 17.207 16.4735 17.0687 16.3344C16.9695 16.2344 16.9257 16.1032 16.8593 15.9844C16.7617 15.8094 16.8 15.636 16.7968 15.4625C16.7921 15.2524 16.8968 15.0821 16.9976 14.9C17.0898 14.7336 17.2492 14.6743 17.3632 14.5508C17.4187 14.4907 17.5336 14.4852 17.6203 14.4516C17.7367 14.4071 17.8515 14.3594 17.9664 14.3133C18.0343 14.286 18.1015 14.2555 18.1711 14.2336C18.2804 14.1985 18.3929 14.175 18.5008 14.1368C18.6109 14.0977 18.7156 14.0453 18.8234 14C18.8945 13.9703 18.9648 13.9391 19.0383 13.9164C19.1523 13.8813 19.2687 13.8555 19.382 13.8211C19.4508 13.8 19.5187 13.7743 19.5851 13.7446C19.6812 13.7016 19.7719 13.6469 19.8703 13.6094C19.9734 13.5703 20.082 13.5469 20.1883 13.5149C20.2781 13.4875 20.3687 13.4602 20.457 13.4289C20.5953 13.3797 20.7336 13.3313 20.8695 13.2758C21.0336 13.2102 21.1945 13.1367 21.3578 13.0688C21.4367 13.036 21.5156 13.0047 21.5969 12.9797C21.7062 12.9461 21.8203 12.925 21.9281 12.8867C22.0227 12.8532 22.1102 12.8008 22.2023 12.761C22.2844 12.7258 22.368 12.6938 22.4523 12.6656C22.632 12.6071 22.8149 12.5578 22.993 12.4953C23.0984 12.4586 23.1961 12.4008 23.2992 12.3578C23.3774 12.325 23.4586 12.2977 23.5399 12.2727C23.6438 12.2406 23.7508 12.2203 23.8524 12.1821C23.9563 12.143 24.0539 12.0867 24.1563 12.0438C24.2352 12.011 24.318 11.9875 24.3977 11.9578C24.5305 11.9086 24.6617 11.8531 24.7961 11.8086C24.9047 11.7719 25.0188 11.7531 25.1274 11.7156C25.2227 11.6828 25.3125 11.6344 25.4063 11.5945C25.4883 11.5602 25.5703 11.5235 25.6555 11.4961C25.7649 11.461 25.8789 11.4406 25.9868 11.4024C26.0813 11.3688 26.1688 11.318 26.2618 11.2781C26.3438 11.243 26.4266 11.2102 26.5118 11.182C26.6915 11.1234 26.8743 11.0734 27.0524 11.0102C27.1571 10.9734 27.254 10.9164 27.3563 10.8727C27.4313 10.8414 27.5079 10.8141 27.586 10.7899C27.6891 10.7578 27.7961 10.7352 27.8977 10.6984C28.0016 10.6609 28.1001 10.607 28.2032 10.5664C28.2946 10.5305 28.3899 10.5055 28.4821 10.4711C28.6032 10.4258 28.7219 10.375 28.8422 10.3289C28.9258 10.2969 29.0102 10.2672 29.0954 10.2406C29.2798 10.1828 29.4649 10.1297 29.6485 10.0695C29.6641 10.0641 29.6688 10.0242 29.6782 10C29.8868 10 30.0946 10 30.3032 10L30.3001 10.0055ZM21.3992 15.5727L21.4078 15.6016C21.5172 15.6375 21.6273 15.6735 21.7367 15.7094C21.8297 15.7399 21.9234 15.7672 22.0148 15.8024C22.1234 15.8446 22.2273 15.8977 22.3359 15.9383C22.4336 15.9751 22.5367 15.9954 22.6336 16.0321C22.7414 16.0727 22.843 16.129 22.9508 16.1688C23.0516 16.2055 23.1602 16.2227 23.2602 16.261C23.4367 16.329 23.6063 16.4133 23.7836 16.4782C23.961 16.543 24.1438 16.5922 24.3242 16.6493C24.4094 16.6766 24.4938 16.704 24.5774 16.736C24.6977 16.7821 24.8164 16.8337 24.9375 16.8782C25.0258 16.911 25.118 16.9321 25.2047 16.9672C25.3078 17.0087 25.4047 17.0672 25.5086 17.104C25.6868 17.1665 25.8696 17.2165 26.0493 17.2758C26.1336 17.3032 26.2172 17.3368 26.2993 17.3719C26.3914 17.4118 26.4797 17.4633 26.5735 17.4969C26.6813 17.5352 26.7954 17.5548 26.9047 17.5899C26.9899 17.6173 27.0711 17.6548 27.154 17.6876C27.2594 17.7298 27.3641 17.7743 27.4711 17.8118C27.5711 17.8469 27.6758 17.8704 27.7758 17.9055C27.9016 17.9501 28.0235 18.004 28.1485 18.0501C28.2368 18.0829 28.3274 18.1087 28.4149 18.1423C28.5344 18.1876 28.6516 18.2384 28.7712 18.2829C28.861 18.3165 28.9548 18.3384 29.043 18.3735C29.1462 18.4149 29.2446 18.468 29.3469 18.511C29.4665 18.5602 29.5876 18.6048 29.7094 18.6501C29.7969 18.6821 29.8844 18.7149 29.9743 18.7407C29.9985 18.7477 30.0305 18.7313 30.0571 18.7204C30.093 18.7063 30.1266 18.6845 30.1634 18.672C30.1993 18.6602 30.2415 18.6634 30.2759 18.6485C30.3641 18.6095 30.447 18.5563 30.5368 18.5235C30.6446 18.4844 30.7587 18.4649 30.868 18.4298C30.961 18.4001 31.0516 18.3626 31.1415 18.3251C31.2345 18.2868 31.3235 18.2391 31.4181 18.2063C31.5266 18.1688 31.6423 18.1532 31.7485 18.1118C31.9095 18.0485 32.0634 17.9673 32.2235 17.9024C32.3735 17.8423 32.5282 17.7954 32.6798 17.7399C32.8899 17.6633 33.097 17.5813 33.3087 17.5087C33.4868 17.4469 33.6696 17.3962 33.8493 17.3391C33.9345 17.3118 34.0189 17.2821 34.1017 17.2501C34.222 17.204 34.3407 17.1524 34.4618 17.1079C34.554 17.0743 34.6501 17.0516 34.7423 17.0165C34.854 16.9735 34.9603 16.9188 35.072 16.8774C35.1689 16.8415 35.2704 16.8204 35.3681 16.7868C35.5009 16.7399 35.6322 16.6876 35.7634 16.6376C35.7868 16.629 35.8095 16.618 35.8322 16.6087C35.929 16.568 36.0243 16.5235 36.1236 16.4891C36.2275 16.4532 36.3376 16.4321 36.4415 16.3954C36.5665 16.3516 36.6868 16.2961 36.8111 16.2501C36.9033 16.2157 36.9986 16.1915 37.0908 16.1563C37.2025 16.1133 37.3103 16.0602 37.4228 16.0188C37.5189 15.9829 37.6197 15.9626 37.715 15.9258C37.8275 15.8836 37.9345 15.8266 38.047 15.786C38.1548 15.7469 38.2689 15.7258 38.3767 15.6883C38.4455 15.6641 38.5095 15.6243 38.6048 15.5758C38.4783 15.5336 38.3791 15.5016 38.2806 15.468C38.1986 15.4399 38.1173 15.411 38.0369 15.3782C37.9306 15.3344 37.8267 15.2836 37.7197 15.2407C37.5908 15.1899 37.4611 15.1422 37.3306 15.0969C37.2306 15.0625 37.1283 15.0336 37.0267 15.0016C36.929 14.9711 36.8298 14.9461 36.7345 14.9086C36.6329 14.8688 36.5369 14.8157 36.4369 14.7711C36.3704 14.7422 36.3033 14.7149 36.2337 14.6938C36.1197 14.6594 36.0033 14.6344 35.89 14.5977C35.8181 14.5743 35.7509 14.5368 35.6806 14.5071C35.5759 14.4633 35.472 14.4164 35.365 14.3789C35.2564 14.3414 35.1439 14.3172 35.0353 14.2821C34.9657 14.2602 34.8986 14.2297 34.8306 14.2016C34.7236 14.1571 34.6181 14.1063 34.5087 14.0672C34.4009 14.0289 34.2876 14.0063 34.179 13.968C33.9767 13.8969 33.7759 13.8203 33.5751 13.7453C33.5556 13.7383 33.5368 13.7282 33.5173 13.7196C33.4251 13.6789 33.3353 13.6321 33.2407 13.5993C33.1329 13.5617 33.0188 13.5407 32.9095 13.5055C32.8243 13.4782 32.7415 13.4438 32.6595 13.4086C32.5665 13.3696 32.4782 13.3196 32.3837 13.2867C32.2759 13.2492 32.1618 13.2282 32.0524 13.193C31.9681 13.1657 31.8868 13.1282 31.8048 13.093C31.7126 13.0539 31.6227 13.0071 31.5282 12.9742C31.4196 12.9367 31.3063 12.9157 31.1977 12.8797C31.1134 12.8516 31.0321 12.8141 30.9501 12.7781C30.8657 12.7414 30.7845 12.6946 30.6977 12.6656C30.5852 12.6274 30.468 12.6031 30.354 12.5711C30.3391 12.5672 30.3266 12.5524 30.3118 12.5469C30.2055 12.5063 30.1001 12.4649 29.9923 12.4297C29.9688 12.4219 29.936 12.4375 29.9094 12.4485C29.8009 12.4914 29.6946 12.5406 29.5852 12.5789C29.4766 12.6164 29.3641 12.6406 29.2548 12.6758C29.1852 12.6985 29.1196 12.7305 29.0524 12.7578C28.9368 12.8039 28.8204 12.8492 28.704 12.8938C28.6094 12.9297 28.5133 12.9617 28.4188 12.9969C28.3047 13.0399 28.1915 13.0867 28.0766 13.1266C27.9719 13.1625 27.8626 13.1836 27.7594 13.2242C27.5954 13.2891 27.4368 13.3703 27.2719 13.4328C27.161 13.475 27.043 13.4961 26.9282 13.5282C26.9125 13.5328 26.8985 13.543 26.8829 13.55C26.7868 13.5914 26.6922 13.6375 26.593 13.6719C26.4891 13.7086 26.3797 13.7289 26.275 13.7649C26.1454 13.8094 26.0188 13.8641 25.8907 13.9125C25.8063 13.9438 25.7196 13.968 25.636 14.0016C25.5328 14.0438 25.4352 14.0993 25.3313 14.1375C25.2297 14.175 25.1227 14.1953 25.0196 14.2282C24.9383 14.2532 24.8578 14.2829 24.7797 14.3149C24.6727 14.3586 24.5688 14.4118 24.4602 14.4516C24.3594 14.4883 24.2524 14.511 24.15 14.543C24.0727 14.5672 23.9961 14.5954 23.9211 14.625C23.8016 14.6719 23.6844 14.7235 23.5641 14.7688C23.4711 14.8039 23.3742 14.8282 23.2813 14.8633C23.1695 14.9063 23.0617 14.9594 22.9492 15.0008C22.8539 15.036 22.7531 15.0586 22.657 15.0922C22.5281 15.1375 22.4016 15.1883 22.2742 15.2375C22.1875 15.2711 22.1023 15.3071 22.0156 15.3407C21.9047 15.3836 21.793 15.4266 21.682 15.4688C21.5891 15.504 21.4961 15.5375 21.4031 15.5727H21.3992ZM35.0697 19.3876C34.9548 19.4173 34.8626 19.4345 34.7751 19.4649C34.6462 19.5095 34.522 19.5641 34.3939 19.6118C34.3079 19.6438 34.2189 19.6665 34.1345 19.7009C34.0275 19.7438 33.9251 19.7993 33.8173 19.8391C33.7173 19.8759 33.611 19.8954 33.511 19.9306C33.3009 20.004 33.0923 20.0829 32.8837 20.1595C32.8603 20.1681 32.8368 20.1774 32.8134 20.1876C32.7165 20.2282 32.622 20.2743 32.5235 20.3087C32.4196 20.3454 32.3095 20.3657 32.2056 20.4017C32.0798 20.4454 31.9587 20.5009 31.8337 20.5477C31.7454 20.5806 31.654 20.6048 31.5665 20.6384C31.447 20.6837 31.3306 20.736 31.211 20.7806C31.1212 20.8142 31.0274 20.8345 30.9384 20.8696C30.8352 20.911 30.7391 20.9712 30.6345 21.0063C30.5141 21.047 30.3876 21.0681 30.2641 21.0993C30.2485 21.1032 30.2352 21.1188 30.2204 21.1204C30.0743 21.1313 29.9259 21.1603 29.7837 21.1438C29.6634 21.1298 29.5509 21.0579 29.4329 21.0181C29.3243 20.9813 29.2118 20.9563 29.1024 20.9212C29.0329 20.8993 28.9649 20.8696 28.8977 20.8415C28.7907 20.797 28.686 20.7454 28.5766 20.7056C28.4688 20.6665 28.354 20.6478 28.2477 20.6063C28.0829 20.5423 27.9251 20.4595 27.7586 20.3985C27.5821 20.3337 27.3985 20.2852 27.2188 20.2282C27.1336 20.2009 27.0493 20.1712 26.9665 20.1392C26.8469 20.0938 26.7289 20.0431 26.6086 19.9985C26.5196 19.9657 26.4266 19.9446 26.3391 19.9095C26.236 19.8681 26.1399 19.8087 26.0352 19.772C25.8571 19.7095 25.6735 19.6634 25.4953 19.6001C25.3946 19.5641 25.3047 19.5009 25.2047 19.4634C25.1141 19.429 25.0172 19.4118 24.9086 19.3829V20.0134C24.9086 21.4228 24.9086 22.8329 24.9094 24.2423C24.9094 24.2954 24.8805 24.3603 24.9711 24.3892C25.0844 24.4251 25.1907 24.4853 25.3024 24.5267C25.4032 24.5642 25.511 24.5837 25.6118 24.622C25.7164 24.6618 25.8141 24.7189 25.9188 24.7579C26.0188 24.7954 26.1266 24.8118 26.2266 24.8501C26.4071 24.9189 26.5813 25.0025 26.7625 25.0681C26.9391 25.1322 27.1211 25.1806 27.3 25.2384C27.3852 25.2658 27.4688 25.2978 27.5516 25.3314C27.6555 25.3736 27.7563 25.4244 27.8618 25.4626C27.9618 25.4994 28.068 25.5197 28.168 25.5556C28.2962 25.6009 28.4212 25.6548 28.5485 25.7025C28.6376 25.7361 28.729 25.7619 28.8173 25.7962C28.9258 25.8392 29.0298 25.8923 29.1391 25.9322C29.2477 25.9712 29.3633 25.9915 29.4712 26.033C29.5532 26.0642 29.6251 26.122 29.7063 26.154C29.8009 26.1908 29.9009 26.2353 29.9985 26.2353C30.0915 26.2353 30.1852 26.1861 30.2766 26.1525C30.3977 26.108 30.5157 26.0556 30.6368 26.0111C30.7243 25.9783 30.8157 25.9556 30.9032 25.9236C31.0266 25.8775 31.1477 25.8244 31.2712 25.7783C31.3634 25.7431 31.4595 25.7165 31.5516 25.6806C31.6563 25.64 31.7579 25.5908 31.8626 25.5486C31.979 25.5017 32.0962 25.4579 32.2142 25.415C32.3102 25.3798 32.4063 25.3439 32.5032 25.3134C32.6126 25.279 32.7243 25.2525 32.8337 25.2173C32.9032 25.1954 32.9696 25.165 33.0376 25.1369C33.1462 25.0915 33.2517 25.0408 33.3618 25.0009C33.4696 24.9626 33.5821 24.9376 33.6915 24.9017C33.761 24.879 33.8274 24.8478 33.8954 24.8204C34.0071 24.7751 34.1181 24.729 34.2314 24.6861C34.3298 24.6493 34.4306 24.6181 34.5298 24.5822C34.6486 24.5392 34.7634 24.4829 34.8853 24.454C35.0142 24.4243 35.072 24.3736 35.072 24.24C35.072 22.6743 35.072 21.1079 35.072 19.5423V19.3876H35.0697Z" fill="white"/>
</svg>
