<svg width="60" height="60" viewBox="0 0 60 60" fill="none" xmlns="http://www.w3.org/2000/svg">
<path d="M47.3215 33.9142C47.3215 33.8759 47.3215 33.8492 47.3215 33.8217C47.3206 29.7819 47.3215 25.742 47.3148 21.7013C47.3148 21.4913 47.2698 21.2779 47.2248 21.0712C47.1864 20.8928 47.1331 20.7145 47.0589 20.5486C46.9706 20.3502 46.8414 20.171 46.7497 19.9735C46.5822 19.6118 46.2946 19.3534 46.0279 19.0717C45.9087 18.945 45.8129 18.7916 45.722 18.6341C45.5637 18.3582 45.537 18.0673 45.582 17.7773C45.6212 17.5206 45.7454 17.2855 45.9371 17.0905C46.0829 16.9421 46.2754 16.8771 46.4438 16.7696C46.4821 16.7454 46.5438 16.7621 46.5938 16.7529C46.678 16.7379 46.7614 16.7171 46.8447 16.6988C46.8622 16.6946 46.8814 16.6854 46.8981 16.6879C47.0314 16.7113 47.1673 16.7254 47.2948 16.7671C47.3965 16.7996 47.4898 16.8621 47.5815 16.9196C47.8757 17.1038 48.1224 17.3397 48.3283 17.6198C48.3992 17.7156 48.4933 17.7939 48.5658 17.889C48.6817 18.039 48.7925 18.1932 48.8976 18.3499C49.0118 18.5207 49.1301 18.6899 49.221 18.8733C49.326 19.0842 49.4035 19.3092 49.4927 19.5292C49.5702 19.7201 49.6519 19.9101 49.7235 20.1043C49.7619 20.2077 49.7861 20.3161 49.8119 20.4244C49.8427 20.5544 49.8777 20.6853 49.8936 20.817C49.9294 21.1245 49.9811 21.4329 49.9811 21.7413C49.9861 27.2531 49.9861 32.7649 49.9811 38.2767C49.9811 38.58 49.9377 38.8851 49.8919 39.1868C49.8569 39.4185 49.7977 39.6477 49.7277 39.8719C49.666 40.0686 49.5727 40.2553 49.4977 40.4479C49.4593 40.5471 49.441 40.6537 49.3977 40.7496C49.3335 40.8904 49.2551 41.0255 49.181 41.1622C49.1159 41.283 49.0543 41.4055 48.9817 41.5214C48.8976 41.6564 48.8101 41.7906 48.7117 41.9156C48.5267 42.1515 48.3375 42.3857 48.1399 42.6107C48.0399 42.7249 47.9182 42.8191 47.8049 42.9208C47.6999 43.015 47.5965 43.1117 47.4848 43.1983C47.3465 43.305 47.2031 43.405 47.0589 43.5042C46.9239 43.5967 46.7864 43.6859 46.6472 43.7734C46.5647 43.8251 46.4788 43.8726 46.3905 43.9151C46.2571 43.9793 46.1221 44.0402 45.9854 44.0977C45.8579 44.1518 45.7278 44.1993 45.5995 44.2502C45.4778 44.2985 45.3569 44.3477 45.2353 44.3969C45.2269 44.4002 45.2194 44.4061 45.2111 44.4077C45.0494 44.4394 44.8869 44.4694 44.726 44.5019C44.4901 44.5502 44.2543 44.6011 44.0184 44.6478C43.9642 44.6586 43.9075 44.6578 43.8525 44.6586C42.5798 44.6611 41.3071 44.6636 40.0352 44.6644C38.8133 44.6653 37.5914 44.6644 36.3704 44.6644H36.1504C36.1879 44.7361 36.2154 44.7886 36.2429 44.8403C36.3171 44.9812 36.3912 45.1212 36.4654 45.262C36.4988 45.3262 36.5346 45.3896 36.5646 45.4554C36.6546 45.6529 36.7363 45.8538 36.8321 46.048C36.8988 46.183 36.988 46.3064 37.0564 46.4397C37.1264 46.5764 37.1805 46.7206 37.2456 46.8598C37.3056 46.9907 37.3622 47.124 37.4364 47.2465C37.4731 47.3066 37.5398 47.3349 37.6281 47.3349C39.1042 47.3299 40.5803 47.3274 42.0564 47.3349C42.4365 47.3366 42.7473 47.5066 42.9957 47.7991C43.1191 47.9442 43.1874 48.1059 43.2599 48.2792C43.3408 48.4718 43.3358 48.6568 43.3141 48.8385C43.2808 49.1194 43.1691 49.3819 42.954 49.5794C42.8273 49.6953 42.6898 49.8053 42.5415 49.8895C42.4373 49.9487 42.3073 49.9703 42.1856 49.9903C42.0814 50.007 41.973 49.997 41.8672 49.997C33.9542 49.997 26.0411 49.997 18.1272 49.997C18.0672 49.997 18.0064 49.9995 17.9472 49.9962C17.6063 49.9745 17.3029 49.8695 17.0762 49.5986C16.972 49.4736 16.8404 49.3594 16.7762 49.2152C16.6603 48.956 16.6237 48.6668 16.687 48.3892C16.727 48.2142 16.822 48.0442 16.9262 47.895C17.0437 47.7258 17.1912 47.5841 17.3905 47.4866C17.618 47.3749 17.8447 47.3291 18.0931 47.3299C19.5183 47.3332 20.9436 47.3299 22.3688 47.3332C22.498 47.3332 22.548 47.2707 22.5922 47.1599C22.6497 47.0173 22.7364 46.8856 22.8106 46.7498C22.8447 46.6864 22.8814 46.6248 22.9114 46.5598C23.0014 46.3631 23.0823 46.1622 23.1781 45.9688C23.244 45.8346 23.3348 45.7121 23.4023 45.5779C23.4715 45.4412 23.5215 45.2954 23.5899 45.1587C23.6632 45.0128 23.7482 44.872 23.8266 44.7286C23.8324 44.7178 23.8266 44.7019 23.8266 44.6661C23.7599 44.6661 23.6932 44.6661 23.6257 44.6661C21.2336 44.6661 18.8407 44.6661 16.4486 44.6653C16.3703 44.6653 16.2903 44.6694 16.2127 44.6611C15.9644 44.6353 15.716 44.6078 15.4693 44.5736C15.3368 44.5552 15.2034 44.5302 15.0767 44.4894C14.865 44.4219 14.6591 44.3377 14.4491 44.266C14.3333 44.226 14.2099 44.2085 14.0982 44.1602C13.9507 44.096 13.8107 44.0135 13.669 43.9368C13.5673 43.8818 13.4681 43.8243 13.3681 43.7676C13.2581 43.7059 13.1431 43.6518 13.038 43.5826C12.8822 43.4792 12.7305 43.3709 12.5838 43.255C12.4388 43.1417 12.2937 43.0258 12.1637 42.895C11.892 42.6232 11.6236 42.3474 11.3677 42.0606C11.2586 41.9381 11.1802 41.7881 11.0902 41.6489C10.981 41.4789 10.866 41.313 10.7701 41.1355C10.696 40.998 10.6485 40.8454 10.5868 40.7012C10.5084 40.5179 10.4192 40.3387 10.3509 40.1528C10.3051 40.0286 10.2884 39.8936 10.2534 39.7644C10.205 39.5861 10.1525 39.4085 10.1017 39.231C10.0984 39.2177 10.0967 39.2035 10.0959 39.1901C10.0742 38.7659 9.99917 38.3475 10 37.9191C10.0092 33.4625 10.0058 29.0059 10.0058 24.5493C10.0058 23.6283 10.0058 22.7073 10.0067 21.7863C10.0067 21.703 10.0017 21.6188 10.0108 21.5363C10.0367 21.2929 10.0642 21.0487 10.0984 20.807C10.1175 20.6744 10.1425 20.5411 10.1825 20.4136C10.2501 20.201 10.3334 19.9935 10.4059 19.7826C10.4442 19.6718 10.4668 19.5543 10.5093 19.4451C10.5459 19.3509 10.6026 19.2642 10.6501 19.1734C10.6835 19.11 10.7243 19.0492 10.7468 18.9817C10.841 18.6991 11.0227 18.4649 11.181 18.2199C11.3111 18.0198 11.4819 17.8456 11.6395 17.6639C11.7886 17.4906 11.9295 17.3055 12.1004 17.1563C12.2462 17.0297 12.3779 16.873 12.5905 16.8329C12.7505 16.8021 12.9038 16.7379 13.0614 16.6954C13.0922 16.6871 13.1314 16.7071 13.1656 16.7163C13.2089 16.7279 13.2514 16.7504 13.2956 16.7521C13.4748 16.7571 13.6215 16.8329 13.7832 16.9071C14.0482 17.0288 14.1857 17.2514 14.3158 17.4681C14.4649 17.7181 14.4733 18.0307 14.4049 18.3049C14.3208 18.6433 14.1282 18.9383 13.8565 19.1767C13.704 19.31 13.5598 19.4592 13.4414 19.6226C13.3281 19.7776 13.2539 19.9602 13.1606 20.1294C13.0855 20.266 12.998 20.3961 12.9372 20.5378C12.8872 20.6536 12.8697 20.7836 12.8372 20.9078C12.788 21.0954 12.738 21.2829 12.6905 21.4704C12.6813 21.5054 12.6788 21.5438 12.678 21.5804C12.6746 21.7563 12.6721 21.9322 12.6721 22.108C12.6721 25.9862 12.6721 29.8644 12.6721 33.7425V33.9184H47.3256L47.3215 33.9142ZM47.309 36.5989H12.6813C12.6763 36.6472 12.668 36.688 12.668 36.7289C12.668 37.289 12.6638 37.8491 12.6763 38.4083C12.6805 38.5867 12.728 38.7651 12.763 38.9418C12.7822 39.0401 12.8072 39.1401 12.8463 39.2327C12.9172 39.4002 12.9997 39.5635 13.0772 39.7286C13.1422 39.8669 13.1939 40.0145 13.2739 40.1428C13.3639 40.287 13.4706 40.4237 13.5865 40.5479C13.7582 40.7329 13.9332 40.9171 14.1266 41.0788C14.2866 41.213 14.4716 41.3197 14.6508 41.428C14.8333 41.5381 15.0175 41.6497 15.2117 41.7364C15.3776 41.8106 15.556 41.8614 15.7335 41.9015C15.9269 41.9456 16.1244 41.974 16.3219 41.9923C16.487 42.0073 16.6545 41.999 16.8212 41.999C24.9243 41.999 33.0273 41.999 41.1304 41.999C41.9355 41.999 42.7407 42.004 43.5458 41.9931C43.7842 41.9898 44.0217 41.9373 44.2601 41.9073C44.2734 41.9056 44.2868 41.9015 44.3001 41.8965C44.4285 41.8481 44.556 41.7973 44.6843 41.7506C44.7827 41.7156 44.8885 41.6964 44.9802 41.6506C45.1136 41.5839 45.2386 41.4989 45.367 41.4205C45.4886 41.3455 45.6203 41.2813 45.727 41.1897C45.9154 41.028 46.0854 40.8454 46.2671 40.6754C46.5088 40.4495 46.6972 40.187 46.8297 39.8844C46.8605 39.8144 46.8964 39.7469 46.9306 39.6777C46.9756 39.5877 47.0322 39.5027 47.0648 39.4085C47.1073 39.2852 47.1314 39.1551 47.1614 39.0268C47.2131 38.8068 47.299 38.5875 47.3081 38.3658C47.3306 37.8249 47.3181 37.2832 47.3181 36.7414C47.3181 36.6964 47.3106 36.6505 47.3065 36.598L47.309 36.5989ZM34.4867 47.3207C34.4284 47.1849 34.3817 47.054 34.3184 46.9315C34.22 46.7423 34.1067 46.5614 34.0058 46.3739C33.9183 46.2114 33.835 46.0463 33.7566 45.8788C33.6641 45.6796 33.5791 45.4754 33.4899 45.2745C33.4607 45.2087 33.4266 45.1453 33.3932 45.082C33.344 44.9895 33.2907 44.9003 33.244 44.807C33.204 44.7261 33.1623 44.6619 33.0548 44.6628C31.0136 44.6644 28.9733 44.6644 26.9321 44.6628C26.8254 44.6628 26.7812 44.7253 26.7479 44.812C26.7154 44.8961 26.6837 44.9812 26.6412 45.0603C26.5704 45.1929 26.4854 45.317 26.4187 45.4512C26.3487 45.5921 26.302 45.7446 26.2303 45.8846C26.1336 46.0747 26.0169 46.2547 25.9194 46.4439C25.8494 46.5798 25.8019 46.7265 25.7361 46.864C25.6986 46.9415 25.636 47.0073 25.596 47.084C25.5577 47.1574 25.5352 47.2382 25.5035 47.3199H34.4884L34.4867 47.3207Z" fill="white"/>
<path d="M41.9878 19.025C41.9878 20.7461 41.9912 22.4681 41.9837 24.1892C41.9828 24.4418 41.9478 24.6976 41.892 24.9444C41.8453 25.1494 41.7461 25.3419 41.6695 25.5403C41.6378 25.622 41.6103 25.7053 41.5736 25.7845C41.5161 25.9104 41.4669 26.042 41.3902 26.1554C41.2669 26.3371 41.1269 26.508 40.9877 26.6772C40.8543 26.8389 40.7243 27.0047 40.5268 27.1014C40.4584 27.1347 40.4092 27.2056 40.3467 27.2531C40.1684 27.3881 39.9842 27.509 39.775 27.5982C39.5791 27.6815 39.4041 27.8115 39.214 27.9099C39.074 27.9816 38.9198 28.0257 38.779 28.0966C38.5881 28.1933 38.4081 28.3108 38.2172 28.4075C38.0772 28.4791 37.9238 28.525 37.783 28.595C37.6488 28.6617 37.5237 28.7475 37.392 28.8209C37.3295 28.8559 37.262 28.8842 37.1962 28.9134C36.9987 29.0017 36.7986 29.0842 36.6027 29.1776C36.3785 29.2843 36.1585 29.4001 35.936 29.5118C35.7701 29.5952 35.6042 29.6785 35.4384 29.761C35.2158 29.8727 34.9933 29.9836 34.7708 30.0944C34.6049 30.1778 34.439 30.2611 34.2732 30.3436C34.0506 30.4553 33.8281 30.5653 33.6056 30.677C33.3872 30.787 33.1697 30.8987 32.9513 31.0079C32.7813 31.0929 32.6079 31.1713 32.4412 31.2613C32.2528 31.3621 32.0736 31.4813 31.8811 31.5738C31.7236 31.6497 31.5485 31.6897 31.3877 31.7605C31.1968 31.8447 30.9893 31.8706 30.7984 31.9356C30.515 32.0331 30.2358 31.9772 29.9566 32.0039C29.8741 32.0122 29.7891 32.0097 29.7074 32.0006C29.4607 31.9731 29.2098 31.9597 28.9689 31.9022C28.7714 31.8547 28.5864 31.7539 28.3955 31.6755C28.2496 31.6155 28.1013 31.5622 27.9604 31.4922C27.8229 31.4238 27.6937 31.3388 27.5595 31.263C27.5012 31.2296 27.4395 31.2004 27.3778 31.1729C27.177 31.0838 26.9736 30.9996 26.7744 30.9071C26.6069 30.8295 26.4427 30.7454 26.2801 30.6578C26.0934 30.557 25.9126 30.4428 25.7242 30.3461C25.585 30.2744 25.4325 30.2286 25.2925 30.1586C25.1591 30.0919 25.0341 30.0086 24.9032 29.9361C24.8365 29.8994 24.7657 29.8685 24.6957 29.8377C24.499 29.7494 24.3006 29.6652 24.1056 29.5743C23.9389 29.496 23.773 29.4135 23.6105 29.3251C23.423 29.2234 23.2429 29.1084 23.0537 29.0117C22.9145 28.9401 22.762 28.895 22.6212 28.8259C22.4878 28.7592 22.3636 28.6733 22.2328 28.6017C22.1619 28.5633 22.0836 28.5391 22.0119 28.5025C21.9194 28.4558 21.8302 28.4025 21.7385 28.3541C21.6752 28.3199 21.611 28.2874 21.5451 28.2583C21.3443 28.1691 21.1409 28.0849 20.9417 27.9924C20.7742 27.9149 20.5991 27.8449 20.45 27.7398C20.2441 27.5957 20.0107 27.5048 19.8015 27.3606C19.4973 27.1506 19.2081 26.9314 18.9689 26.6513C18.8513 26.5138 18.7622 26.3529 18.658 26.2029C18.5855 26.0987 18.5021 26.002 18.4396 25.892C18.3904 25.8053 18.3654 25.7053 18.3313 25.6111C18.3004 25.5253 18.2771 25.4369 18.2396 25.3544C18.1454 25.1452 18.1187 24.9219 18.0695 24.701C17.9245 24.0517 18.007 23.3983 18.0045 22.7481C17.992 19.7868 17.997 16.8246 18.0045 13.8633C18.0045 13.6016 18.0487 13.3382 18.0954 13.0798C18.1279 12.9006 18.1862 12.7222 18.2604 12.5556C18.3471 12.3605 18.4604 12.178 18.5671 11.9921C18.653 11.8429 18.7305 11.6846 18.8397 11.5545C19.0022 11.3612 19.1822 11.182 19.3681 11.0094C19.519 10.8703 19.6815 10.7402 19.8507 10.6252C19.9724 10.5427 20.1149 10.491 20.2474 10.4235C20.3366 10.3777 20.4225 10.3235 20.5133 10.2835C20.605 10.2435 20.7008 10.2143 20.7967 10.1826C20.8842 10.1543 20.9709 10.1235 21.0609 10.1035C21.5301 9.99927 22.0069 9.98511 22.4828 10.0243C22.6645 10.0393 22.8412 10.1185 23.0204 10.166C23.1479 10.2001 23.2796 10.2218 23.4038 10.2643C23.498 10.2968 23.583 10.356 23.673 10.401C23.7414 10.4352 23.8105 10.4685 23.8805 10.5002C24.0781 10.5894 24.2806 10.6694 24.474 10.7669C24.6615 10.8619 24.8374 10.9803 25.0241 11.0761C25.1641 11.1478 25.3183 11.1936 25.4592 11.2645C25.5942 11.332 25.7184 11.4229 25.8534 11.4904C25.9943 11.5612 26.1468 11.6104 26.2885 11.6804C26.4235 11.7479 26.5485 11.8363 26.6835 11.9046C26.8202 11.9746 26.9661 12.0271 27.1044 12.0946C27.2403 12.1613 27.3712 12.238 27.5053 12.3088C27.577 12.3463 27.6495 12.383 27.7237 12.4164C27.8637 12.4789 28.0096 12.5314 28.1463 12.6014C28.3322 12.6981 28.5097 12.8114 28.6939 12.9114C28.8089 12.974 28.9298 13.0281 29.0498 13.0815C29.194 13.1457 29.339 13.2082 29.4857 13.2657C29.5715 13.299 29.6607 13.3365 29.7499 13.3424C29.9341 13.3532 30.1216 13.3615 30.3033 13.3374C30.4267 13.3207 30.5434 13.2473 30.6617 13.1965C30.7317 13.1665 30.7984 13.1281 30.8676 13.0965C31.0643 13.0073 31.2635 12.9223 31.4594 12.8306C31.6269 12.7514 31.7928 12.6689 31.9561 12.5814C32.1436 12.4805 32.3245 12.3664 32.5145 12.2697C32.6537 12.198 32.8071 12.1538 32.9463 12.083C33.1363 11.9871 33.3163 11.8721 33.5055 11.7746C33.6414 11.7046 33.7881 11.6562 33.9248 11.5879C34.0631 11.5195 34.194 11.437 34.3299 11.3637C34.3965 11.327 34.4665 11.2953 34.5357 11.2645C34.7333 11.1761 34.9325 11.092 35.1275 11.0003C35.295 10.9211 35.4576 10.8328 35.6234 10.7502C35.8451 10.6394 36.0735 10.5385 36.2894 10.416C36.4986 10.2968 36.7136 10.2051 36.9528 10.1701C37.0845 10.151 37.2212 10.1335 37.3429 10.0843C37.6696 9.95343 38.0072 10.0101 38.3364 10.0251C38.5614 10.0359 38.7965 10.0676 39.014 10.1643C39.1324 10.2168 39.2707 10.2235 39.3949 10.266C39.4891 10.2985 39.5758 10.3543 39.6649 10.3993C39.7333 10.4335 39.7991 10.4735 39.87 10.5019C40.0108 10.5602 40.1284 10.6602 40.2567 10.7327C40.6093 10.9319 40.846 11.2495 41.1252 11.5212C41.2477 11.6412 41.3186 11.8146 41.4111 11.9646C41.4903 12.093 41.5753 12.218 41.6411 12.353C41.6886 12.4497 41.7061 12.5597 41.742 12.6622C41.7861 12.7889 41.8362 12.9131 41.8837 13.0381C41.8887 13.0506 41.8937 13.064 41.8953 13.0773C41.9262 13.3382 41.982 13.5999 41.9828 13.8608C41.9903 15.5819 41.987 17.3039 41.987 19.025H41.9878ZM31.3268 28.8634C31.5069 28.7792 31.6602 28.7108 31.8103 28.6367C31.9519 28.5675 32.0895 28.4908 32.2303 28.4208C32.3662 28.3533 32.5045 28.2916 32.6404 28.2241C32.7854 28.1516 32.9271 28.0741 33.0721 28.0024C33.2038 27.9365 33.338 27.8765 33.4697 27.8115C33.6197 27.7373 33.7673 27.6582 33.9165 27.5831C34.0448 27.519 34.1748 27.459 34.3032 27.3948C34.4482 27.3214 34.5924 27.2448 34.7358 27.1689C34.8741 27.0964 35.0108 27.0214 35.15 26.9514C35.285 26.8839 35.4234 26.8222 35.5584 26.7555C35.6984 26.6872 35.8368 26.6155 35.976 26.5455C36.1102 26.4771 36.2444 26.4071 36.3794 26.3404C36.5194 26.2713 36.6619 26.2079 36.802 26.1387C36.9395 26.0696 37.0728 25.992 37.2112 25.9245C37.3479 25.8578 37.4921 25.8045 37.6271 25.7345C37.818 25.6361 38.003 25.5278 38.1914 25.4253C38.3989 25.3119 38.6189 25.2177 38.8106 25.0819C38.9948 24.951 39.1482 24.7668 39.2282 24.5568C39.2957 24.3809 39.3216 24.1784 39.3216 23.9875C39.3266 20.6828 39.3257 17.3789 39.3249 14.0741C39.3249 13.9866 39.3341 13.8966 39.319 13.8108C39.2974 13.6891 39.2799 13.5582 39.2199 13.4549C39.1374 13.3123 39.0215 13.1873 38.9123 13.0615C38.7031 12.8189 38.4222 12.7164 38.1155 12.6789C38.0105 12.6664 37.9005 12.6647 37.7971 12.6822C37.6713 12.7039 37.5471 12.7439 37.4279 12.7906C37.3429 12.8231 37.2695 12.8839 37.1862 12.9231C37.047 12.989 36.902 13.0431 36.7653 13.1131C36.6311 13.1815 36.5069 13.2665 36.3744 13.3382C36.2152 13.424 36.0527 13.504 35.891 13.5849C35.6676 13.6974 35.4459 13.8124 35.22 13.92C35.0233 14.0133 34.8224 14.0975 34.6232 14.1875C34.5574 14.2175 34.4924 14.2517 34.4282 14.285C34.2823 14.3609 34.1373 14.4392 33.9906 14.5126C33.8606 14.5776 33.7273 14.6359 33.5964 14.7009C33.4497 14.7743 33.3055 14.8551 33.1588 14.9285C33.0288 14.9935 32.8938 15.0501 32.7646 15.1168C32.6304 15.1868 32.5029 15.271 32.3679 15.3377C32.2295 15.406 32.0845 15.4602 31.9436 15.5236C31.8778 15.5536 31.8161 15.5911 31.7527 15.6252C31.6719 15.6686 31.5944 15.7328 31.5077 15.7494C31.366 15.7769 31.3243 15.8461 31.3243 15.9836C31.3268 20.2135 31.326 24.4434 31.326 28.6733C31.326 28.7233 31.326 28.7742 31.326 28.8642L31.3268 28.8634ZM28.663 28.8517V19.7301C28.663 18.4807 28.6614 17.2314 28.6647 15.982C28.6647 15.8453 28.6247 15.7628 28.4797 15.7536C28.4655 15.7528 28.4505 15.7536 28.4388 15.7478C28.2513 15.6444 28.0663 15.5369 27.8771 15.436C27.7137 15.3485 27.5478 15.2652 27.3803 15.1868C27.1845 15.0952 26.9853 15.0101 26.7886 14.921C26.7194 14.8893 26.6502 14.8568 26.5827 14.8209C26.446 14.7476 26.3143 14.6667 26.1751 14.5984C26.0376 14.5301 25.8917 14.4801 25.7559 14.41C25.6225 14.3417 25.4975 14.2558 25.3658 14.1842C25.2066 14.0983 25.0458 14.015 24.8824 13.9375C24.6865 13.8449 24.4873 13.7608 24.2898 13.6716C24.2198 13.6399 24.1506 13.6091 24.0831 13.5732C23.9464 13.4999 23.8147 13.4182 23.6763 13.349C23.5388 13.2807 23.3938 13.229 23.2563 13.1623C23.1012 13.0873 22.9512 13.0023 22.7987 12.9239C22.727 12.8873 22.6545 12.8523 22.5803 12.8214C22.4603 12.7723 22.3403 12.6922 22.2169 12.6872C22.0186 12.6789 21.8219 12.6522 21.6143 12.7389C21.4368 12.8131 21.2684 12.8848 21.1217 13.0081C20.965 13.1398 20.8317 13.2973 20.7625 13.4849C20.6933 13.6716 20.6608 13.8708 20.6608 14.0791C20.6667 17.3831 20.6667 20.6878 20.6633 23.9917C20.6633 24.2926 20.7367 24.5651 20.9167 24.801C21.0201 24.936 21.1359 25.076 21.2784 25.1627C21.5443 25.3244 21.8319 25.4511 22.1119 25.5878C22.2544 25.6578 22.402 25.7162 22.5453 25.7853C22.6945 25.857 22.842 25.9337 22.9896 26.0104C23.1263 26.0812 23.2629 26.1521 23.3988 26.2246C23.5188 26.2888 23.6355 26.3579 23.7572 26.4188C23.9147 26.4971 24.0764 26.5663 24.2339 26.6447C24.3556 26.7047 24.4715 26.7772 24.5932 26.8364C24.744 26.9089 24.9016 26.9672 25.0508 27.0431C25.2258 27.1322 25.3908 27.2398 25.5658 27.3281C25.7584 27.4248 25.9576 27.5065 26.1526 27.5973C26.1959 27.6173 26.2326 27.6515 26.276 27.6723C26.3685 27.7165 26.4643 27.7523 26.5552 27.7965C26.6927 27.864 26.8277 27.9365 26.9644 28.0066C27.1094 28.0807 27.2545 28.1566 27.4012 28.2291C27.5353 28.2958 27.6712 28.3574 27.8046 28.4241C27.9471 28.495 28.0879 28.5692 28.2305 28.64C28.3672 28.7083 28.5038 28.775 28.6639 28.8542L28.663 28.8517Z" fill="#00F38E"/>
<path d="M29.9912 37.9999C30.0745 37.9999 30.1621 37.9841 30.2396 38.0033C30.3629 38.0349 30.4796 38.0908 30.5996 38.135C30.833 38.22 30.963 38.425 31.1231 38.5925C31.1706 38.6425 31.2106 38.7092 31.2306 38.7759C31.3098 39.0368 31.3856 39.311 31.3106 39.576C31.2339 39.8461 31.1072 40.1103 30.8922 40.3028C30.7905 40.3945 30.6413 40.4312 30.5246 40.5079C30.3621 40.6145 30.1704 40.6421 29.9954 40.6446C29.8203 40.6471 29.6378 40.5937 29.4653 40.5129C29.3144 40.442 29.1761 40.362 29.0669 40.2436C28.971 40.1395 28.9043 40.0094 28.8185 39.8961C28.6401 39.6611 28.6451 39.3877 28.671 39.1201C28.6835 38.9884 28.766 38.8651 28.8077 38.7351C28.8818 38.5025 29.0644 38.3633 29.2411 38.22C29.3036 38.17 29.3678 38.1108 29.4411 38.0891C29.6186 38.0366 29.802 38.0041 29.9837 37.9633C29.9862 37.9749 29.9879 37.9874 29.9904 37.9991L29.9912 37.9999Z" fill="white"/>
</svg>
