<svg width="60" height="60" viewBox="0 0 60 60" fill="none" xmlns="http://www.w3.org/2000/svg">
<path d="M28.5931 36.5153L32.6948 42H28.7554L25 36.3364V34.8261H26.3312C27.1176 34.8261 27.7742 34.6539 28.3009 34.3094C28.8276 33.9584 29.1667 33.4947 29.3182 32.9184H25V31.418H29.2965C29.1522 30.7821 28.86 30.3052 28.4199 29.9872C27.9798 29.6626 27.4242 29.5004 26.7532 29.5004H25V28H35V29.5004H31.5152C32.0346 30.017 32.3593 30.6563 32.4892 31.418H35V32.9184H32.5325C32.2583 34.8857 30.9452 36.0847 28.5931 36.5153Z" fill="#10FF7C"/>
<path d="M26.2105 11.8599C26.3905 11.75 26.5383 11.6613 26.6842 11.5699C26.8292 11.4794 26.9732 11.3871 27.1154 11.2938C27.2512 11.2052 27.3842 11.1137 27.519 11.0232C27.7378 10.8773 27.953 10.725 28.1765 10.5883C28.3159 10.5024 28.4692 10.4387 28.6179 10.3676C28.8026 10.2799 28.9836 10.182 29.1747 10.1137C29.3271 10.0592 29.4924 10.0213 29.653 10.0139C29.991 9.99915 30.3309 9.99084 30.667 10.0167C30.8563 10.0305 31.041 10.1155 31.2266 10.1718C31.3319 10.2041 31.4399 10.2328 31.5387 10.2808C31.7059 10.3621 31.8684 10.4526 32.03 10.5458C32.1925 10.6391 32.3513 10.737 32.5092 10.8376C32.6939 10.9558 32.8666 11.0934 33.0596 11.195C33.2572 11.2993 33.4419 11.4157 33.6174 11.5551C33.7273 11.6429 33.8649 11.6946 33.9877 11.7648C34.0265 11.7869 34.0597 11.8192 34.0902 11.8423C34.2047 11.7823 34.3183 11.7251 34.4282 11.6632C34.5473 11.5976 34.6655 11.5302 34.78 11.4582C34.9074 11.3788 35.0293 11.291 35.1577 11.2125C35.2805 11.1368 35.4079 11.0703 35.5317 10.9965C35.6683 10.9152 35.7995 10.8256 35.9389 10.749C36.1107 10.6539 36.2833 10.5578 36.4643 10.483C36.5945 10.4295 36.7414 10.4165 36.8771 10.3731C37.2677 10.2485 37.6694 10.2706 38.0683 10.29C38.2853 10.3002 38.5005 10.3491 38.7009 10.4498C38.7979 10.4987 38.9133 10.5098 39.0121 10.556C39.1811 10.6363 39.339 10.7397 39.5089 10.8173C39.9208 11.0066 40.1636 11.3852 40.4776 11.6826C40.5801 11.7795 40.6272 11.9347 40.7001 12.063C40.7832 12.2099 40.8738 12.3539 40.9486 12.5054C40.9956 12.6014 41.0335 12.7067 41.0529 12.8119C41.0954 13.0474 41.136 13.2838 41.1536 13.5221C41.1702 13.7409 41.1536 13.9625 41.1545 14.1832C41.1554 14.4252 41.0834 14.6477 40.9892 14.8675C40.9135 15.0448 40.8608 15.2313 40.7796 15.4059C40.7085 15.5573 40.6115 15.6968 40.5284 15.8436C40.4896 15.9128 40.4573 15.9858 40.4203 16.056C40.3298 16.2287 40.2375 16.4004 40.1479 16.5731C40.0833 16.6978 40.0223 16.8243 39.9559 16.948C39.8367 17.1687 39.7084 17.3857 39.5939 17.6092C39.4867 17.8179 39.4018 18.0377 39.2919 18.2455C39.1903 18.4375 39.062 18.6148 38.9585 18.806C38.8782 18.9537 38.8228 19.1163 38.7452 19.2659C38.6686 19.4145 38.5753 19.554 38.4968 19.7008C38.4239 19.8365 38.362 19.9787 38.289 20.1145C38.2438 20.1994 38.1921 20.2826 38.1348 20.3592C38.0554 20.4663 38.1136 20.6741 38.2346 20.8191C38.362 20.9696 38.4608 21.1441 38.5781 21.3039C38.6427 21.3925 38.724 21.4692 38.7886 21.5578C38.9059 21.7185 39.0149 21.8856 39.1321 22.0472C39.194 22.1331 39.2688 22.2089 39.3307 22.2938C39.4517 22.46 39.5634 22.6318 39.6862 22.7971C39.8136 22.9688 39.9503 23.1332 40.0787 23.3031C40.2255 23.4989 40.3668 23.6984 40.5127 23.8941C40.6438 24.0687 40.7814 24.2386 40.9116 24.4131C41.0289 24.5701 41.1379 24.7317 41.2542 24.8887C41.3207 24.9792 41.3964 25.0623 41.462 25.1528C41.5793 25.3134 41.691 25.4787 41.8092 25.6385C41.8748 25.7272 41.9551 25.8056 42.0197 25.8952C42.137 26.055 42.246 26.2212 42.3614 26.3819C42.4233 26.4677 42.4962 26.5453 42.559 26.6303C42.6791 26.7928 42.7945 26.9599 42.9146 27.1225C42.9773 27.2074 43.0494 27.285 43.1122 27.3709C43.2331 27.5352 43.3467 27.7052 43.4686 27.8686C43.5342 27.9563 43.6182 28.0311 43.6838 28.1198C43.8001 28.2786 43.9063 28.4458 44.0218 28.6055C44.0836 28.6914 44.1593 28.7671 44.2203 28.8521C44.3422 29.0211 44.4521 29.1984 44.5777 29.3627C44.7097 29.5354 44.8602 29.6942 44.9923 29.8678C45.1077 30.0202 45.2065 30.1864 45.3155 30.3443C45.4189 30.493 45.5307 30.6371 45.6322 30.7876C45.7107 30.903 45.7828 31.024 45.8529 31.145C45.9416 31.2983 46.0275 31.4525 46.1106 31.6095C46.1835 31.7489 46.2509 31.8911 46.3193 32.0333C46.4061 32.2106 46.4938 32.387 46.5769 32.5661C46.6175 32.6539 46.6517 32.7453 46.6813 32.8376C46.72 32.9577 46.7459 33.0833 46.7884 33.2024C46.8336 33.3307 46.8918 33.4554 46.9435 33.5819C46.9491 33.5958 46.9537 33.6105 46.9564 33.6253C46.9925 33.7952 47.022 33.967 47.0654 34.1351C47.1134 34.3197 47.1753 34.5007 47.2307 34.6836C47.2326 34.6882 47.2335 34.6937 47.2335 34.6984C47.2667 34.92 47.2972 35.1425 47.3332 35.3642C47.4606 36.1537 47.4403 36.9497 47.4219 37.7439C47.4135 38.1022 47.3637 38.4586 47.323 38.816C47.3046 38.9785 47.2695 39.1401 47.2335 39.2998C47.1753 39.5529 47.1153 39.8068 47.0469 40.0571C46.9943 40.2464 46.9315 40.4338 46.8641 40.6194C46.7754 40.8623 46.6886 41.107 46.5825 41.3416C46.4809 41.566 46.3507 41.7774 46.2426 41.9991C46.166 42.1551 46.1106 42.3213 46.0348 42.4783C45.985 42.5818 45.9167 42.6759 45.8557 42.7738C45.7661 42.917 45.6766 43.0601 45.5833 43.2005C45.3967 43.484 45.225 43.7804 45.0154 44.0463C44.7504 44.3834 44.4548 44.6964 44.1686 45.0169C44.0273 45.1748 43.8832 45.3299 43.7309 45.4777C43.4825 45.7177 43.2341 45.9597 42.97 46.1832C42.7354 46.3817 42.487 46.5664 42.2331 46.74C42.0188 46.8859 41.7843 47.0041 41.5636 47.1408C41.4491 47.2119 41.3456 47.3014 41.232 47.3762C41.1619 47.4224 41.0852 47.4584 41.0086 47.4935C40.7916 47.5933 40.5736 47.6902 40.3557 47.7881C40.1488 47.8804 39.9402 47.9709 39.7342 48.0661C39.5542 48.1492 39.3787 48.2434 39.1968 48.3209C39.0869 48.368 38.9659 48.3874 38.8533 48.429C38.7471 48.4687 38.6473 48.5222 38.543 48.5675C38.446 48.609 38.35 48.6552 38.2503 48.6866C38.1164 48.7291 37.976 48.7522 37.8421 48.7956C37.7017 48.8408 37.5669 48.9018 37.4284 48.9507C37.3222 48.9886 37.2142 49.0274 37.1052 49.0541C36.9334 49.0966 36.7571 49.1225 36.5862 49.1677C36.432 49.2083 36.2815 49.2647 36.13 49.3136C36.1107 49.3201 36.0931 49.333 36.0737 49.3358C35.8632 49.3718 35.6508 49.3995 35.443 49.4447C35.2426 49.4881 35.0469 49.5509 34.8492 49.6045C34.8391 49.6073 34.8298 49.61 34.8197 49.6119C34.5768 49.647 34.334 49.6839 34.0911 49.7144C33.7864 49.7522 33.4705 49.7467 33.1806 49.8317C32.9663 49.8945 32.7595 49.8705 32.5517 49.9037C31.7511 50.0339 30.9449 49.9905 30.1397 49.9979C29.6115 50.0025 29.0833 50.0007 28.556 49.9813C28.1986 49.9683 27.832 49.9591 27.4876 49.8751C27.2604 49.8197 27.036 49.8363 26.8153 49.7966C26.5678 49.7523 26.3231 49.6904 26.0766 49.6359C26.072 49.635 26.0664 49.6341 26.0618 49.6331C25.83 49.598 25.5955 49.5731 25.3655 49.526C25.1457 49.4817 24.9297 49.4152 24.7126 49.3579C24.7025 49.3552 24.6923 49.3542 24.6822 49.3524C24.492 49.3173 24.2989 49.2924 24.1124 49.2453C23.9637 49.2074 23.8225 49.1409 23.6766 49.0892C23.6479 49.0791 23.6156 49.08 23.587 49.0708C23.4023 49.0135 23.2195 48.9526 23.0338 48.8981C22.899 48.8584 22.7587 48.8334 22.6257 48.7882C22.4872 48.742 22.3542 48.6774 22.2175 48.6247C22.1178 48.5859 22.0171 48.5518 21.9156 48.5195C21.7041 48.4511 21.4871 48.3948 21.2802 48.3135C21.114 48.248 20.9616 48.1501 20.8 48.0734C20.7049 48.0291 20.6015 48.0042 20.5055 47.9608C20.3291 47.8823 20.1555 47.7983 19.981 47.7161C19.8267 47.6431 19.6716 47.5729 19.5211 47.4935C19.3447 47.3993 19.172 47.2968 18.9993 47.1952C18.9171 47.1463 18.8377 47.0927 18.7574 47.0401C18.5921 46.9321 18.425 46.8268 18.2634 46.7141C18.0648 46.5756 17.8681 46.4343 17.6751 46.2884C17.5625 46.2035 17.4581 46.1065 17.3519 46.0132C17.2125 45.8914 17.0694 45.7732 16.9355 45.6448C16.7018 45.4204 16.4673 45.1951 16.2447 44.9587C16.0296 44.7287 15.8218 44.4905 15.6251 44.2449C15.5032 44.0916 15.4127 43.9133 15.2991 43.7527C15.1966 43.6077 15.0729 43.4766 14.9731 43.3297C14.8891 43.2069 14.8263 43.0693 14.7515 42.94C14.6841 42.8237 14.6112 42.711 14.5447 42.5947C14.4883 42.4968 14.4394 42.3943 14.3849 42.2946C14.3027 42.1459 14.215 41.9991 14.1356 41.8495C14.0931 41.7691 14.0617 41.6823 14.0266 41.5983C13.9389 41.3914 13.8466 41.1874 13.7662 40.9777C13.7173 40.8512 13.6923 40.7164 13.6471 40.589C13.5981 40.4505 13.5372 40.3156 13.4864 40.178C13.4486 40.0728 13.4116 39.9666 13.3876 39.8576C13.3461 39.6683 13.3183 39.4771 13.2786 39.2878C13.2269 39.0468 13.1595 38.8086 13.117 38.5666C13.0912 38.4161 13.1189 38.2564 13.0903 38.1068C12.9656 37.4539 13.0016 36.7955 13.0164 36.1389C13.0228 35.8268 13.0413 35.5073 13.118 35.2072C13.1651 35.0234 13.1641 34.8406 13.2011 34.6614C13.238 34.4869 13.3054 34.3188 13.359 34.1471C13.3645 34.1277 13.3627 34.1055 13.3682 34.0861C13.4273 33.871 13.4892 33.6558 13.5474 33.4397C13.5843 33.304 13.6101 33.1645 13.6554 33.0315C13.6951 32.9143 13.7579 32.8053 13.8059 32.6908C13.8484 32.5892 13.8816 32.483 13.925 32.3824C13.9749 32.266 14.0349 32.1524 14.0866 32.037C14.1587 31.8763 14.2196 31.711 14.299 31.555C14.3711 31.4128 14.4643 31.2816 14.5437 31.1431C14.6195 31.0111 14.6786 30.8679 14.7635 30.7423C14.9288 30.4976 15.1089 30.264 15.2779 30.0221C15.3887 29.8632 15.4847 29.6942 15.5983 29.5382C15.7267 29.3618 15.8717 29.1974 16.0028 29.0238C16.1182 28.8715 16.2226 28.7108 16.3361 28.5566C16.4054 28.4624 16.4867 28.3774 16.555 28.2842C16.6695 28.1272 16.7775 27.9646 16.8911 27.8058C16.953 27.719 17.0223 27.6368 17.085 27.55C17.2069 27.3829 17.3242 27.212 17.448 27.0467C17.5108 26.9627 17.5902 26.8898 17.653 26.8048C17.7712 26.645 17.8811 26.4798 17.9983 26.32C18.0639 26.2313 18.1424 26.1529 18.207 26.0642C18.3243 25.9026 18.4351 25.7364 18.5515 25.5739C18.6069 25.4963 18.6734 25.4261 18.7297 25.3476C18.8581 25.1694 18.979 24.9838 19.112 24.8083C19.2662 24.6052 19.4334 24.4113 19.5894 24.209C19.7076 24.0557 19.8138 23.8923 19.932 23.7381C20.0724 23.5552 20.2238 23.3807 20.3623 23.1969C20.5008 23.0132 20.6237 22.8174 20.7613 22.6327C20.9016 22.4453 21.0568 22.2689 21.1953 22.0814C21.3329 21.8958 21.4538 21.6973 21.5924 21.5117C21.729 21.3279 21.9128 21.1709 22.0107 20.9705C22.0901 20.808 22.3219 20.7018 22.2369 20.4682C22.2018 20.3694 22.1603 20.2724 22.115 20.1782C22.0651 20.0748 22.0051 19.976 21.9516 19.8735C21.8768 19.7303 21.8038 19.5863 21.729 19.4432C21.6524 19.2982 21.5748 19.1532 21.4954 19.0101C21.4132 18.8623 21.3273 18.7173 21.2451 18.5705C21.2064 18.5012 21.1703 18.4292 21.1371 18.3563C21.0374 18.1393 20.9487 17.9167 20.8398 17.7052C20.7326 17.4956 20.5969 17.2999 20.4898 17.0902C20.3245 16.768 20.173 16.4383 20.0124 16.1132C19.8923 15.8713 19.7676 15.6321 19.6457 15.3911C19.5589 15.2184 19.462 15.0494 19.3909 14.8703C19.3373 14.7336 19.3124 14.584 19.2856 14.4381C19.2533 14.2599 19.2237 14.0807 19.2099 13.9007C19.2025 13.8028 19.233 13.7031 19.244 13.6033C19.257 13.4879 19.2718 13.3715 19.2782 13.2552C19.2902 13.0382 19.3475 12.8359 19.4481 12.643C19.4943 12.5552 19.5137 12.4536 19.5534 12.3622C19.6153 12.2219 19.6698 12.0732 19.7547 11.9476C19.8942 11.7426 20.0484 11.545 20.2127 11.3603C20.3263 11.2329 20.4584 11.1165 20.5997 11.0195C20.8342 10.8579 21.078 10.7074 21.3264 10.568C21.4289 10.5107 21.5545 10.496 21.669 10.4599C21.8398 10.4073 22.0098 10.3519 22.1815 10.2993C22.2148 10.2891 22.2526 10.2863 22.2877 10.2863C22.5952 10.2854 22.9046 10.2669 23.2093 10.2919C23.394 10.3076 23.5731 10.3907 23.7532 10.4452C23.8585 10.4775 23.9656 10.5089 24.0681 10.5495C24.2242 10.6114 24.3821 10.6723 24.5298 10.7508C24.6748 10.8284 24.8087 10.9272 24.9463 11.0186C25.1624 11.1618 25.3738 11.3132 25.5936 11.4499C25.7774 11.5644 25.9731 11.6604 26.1597 11.7703C26.1883 11.7869 26.1994 11.8359 26.2105 11.8553V11.8599ZM30.232 46.9478C30.6439 46.8951 31.2026 47.0041 31.764 46.8813C32.1897 46.788 32.6385 46.8037 33.0762 46.7622C33.3246 46.7381 33.5721 46.6975 33.8196 46.6643C33.8242 46.6643 33.8298 46.6633 33.8344 46.6615C34.0634 46.6052 34.2906 46.5424 34.5205 46.4953C34.7357 46.451 34.9536 46.4223 35.1706 46.3872C35.1854 46.3845 35.2011 46.3817 35.2149 46.378C35.4098 46.3226 35.6046 46.2635 35.8004 46.2109C35.9426 46.173 36.0894 46.1481 36.2307 46.1065C36.4108 46.0539 36.5871 45.9902 36.7644 45.9301C36.7875 45.9228 36.8079 45.9071 36.83 45.8987C36.9611 45.8489 37.0913 45.7953 37.2252 45.7528C37.3545 45.7113 37.4903 45.6882 37.6186 45.6439C37.7673 45.5922 37.9104 45.5257 38.0563 45.4675C38.1588 45.4269 38.265 45.3936 38.3657 45.3484C38.4627 45.305 38.5504 45.2431 38.6483 45.2015C38.8219 45.1277 39.001 45.0658 39.1765 44.9938C39.2457 44.9651 39.3104 44.9254 39.375 44.8857C39.5542 44.7758 39.7315 44.6604 39.9115 44.5524C40.0371 44.4766 40.1766 44.4212 40.2948 44.3363C40.5404 44.1618 40.7869 43.9854 41.0141 43.7887C41.257 43.5791 41.4841 43.3519 41.7067 43.1201C41.9163 42.9013 42.113 42.6704 42.3078 42.4386C42.451 42.2687 42.5904 42.0942 42.7188 41.9132C42.8278 41.759 42.9201 41.5909 43.0189 41.4293C43.1066 41.2852 43.1953 41.1421 43.2793 40.9971C43.3218 40.9242 43.355 40.8466 43.3947 40.7718C43.476 40.6167 43.5647 40.4643 43.6385 40.3055C43.6865 40.2011 43.7022 40.0811 43.7558 39.9804C43.8786 39.7496 43.9691 39.5095 44.0181 39.2528C44.0218 39.2334 44.0236 39.2084 44.0365 39.1983C44.2009 39.0551 44.1981 38.8363 44.2748 38.6544C44.3376 38.5075 44.3523 38.3367 44.3699 38.1742C44.4077 37.8159 44.4465 37.4576 44.4595 37.0984C44.4678 36.8731 44.4595 36.6505 44.4077 36.4196C44.3366 36.1001 44.4013 35.7585 44.2997 35.4306C44.2323 35.2136 44.2221 34.98 44.1852 34.7528C44.1824 34.7381 44.175 34.7242 44.1695 34.7094C44.1187 34.5746 44.0624 34.4416 44.019 34.304C43.9747 34.1655 43.9571 34.0169 43.9036 33.882C43.8297 33.6983 43.7346 33.5228 43.6468 33.3446C43.5563 33.1608 43.4695 32.9743 43.3689 32.7961C43.2211 32.5366 43.066 32.2799 42.9062 32.0278C42.7816 31.8311 42.6514 31.6381 42.5129 31.4506C42.3734 31.2632 42.2174 31.0877 42.0761 30.9012C41.9394 30.7202 41.8184 30.5281 41.6808 30.348C41.4786 30.0839 41.2681 29.8272 41.0594 29.5677C41.0021 29.4966 40.9384 29.4311 40.8848 29.3572C40.7666 29.1937 40.6558 29.0238 40.5358 28.8604C40.376 28.6443 40.207 28.4338 40.0463 28.2177C39.9115 28.0357 39.7887 27.8455 39.653 27.6654C39.5117 27.4789 39.3556 27.3025 39.2153 27.116C39.0786 26.935 38.9595 26.7411 38.8209 26.5619C38.6187 26.2988 38.4072 26.042 38.1995 25.7835C38.1422 25.7124 38.0776 25.6468 38.024 25.5729C37.9058 25.4086 37.7969 25.2387 37.6777 25.0761C37.6149 24.9912 37.5309 24.9219 37.47 24.836C37.3296 24.6393 37.2031 24.4334 37.06 24.2395C36.9251 24.0585 36.77 23.8923 36.6352 23.7122C36.4957 23.5257 36.3729 23.3271 36.2344 23.1397C36.1254 22.9919 35.9998 22.858 35.8909 22.7112C35.7745 22.5551 35.6582 22.4582 35.4329 22.46C33.5509 22.473 31.6698 22.4674 29.7879 22.4674C28.1321 22.4674 26.4755 22.4674 24.8198 22.4674C24.7588 22.4674 24.6785 22.4545 24.6425 22.4868C24.54 22.5782 24.4485 22.6853 24.3664 22.7962C24.2241 22.9892 24.0976 23.1951 23.9536 23.3872C23.8188 23.5663 23.6664 23.7325 23.5279 23.9089C23.3746 24.1028 23.2305 24.3041 23.0791 24.4999C22.9886 24.6172 22.887 24.7271 22.7993 24.8462C22.6839 25.0023 22.5832 25.1694 22.465 25.3236C22.3025 25.536 22.127 25.7392 21.9608 25.9488C21.8057 26.1455 21.6561 26.3468 21.5028 26.5462C21.4418 26.6266 21.3763 26.7032 21.3163 26.7845C21.174 26.9775 21.0364 27.1733 20.8924 27.3635C20.8259 27.4512 20.7419 27.5269 20.6754 27.6147C20.5553 27.7735 20.4454 27.9397 20.3263 28.0976C20.2626 28.1816 20.1813 28.2518 20.1195 28.3368C19.9782 28.5307 19.8526 28.7366 19.7048 28.9259C19.5451 29.1319 19.3595 29.3175 19.2006 29.5243C19.0547 29.7146 18.9356 29.926 18.7934 30.119C18.6549 30.3065 18.5007 30.4829 18.3557 30.6657C18.2043 30.8569 18.0574 31.0508 17.9069 31.2419C17.8155 31.3583 17.7158 31.4691 17.6299 31.5891C17.5181 31.7461 17.4175 31.9105 17.3113 32.0721C17.1986 32.2429 17.0795 32.411 16.9752 32.5865C16.8976 32.7176 16.8385 32.8607 16.772 32.9983C16.6824 33.1867 16.591 33.3741 16.5061 33.5644C16.459 33.6696 16.4239 33.7795 16.3842 33.8876C16.3315 34.0326 16.2798 34.1766 16.2299 34.3225C16.2189 34.3558 16.2216 34.3945 16.2106 34.4278C16.1607 34.5691 16.0997 34.7067 16.0582 34.8498C16.0176 34.9874 15.988 35.1287 15.9668 35.27C15.928 35.5285 15.8772 35.788 15.8707 36.0475C15.856 36.5905 15.856 37.1353 15.8707 37.6783C15.8781 37.9433 15.9335 38.2074 15.9668 38.4724C15.9677 38.4826 15.9686 38.4928 15.9714 38.5029C16.0268 38.6996 16.085 38.8963 16.1385 39.093C16.1773 39.2343 16.1967 39.383 16.2484 39.5196C16.3214 39.7099 16.4202 39.8909 16.4996 40.0792C16.5744 40.2575 16.6353 40.4412 16.7074 40.6204C16.7369 40.6942 16.7794 40.7635 16.8191 40.8328C16.9004 40.975 16.9835 41.1163 17.0675 41.2566C17.1146 41.336 17.1617 41.4154 17.2134 41.4912C17.3122 41.6352 17.4156 41.7756 17.5163 41.9187C17.6308 42.0822 17.737 42.2521 17.8598 42.4081C17.9845 42.5661 18.1202 42.7156 18.2615 42.8588C18.4887 43.0887 18.7214 43.314 18.9578 43.5347C19.1212 43.688 19.293 43.8321 19.4638 43.9761C19.5479 44.0472 19.6402 44.1091 19.7307 44.1719C19.8554 44.2587 19.98 44.3446 20.1075 44.4286C20.2155 44.4997 20.3236 44.5708 20.4362 44.6346C20.571 44.7112 20.7105 44.7795 20.8471 44.8506C21.0078 44.9347 21.1676 45.0196 21.3301 45.1C21.4428 45.1563 21.5573 45.2071 21.6718 45.257C21.7678 45.2985 21.8648 45.3391 21.9636 45.3733C22.0772 45.413 22.1944 45.4398 22.3071 45.4813C22.453 45.5349 22.5943 45.6014 22.7393 45.6568C22.8445 45.6965 22.9535 45.7251 23.0588 45.7639C23.2056 45.8166 23.3497 45.8738 23.4956 45.9292C23.5722 45.9588 23.647 45.9976 23.7255 46.0169C23.8871 46.0576 24.0524 46.088 24.2149 46.1222C24.2297 46.125 24.2426 46.1314 24.2574 46.1361C24.4172 46.1896 24.5741 46.2561 24.7376 46.2949C24.9444 46.3429 25.1578 46.3688 25.3674 46.4048C25.3821 46.4076 25.396 46.4149 25.4108 46.4196C25.5844 46.4713 25.7561 46.5276 25.9307 46.5719C26.0738 46.6079 26.2206 46.632 26.3665 46.6578C26.5623 46.692 26.7581 46.7298 26.9557 46.7538C27.1995 46.7834 27.4433 46.7862 27.6907 46.8314C28.1368 46.9136 28.5976 46.9219 29.0537 46.9422C29.3963 46.9579 29.7408 46.945 30.2293 46.945L30.232 46.9478ZM30.1757 19.5124C31.7853 19.5124 33.3948 19.5124 35.0044 19.5143C35.1207 19.5143 35.1974 19.4773 35.2491 19.372C35.3719 19.1218 35.4975 18.8743 35.624 18.6259C35.66 18.5548 35.7006 18.4865 35.7394 18.4172C35.8207 18.2732 35.9047 18.13 35.9823 17.9841C36.0673 17.8244 36.1448 17.6618 36.2298 17.5021C36.3277 17.3183 36.4357 17.1392 36.5299 16.9536C36.6065 16.803 36.6629 16.6424 36.7414 16.4918C36.818 16.345 36.9177 16.2111 36.9944 16.0643C37.0729 15.9128 37.1274 15.7485 37.2086 15.5989C37.3434 15.3505 37.5004 15.1122 37.6325 14.862C37.7442 14.6514 37.8329 14.4289 37.9326 14.2119C37.9658 14.1398 37.9917 14.0577 38.0434 14.0013C38.1764 13.8573 38.1358 13.679 38.0887 13.5461C37.9945 13.282 37.5226 13.1924 37.2991 13.3595C37.1034 13.5064 36.903 13.6486 36.6989 13.7825C36.4551 13.9432 36.2058 14.0946 35.9574 14.2479C35.7034 14.4049 35.4504 14.5609 35.1937 14.7133C35.0672 14.7881 34.9277 14.8426 34.8077 14.9248C34.6692 15.019 34.5279 15.0882 34.358 15.0873C34.1733 15.0864 33.9895 15.0873 33.8048 15.0845C33.7651 15.0845 33.7208 15.0836 33.6857 15.0679C33.5684 15.0162 33.4512 14.9636 33.3394 14.9017C33.2055 14.8269 33.0762 14.7429 32.9451 14.6616C32.8278 14.5886 32.7124 14.5129 32.5933 14.4418C32.4677 14.367 32.3384 14.2987 32.2137 14.222C32.0854 14.1426 31.9607 14.0567 31.8342 13.9736C31.7123 13.8942 31.5913 13.8157 31.4685 13.7381C31.3513 13.6634 31.2331 13.5913 31.1158 13.5165C30.9856 13.4334 30.8554 13.3503 30.727 13.2644C30.5248 13.1296 30.3235 12.9883 30.0594 13.0483C29.9984 13.0622 29.9393 13.0917 29.8839 13.1231C29.7703 13.1869 29.6595 13.2561 29.5478 13.3235C29.4157 13.4039 29.2846 13.4833 29.1535 13.5655C29.0399 13.6375 28.9281 13.7123 28.8146 13.7843C28.6816 13.8693 28.5477 13.9524 28.4129 14.0355C28.2965 14.1075 28.1802 14.1786 28.0629 14.2479C27.9373 14.3218 27.8071 14.3892 27.6852 14.4677C27.5716 14.5406 27.471 14.6357 27.3537 14.7031C27.1635 14.813 26.9686 14.9165 26.7682 15.007C26.6205 15.0734 26.4644 15.1362 26.3056 15.1621C26.1569 15.1861 26.0008 15.1261 25.8549 15.1104C25.5622 15.079 25.3563 14.9017 25.1217 14.7807C24.8345 14.632 24.5741 14.4307 24.3026 14.2525C24.1651 14.162 24.0275 14.0724 23.8889 13.9838C23.7412 13.8896 23.5925 13.7954 23.4429 13.704C23.3183 13.6273 23.1779 13.5692 23.068 13.475C22.8565 13.294 22.6183 13.3014 22.3708 13.3355C22.3579 13.3374 22.344 13.3475 22.3339 13.3568C22.2406 13.4436 22.1834 13.8563 22.2425 13.9662C22.368 14.1999 22.489 14.4353 22.6118 14.6708C22.6488 14.741 22.682 14.814 22.7208 14.8832C22.803 15.0291 22.8926 15.1704 22.9701 15.3182C23.0735 15.5139 23.1631 15.7171 23.2675 15.9128C23.345 16.0597 23.442 16.1963 23.5177 16.3441C23.5944 16.4946 23.647 16.6562 23.7246 16.8058C23.8363 17.0228 23.9637 17.2315 24.0792 17.4467C24.1503 17.5778 24.2075 17.7172 24.2786 17.8484C24.3599 17.9989 24.4559 18.1411 24.5344 18.2925C24.612 18.4421 24.6702 18.6019 24.7459 18.7533C24.829 18.9196 24.9324 19.0756 25.0072 19.2455C25.0811 19.4127 25.1984 19.5096 25.3794 19.5096C26.9788 19.5096 28.5782 19.5096 30.1776 19.5096L30.1757 19.5124Z" fill="white"/>
</svg>
