<svg width="107" height="100" viewBox="0 0 107 100" fill="none" xmlns="http://www.w3.org/2000/svg">
<rect opacity="0.2" width="106.024" height="100" rx="12" fill="black"/>
<path d="M55.0242 76.2128C53.9465 75.8736 52.8554 75.5784 51.7979 75.1884C49.4284 74.311 47.0831 73.3775 44.7109 72.4921C44.4654 72.4111 44.1985 72.422 43.9606 72.5228C42.9489 72.9996 41.9588 73.5204 40.962 74.0279C40.5982 74.2135 40.512 74.4406 40.7316 74.8292C41.327 75.8976 41.8793 76.99 42.4464 78.0745C42.9785 79.0934 42.8088 79.6677 41.7823 80.2006C40.0365 81.1069 38.2853 82.0039 36.5287 82.8916C36.0478 83.1373 35.544 83.2322 35.0563 82.9157C34.3033 82.4269 34.3949 81.4132 35.2544 80.9551C36.5556 80.2607 37.8731 79.5969 39.1878 78.9278C40.0176 78.5072 40.0176 78.5138 39.592 77.6979C35.6504 70.1745 31.7075 62.6485 27.7632 55.1199C26.8755 53.4265 27.1462 53.6922 25.5823 54.4708C24.4817 55.017 23.4 55.602 22.3035 56.1562C21.6569 56.4821 20.9685 56.3018 20.6546 55.7556C20.3192 55.1706 20.4687 54.5349 21.1477 54.173C23.1 53.1322 25.0672 52.1203 27.0492 51.1374C27.6891 50.8182 28.232 51.0386 28.6186 51.7304C29.1494 52.6826 29.6451 53.6535 30.1327 54.6284C30.3873 55.1386 30.6002 55.3576 31.2427 55.017C33.7308 53.7002 36.2727 52.4796 38.7729 51.1842C40.1443 50.4737 41.5803 50.3829 43.027 50.702C47.4495 51.6636 51.8572 52.6853 56.2702 53.6829C58.2141 54.1223 60.1647 54.5363 62.1031 55.0024C62.7727 55.1588 63.4014 55.4539 63.9479 55.8682C64.4944 56.2825 64.9464 56.8066 65.2742 57.4063C65.5975 57.9712 65.8507 57.9071 66.3074 57.6052C69.9679 55.1942 73.6342 52.7957 77.3063 50.4096C80.2093 48.5238 83.6956 49.5255 85.137 52.6412C86.1432 54.8181 85.242 57.5532 83.0382 58.9888L62.0856 72.6323C60.849 73.4336 59.6083 74.2349 58.3771 75.0455C57.3775 75.7053 56.2985 76.0806 55.0848 76.0191L55.0242 76.2128ZM41.5035 52.7961C41.0293 52.9003 40.5605 52.9136 40.1685 53.1046C37.5053 54.4241 34.865 55.7876 32.2086 57.1205C31.7317 57.3595 31.6873 57.6106 31.9392 58.0553C32.5777 59.2012 33.1744 60.3711 33.7806 61.5343C35.4995 64.8285 37.2175 68.1228 38.9346 71.417C39.3603 72.233 39.3953 72.229 40.2642 71.7829C41.3567 71.2207 42.437 70.6304 43.5605 70.1349C43.966 69.9618 44.4202 69.9363 44.8429 70.0628C47.5923 71.0751 50.3404 72.0994 53.0453 73.2186C54.6268 73.873 56.0251 73.8636 57.4907 72.8914C61.7825 70.0414 66.1174 67.2369 70.4389 64.4176C74.2547 61.9247 78.0715 59.4344 81.8891 56.9468C82.2364 56.728 82.5311 56.4363 82.7524 56.0924C82.9738 55.7485 83.1164 55.3607 83.1704 54.9562C83.2243 54.5518 83.1882 54.1406 83.0646 53.7514C82.941 53.3623 82.7329 53.0048 82.4549 52.704C81.45 51.6169 79.9399 51.4726 78.5484 52.3794C74.5583 54.9721 70.5781 57.5794 66.6078 60.2015C66.2616 60.4312 65.9841 60.9026 65.8709 61.3139C65.1772 63.814 62.708 65.4687 60.1216 65.0533C55.916 64.3856 51.7157 63.6804 47.5142 62.9886C46.7127 62.8551 46.2237 62.2942 46.3395 61.6531C46.4635 60.968 47.1181 60.5941 47.9426 60.7303C52.1221 61.4221 56.3021 62.1126 60.4826 62.8017C61.9253 63.0394 63.3398 62.0004 63.6792 60.4672C63.9688 59.1598 62.9855 57.6039 61.6263 57.2874C58.7246 56.6116 55.8176 55.9599 52.9133 55.2988C50.0305 54.6444 47.1478 53.986 44.2623 53.3423C43.3396 53.1367 42.4141 52.9751 41.5035 52.7961Z" fill="white"/>
<path d="M65.7375 27.4107C65.6984 31.3611 63.3006 34.8561 59.557 36.0915C56.4075 37.1291 53.5585 36.3586 51.1835 34.0882C46.695 29.8012 47.6259 22.2583 52.9927 19.1306C56.6958 16.9684 61.6666 18.2251 64.1008 21.9351C65.176 23.5618 65.7452 25.4659 65.7375 27.4107ZM63.4609 27.3252C63.4609 25.8789 63.1524 24.7517 62.4088 23.4523C60.5795 20.2538 56.4466 19.3149 53.5329 21.429C49.9712 24.0185 49.5643 29.3899 52.7367 32.4602C54.3532 34.0281 56.2984 34.6304 58.5413 34.0628C61.5575 33.2922 63.4824 30.2513 63.4609 27.3252Z" fill="white"/>
<path d="M36.0371 28.8279C36.1125 25.5025 38.5858 22.7207 41.6518 22.6045C45.1919 22.4709 48.0356 25.5787 47.7231 29.2419C47.4281 32.7062 44.7177 35.1288 41.412 34.8844C39.2944 34.7282 37.1094 32.9974 36.5126 30.9594C36.3079 30.2623 36.1934 29.5397 36.0371 28.8279ZM41.9643 32.6448C44.2247 32.7102 45.8156 30.2689 45.4667 28.1896C45.1609 26.3733 43.9108 25.0618 42.4277 24.8815C40.1161 24.6011 38.2086 26.599 38.4107 29.0883C38.5696 31.133 40.0918 32.6555 41.9602 32.6475L41.9643 32.6448Z" fill="white"/>
<path d="M77.9012 28.8037C77.885 32.3534 75.1168 35.0605 71.6723 34.8962C69.4482 34.7894 67.3616 33.088 66.5736 30.7482C66.1506 29.47 66.1473 28.0917 66.5641 26.8115C66.9809 25.5314 67.7963 24.4151 68.8932 23.6233C71.7033 21.6133 75.7634 22.7018 77.225 25.9163C77.6291 26.8071 77.7961 27.8061 78.0723 28.7543L77.9012 28.8037ZM75.6273 28.7249C75.6165 26.349 73.7737 24.5715 71.5726 24.9027C69.944 25.1484 69.0859 26.2849 68.6454 27.7647C68.0122 29.8881 69.657 33.0426 72.6368 32.6179C74.2964 32.3801 75.6368 30.6667 75.6273 28.7249Z" fill="white"/>
<path d="M43.3898 46.4751C43.2551 43.5958 44.027 40.8206 46.2685 38.6678C47.3623 37.6167 48.7296 36.8368 50.0134 35.9968C50.5105 35.6709 51.1759 35.926 51.4804 36.4135C51.7848 36.9009 51.6703 37.5032 51.1409 37.8825C50.6331 38.2444 50.101 38.577 49.5635 38.8962C46.9003 40.4827 45.7122 42.884 45.6179 45.8888C45.5923 46.7115 45.6273 47.5355 45.6098 48.3582C45.5936 49.066 45.1329 49.5508 44.5213 49.5521C43.9098 49.5534 43.4315 49.0834 43.3952 48.3809C43.3696 47.7986 43.3898 47.219 43.3898 46.4751Z" fill="white"/>
<path d="M70.6528 46.487C70.6528 47.2656 70.6743 47.8225 70.6528 48.378C70.6191 49.0845 70.1476 49.5586 69.5361 49.5479C68.9245 49.5372 68.4867 49.0551 68.4476 48.346C68.3695 46.8849 68.4153 45.4079 68.1782 43.9682C67.8468 41.9569 66.722 40.3624 65.0004 39.2192C64.3121 38.7611 63.5981 38.3431 62.9219 37.8703C62.6858 37.7157 62.5182 37.4775 62.4534 37.2044C62.3885 36.9314 62.4313 36.6441 62.573 36.4013C62.7245 36.1627 62.9608 35.9891 63.2352 35.9149C63.5096 35.8407 63.802 35.8713 64.0548 36.0006C66.4472 37.3001 68.5985 38.8532 69.7462 41.4428C70.4347 43.033 70.7449 44.7589 70.6528 46.487Z" fill="white"/>
<path d="M80.9734 42.1988C80.9734 42.6395 80.9922 43.0402 80.9734 43.4395C80.9357 44.0859 80.4615 44.5453 79.8634 44.5479C79.2936 44.5479 78.8234 44.1299 78.7588 43.5009C78.7235 43.0798 78.7172 42.6568 78.7399 42.2349C78.8127 40.1448 77.9317 38.5956 76.0794 37.5913C75.8819 37.4866 75.6927 37.3669 75.5136 37.2334C74.9748 36.8328 74.8657 36.2318 75.2146 35.7096C75.3729 35.4764 75.6143 35.3111 75.8904 35.2469C76.1664 35.1828 76.4568 35.2245 76.7031 35.3637C79.4916 36.8141 81.1081 38.9909 80.9734 42.1988Z" fill="white"/>
<path d="M33.0685 42.1211C32.9163 38.9894 34.522 36.8099 37.3267 35.3635C37.5766 35.2153 37.8751 35.1699 38.1583 35.2372C38.4415 35.3045 38.6869 35.479 38.8419 35.7235C38.9969 35.9679 39.0491 36.2628 38.9875 36.545C38.9259 36.8272 38.7552 37.0742 38.5121 37.2332C38.2423 37.4303 37.9607 37.6109 37.6688 37.7741C36.0402 38.7089 35.3262 40.1513 35.2737 41.9649C35.2602 42.431 35.2872 42.8997 35.2643 43.3645C35.2279 44.1004 34.8009 44.5464 34.1691 44.5477C33.5373 44.5491 33.1035 44.0883 33.0712 43.3698C33.0551 42.9932 33.0685 42.6153 33.0685 42.1211Z" fill="white"/>
<path d="M50.7162 46.4164C50.7162 47.0614 50.7351 47.7078 50.7162 48.3529C50.6906 49.0794 50.2488 49.5441 49.6264 49.5548C49.004 49.5655 48.538 49.0954 48.5231 48.3702C48.4962 47.0579 48.4962 45.7451 48.5231 44.4318C48.5366 43.7494 48.9973 43.3153 49.6008 43.3087C50.2043 43.302 50.6785 43.7707 50.7068 44.4839C50.7337 45.1249 50.7162 45.7713 50.7162 46.4164Z" fill="white"/>
<path d="M65.5376 46.4978C65.5376 47.1429 65.5605 47.7879 65.5376 48.433C65.5079 49.1007 65.0432 49.5535 64.4437 49.5454C64.1579 49.5454 63.8838 49.4329 63.6817 49.2325C63.4796 49.0322 63.366 48.7604 63.366 48.477C63.3337 47.0988 63.3337 45.7188 63.366 44.337C63.3663 44.197 63.395 44.0585 63.4504 43.9296C63.5057 43.8008 63.5866 43.6844 63.6883 43.5872C63.79 43.49 63.9103 43.4141 64.0422 43.364C64.174 43.3138 64.3147 43.2905 64.4558 43.2953C64.7403 43.2953 65.0132 43.4068 65.215 43.6054C65.4169 43.804 65.5314 44.0737 65.5335 44.3557C65.5658 45.0675 65.5389 45.7847 65.5376 46.4978Z" fill="white"/>
<path d="M39.5112 42.3483C39.5112 42.7022 39.526 43.0574 39.5112 43.4167C39.4775 44.0657 39.0249 44.5318 38.4336 44.5559C38.1389 44.5592 37.8543 44.4501 37.6384 44.2513C37.4226 44.0525 37.292 43.779 37.2737 43.4875C37.2252 42.714 37.2279 41.9382 37.2818 41.165C37.2898 41.0201 37.3269 40.8783 37.3911 40.7479C37.4552 40.6174 37.5451 40.5011 37.6553 40.4056C37.7655 40.3101 37.8939 40.2375 38.0329 40.192C38.1719 40.1465 38.3186 40.1291 38.4645 40.1407C39.0802 40.1768 39.4856 40.6108 39.5153 41.2892C39.5233 41.6391 39.5112 41.9957 39.5112 42.3483Z" fill="white"/>
<path d="M74.5372 42.315C74.5372 41.9143 74.5116 41.5137 74.5372 41.113C74.5843 40.5134 74.9615 40.1915 75.5448 40.1461C76.0958 40.1034 76.5955 40.3318 76.6508 40.894C76.7423 41.8191 76.7532 42.7503 76.6831 43.6772C76.6386 44.2528 76.0567 44.5947 75.5098 44.5399C75.2413 44.5039 74.9947 44.3739 74.8146 44.1732C74.6345 43.9726 74.5327 43.7147 74.5278 43.4462C74.5049 43.0695 74.5278 42.6903 74.5278 42.3123L74.5372 42.315Z" fill="white"/>
</svg>
