<svg width="52" height="52" viewBox="0 0 52 52" fill="none" xmlns="http://www.w3.org/2000/svg">
<path d="M27.0276 16C28.1526 16.003 28.7236 16.009 29.2166 16.023L29.4106 16.03C29.6346 16.038 29.8556 16.048 30.1226 16.06C31.1866 16.11 31.9126 16.278 32.5496 16.525C33.2096 16.779 33.7656 17.123 34.3216 17.678C34.8301 18.1779 35.2236 18.7826 35.4746 19.45C35.7216 20.087 35.8896 20.813 35.9396 21.878C35.9516 22.144 35.9616 22.365 35.9696 22.59L35.9756 22.784C35.9906 23.276 35.9966 23.847 35.9986 24.972L35.9996 25.718V27.028C36.0021 27.7574 35.9944 28.4868 35.9766 29.216L35.9706 29.41C35.9626 29.635 35.9526 29.856 35.9406 30.122C35.8906 31.187 35.7206 31.912 35.4746 32.55C35.2243 33.2178 34.8307 33.8226 34.3216 34.322C33.8216 34.8303 33.2169 35.2238 32.5496 35.475C31.9126 35.722 31.1866 35.89 30.1226 35.94C29.8853 35.9512 29.648 35.9612 29.4106 35.97L29.2166 35.976C28.7236 35.99 28.1526 35.997 27.0276 35.999L26.2816 36H24.9726C24.2429 36.0025 23.5131 35.9949 22.7836 35.977L22.5896 35.971C22.3522 35.962 22.1149 35.9517 21.8776 35.94C20.8136 35.89 20.0876 35.722 19.4496 35.475C18.7823 35.2244 18.1778 34.8308 17.6786 34.322C17.1696 33.8223 16.7758 33.2176 16.5246 32.55C16.2776 31.913 16.1096 31.187 16.0596 30.122C16.0485 29.8847 16.0385 29.6474 16.0296 29.41L16.0246 29.216C16.0062 28.4868 15.9978 27.7574 15.9996 27.028V24.972C15.9968 24.2426 16.0041 23.5132 16.0216 22.784L16.0286 22.59C16.0366 22.365 16.0466 22.144 16.0586 21.878C16.1086 20.813 16.2766 20.088 16.5236 19.45C16.7747 18.7819 17.1693 18.177 17.6796 17.678C18.1787 17.1695 18.7827 16.776 19.4496 16.525C20.0876 16.278 20.8126 16.11 21.8776 16.06C22.1436 16.048 22.3656 16.038 22.5896 16.03L22.7836 16.024C23.5128 16.0062 24.2422 15.9986 24.9716 16.001L27.0276 16ZM25.9996 21C24.6735 21 23.4017 21.5268 22.4641 22.4645C21.5264 23.4021 20.9996 24.6739 20.9996 26C20.9996 27.3261 21.5264 28.5979 22.4641 29.5355C23.4017 30.4732 24.6735 31 25.9996 31C27.3257 31 28.5975 30.4732 29.5351 29.5355C30.4728 28.5979 30.9996 27.3261 30.9996 26C30.9996 24.6739 30.4728 23.4021 29.5351 22.4645C28.5975 21.5268 27.3257 21 25.9996 21ZM25.9996 23C26.3936 22.9999 26.7837 23.0775 27.1477 23.2282C27.5117 23.3789 27.8424 23.5998 28.1211 23.8783C28.3997 24.1569 28.6207 24.4875 28.7715 24.8515C28.9224 25.2154 29 25.6055 29.0001 25.9995C29.0002 26.3935 28.9226 26.7836 28.7719 27.1476C28.6212 27.5116 28.4003 27.8423 28.1218 28.121C27.8432 28.3996 27.5126 28.6206 27.1486 28.7714C26.7847 28.9223 26.3946 28.9999 26.0006 29C25.205 29 24.4419 28.6839 23.8793 28.1213C23.3167 27.5587 23.0006 26.7956 23.0006 26C23.0006 25.2044 23.3167 24.4413 23.8793 23.8787C24.4419 23.3161 25.205 23 26.0006 23M31.2506 19.5C30.9191 19.5 30.6011 19.6317 30.3667 19.8661C30.1323 20.1005 30.0006 20.4185 30.0006 20.75C30.0006 21.0815 30.1323 21.3995 30.3667 21.6339C30.6011 21.8683 30.9191 22 31.2506 22C31.5821 22 31.9001 21.8683 32.1345 21.6339C32.3689 21.3995 32.5006 21.0815 32.5006 20.75C32.5006 20.4185 32.3689 20.1005 32.1345 19.8661C31.9001 19.6317 31.5821 19.5 31.2506 19.5Z" fill="white"/>
<circle cx="26" cy="26" r="25" stroke="white" stroke-width="0.7"/>
</svg>
