<svg width="52" height="52" viewBox="0 0 52 52" fill="none" xmlns="http://www.w3.org/2000/svg">
<g clip-path="url(#clip0_0_201)">
<path fill-rule="evenodd" clip-rule="evenodd" d="M26 18C26.855 18 27.732 18.022 28.582 18.058L29.586 18.106L30.547 18.163L31.447 18.224L32.269 18.288C33.161 18.3563 34.0004 18.7369 34.6395 19.363C35.2786 19.9891 35.6764 20.8205 35.763 21.711L35.803 22.136L35.878 23.046C35.948 23.989 36 25.017 36 26C36 26.983 35.948 28.011 35.878 28.954L35.803 29.864C35.79 30.01 35.777 30.151 35.763 30.289C35.6764 31.1796 35.2784 32.0112 34.6391 32.6373C33.9999 33.2634 33.1602 33.6439 32.268 33.712L31.448 33.775L30.548 33.837L29.586 33.894L28.582 33.942C27.7218 33.9794 26.861 33.9987 26 34C25.139 33.9987 24.2782 33.9794 23.418 33.942L22.414 33.894L21.453 33.837L20.553 33.775L19.731 33.712C18.839 33.6437 17.9996 33.2631 17.3605 32.637C16.7214 32.0109 16.3236 31.1795 16.237 30.289L16.197 29.864L16.122 28.954C16.0455 27.9711 16.0048 26.9858 16 26C16 25.017 16.052 23.989 16.122 23.046L16.197 22.136C16.21 21.99 16.223 21.849 16.237 21.711C16.3235 20.8207 16.7212 19.9894 17.3601 19.3633C17.999 18.7373 18.8381 18.3565 19.73 18.288L20.551 18.224L21.451 18.163L22.413 18.106L23.417 18.058C24.2775 18.0206 25.1387 18.0013 26 18ZM24 23.575V28.425C24 28.887 24.5 29.175 24.9 28.945L29.1 26.52C29.1914 26.4674 29.2673 26.3916 29.3201 26.3003C29.3729 26.209 29.4007 26.1055 29.4007 26C29.4007 25.8945 29.3729 25.791 29.3201 25.6997C29.2673 25.6084 29.1914 25.5326 29.1 25.48L24.9 23.056C24.8088 23.0033 24.7053 22.9756 24.5999 22.9756C24.4945 22.9756 24.3911 23.0034 24.2998 23.0561C24.2086 23.1088 24.1329 23.1846 24.0802 23.2759C24.0276 23.3671 23.9999 23.4706 24 23.576V23.575Z" fill="white"/>
</g>
<circle cx="26" cy="26" r="25" stroke="white" stroke-width="0.7"/>
<defs>
<clipPath id="clip0_0_201">
<rect width="24" height="24" fill="white" transform="translate(14 14)"/>
</clipPath>
</defs>
</svg>
