<svg width="282" height="282" viewBox="0 0 282 282" fill="none" xmlns="http://www.w3.org/2000/svg">
<path d="M65.6667 19.7564C65.6667 22.7019 68.0545 25.0898 71 25.0898C73.9455 25.0898 76.3333 22.7019 76.3333 19.7564C76.3333 16.8109 73.9455 14.4231 71 14.4231C68.0545 14.4231 65.6667 16.8109 65.6667 19.7564ZM70.5 18.8904C40.8752 35.9943 18.4786 63.2846 7.48287 95.677L9.37673 96.3198C20.2165 64.387 42.2954 37.4837 71.5 20.6225L70.5 18.8904ZM7.48287 95.677C-3.51285 128.069 -2.35774 163.354 10.733 194.958L12.5808 194.193C-0.324298 163.037 -1.46302 128.253 9.37673 96.3198L7.48287 95.677ZM10.733 194.958C23.8237 226.562 47.9573 252.329 78.6373 267.459L79.5218 265.665C49.277 250.75 25.4858 225.348 12.5808 194.193L10.733 194.958ZM78.6373 267.459C109.317 282.589 144.451 286.049 177.493 277.195L176.976 275.264C144.402 283.992 109.767 280.58 79.5218 265.665L78.6373 267.459ZM177.493 277.195C210.536 268.342 239.232 247.778 258.237 219.335L256.574 218.224C237.839 246.263 209.549 266.536 176.976 275.264L177.493 277.195ZM258.237 219.335C277.242 190.893 285.259 156.511 280.794 122.596L278.811 122.857C283.212 156.291 275.309 190.185 256.574 218.224L258.237 219.335ZM280.794 122.596C276.329 88.6807 259.686 57.5453 233.968 34.9906L232.649 36.4943C258.003 58.7291 274.409 89.4228 278.811 122.857L280.794 122.596ZM233.968 34.9906C208.249 12.4359 175.208 1.07384e-05 141 0L141 2C174.723 2.00001 207.295 14.2595 232.649 36.4943L233.968 34.9906Z" fill="white"/>
</svg>
