<svg width="282" height="282" viewBox="0 0 282 282" fill="none" xmlns="http://www.w3.org/2000/svg">
<path d="M14.4233 71C14.4233 73.9455 16.8111 76.3333 19.7566 76.3333C22.7021 76.3333 25.09 73.9455 25.09 71C25.09 68.0544 22.7021 65.6666 19.7566 65.6666C16.8111 65.6666 14.4233 68.0544 14.4233 71ZM141 2C171.599 2 201.342 12.0966 225.618 30.7239L226.835 29.1372C202.211 10.2419 172.039 3.70135e-07 141 0L141 2ZM225.618 30.7239C249.893 49.3511 267.344 75.4681 275.264 105.024L277.196 104.506C269.162 74.5252 251.46 48.0324 226.835 29.1372L225.618 30.7239ZM275.264 105.024C283.183 134.58 281.129 165.923 269.419 194.193L271.267 194.958C283.145 166.282 285.229 134.488 277.196 104.506L275.264 105.024ZM269.419 194.193C257.71 222.462 236.999 246.078 210.5 261.377L211.5 263.109C238.381 247.59 259.389 223.634 271.267 194.958L269.419 194.193ZM210.5 261.377C184.001 276.677 153.194 282.805 122.857 278.811L122.596 280.794C153.369 284.845 184.62 278.629 211.5 263.109L210.5 261.377ZM122.857 278.811C92.5201 274.817 64.3488 260.924 42.7123 239.288L41.2981 240.702C63.2459 262.65 91.8226 276.742 122.596 280.794L122.857 278.811ZM42.7123 239.288C21.0758 217.651 7.18329 189.48 3.18936 159.143L1.20647 159.404C5.25786 190.177 19.3503 218.754 41.2981 240.702L42.7123 239.288ZM3.18936 159.143C-0.804563 128.806 5.32333 97.9992 20.6226 71.5L18.8906 70.5C3.37115 97.3804 -2.84492 128.631 1.20647 159.404L3.18936 159.143Z" fill="white"/>
</svg>
