<svg width="283" height="282" viewBox="0 0 283 282" fill="none" xmlns="http://www.w3.org/2000/svg">
<path d="M0.666667 177.235C0.666667 180.18 3.05448 182.568 6 182.568C8.94552 182.568 11.3333 180.18 11.3333 177.235C11.3333 174.289 8.94552 171.901 6 171.901C3.05448 171.901 0.666667 174.289 0.666667 177.235ZM141.23 2C167.173 2 192.599 9.2608 214.631 22.9609L215.687 21.2625C193.339 7.36527 167.547 3.13829e-07 141.23 0L141.23 2ZM214.631 22.9609C236.663 36.661 254.42 56.2536 265.895 79.5219L267.689 78.6373C256.049 55.0342 238.036 35.1597 215.687 21.2625L214.631 22.9609ZM265.895 79.5219C277.37 102.79 282.103 128.805 279.56 154.624L281.551 154.82C284.13 128.63 279.328 102.24 267.689 78.6373L265.895 79.5219ZM279.56 154.624C277.017 180.443 267.299 205.035 251.506 225.618L253.092 226.835C269.113 205.957 278.971 181.011 281.551 154.82L279.56 154.624ZM251.506 225.618C235.712 246.2 214.473 261.952 190.192 271.091L190.897 272.963C215.527 263.693 237.072 247.714 253.092 226.835L251.506 225.618ZM190.192 271.091C165.911 280.23 139.557 282.391 114.112 277.329L113.722 279.291C139.533 284.425 166.266 282.233 190.897 272.963L190.192 271.091ZM114.112 277.329C88.6667 272.268 65.1457 260.186 46.2103 242.451L44.8431 243.911C64.051 261.901 87.9104 274.156 113.722 279.291L114.112 277.329ZM46.2103 242.451C27.2748 224.716 13.6807 202.036 6.96593 176.976L5.03407 177.493C11.8454 202.914 25.6352 225.921 44.8431 243.911L46.2103 242.451Z" fill="white"/>
</svg>
