<svg width="107" height="100" viewBox="0 0 107 100" fill="none" xmlns="http://www.w3.org/2000/svg">
<rect opacity="0.2" width="106.024" height="100" rx="12" fill="black"/>
<path d="M55.0237 76.2128C53.946 75.8736 52.8549 75.5784 51.7974 75.1884C49.4279 74.311 47.0826 73.3775 44.7104 72.4921C44.4649 72.4111 44.198 72.422 43.9601 72.5228C42.9484 72.9996 41.9583 73.5204 40.9615 74.0279C40.5978 74.2135 40.5115 74.4406 40.7311 74.8292C41.3265 75.8976 41.8788 76.99 42.446 78.0745C42.9781 79.0934 42.8083 79.6677 41.7818 80.2006C40.036 81.1069 38.2848 82.0039 36.5282 82.8916C36.0473 83.1373 35.5435 83.2322 35.0558 82.9157C34.3028 82.4269 34.3944 81.4132 35.2539 80.9551C36.5551 80.2607 37.8726 79.5969 39.1874 78.9278C40.0172 78.5072 40.0172 78.5138 39.5915 77.6979C35.6499 70.1745 31.707 62.6485 27.7627 55.1199C26.875 53.4265 27.1457 53.6922 25.5818 54.4708C24.4812 55.017 23.3995 55.602 22.303 56.1562C21.6564 56.4821 20.968 56.3018 20.6541 55.7556C20.3187 55.1706 20.4682 54.5349 21.1472 54.173C23.0995 53.1322 25.0667 52.1203 27.0488 51.1374C27.6886 50.8182 28.2315 51.0386 28.6181 51.7304C29.1489 52.6826 29.6446 53.6535 30.1322 54.6284C30.3868 55.1386 30.5997 55.3576 31.2422 55.017C33.7303 53.7002 36.2723 52.4796 38.7725 51.1842C40.1438 50.4737 41.5798 50.3829 43.0266 50.702C47.449 51.6636 51.8567 52.6853 56.2698 53.6829C58.2136 54.1223 60.1642 54.5363 62.1026 55.0024C62.7722 55.1588 63.4009 55.4539 63.9474 55.8682C64.4939 56.2825 64.9459 56.8066 65.2737 57.4063C65.597 57.9712 65.8502 57.9071 66.3069 57.6052C69.9674 55.1942 73.6337 52.7957 77.3059 50.4096C80.2088 48.5238 83.6951 49.5255 85.1365 52.6412C86.1427 54.8181 85.2415 57.5532 83.0377 58.9888L62.0851 72.6323C60.8485 73.4336 59.6078 74.2349 58.3766 75.0455C57.3771 75.7053 56.298 76.0806 55.0843 76.0191L55.0237 76.2128ZM41.503 52.7961C41.0288 52.9003 40.56 52.9136 40.168 53.1046C37.5048 54.4241 34.8646 55.7876 32.2081 57.1205C31.7312 57.3595 31.6868 57.6106 31.9387 58.0553C32.5772 59.2012 33.174 60.3711 33.7801 61.5343C35.499 64.8285 37.217 68.1228 38.9341 71.417C39.3598 72.233 39.3948 72.229 40.2637 71.7829C41.3562 71.2207 42.4365 70.6304 43.56 70.1349C43.9656 69.9618 44.4197 69.9363 44.8424 70.0628C47.5918 71.0751 50.3399 72.0994 53.0448 73.2186C54.6263 73.873 56.0246 73.8636 57.4902 72.8914C61.782 70.0414 66.117 67.2369 70.4384 64.4176C74.2543 61.9247 78.071 59.4344 81.8886 56.9468C82.2359 56.728 82.5306 56.4363 82.7519 56.0924C82.9733 55.7485 83.1159 55.3607 83.1699 54.9562C83.2238 54.5518 83.1877 54.1406 83.0641 53.7514C82.9405 53.3623 82.7324 53.0048 82.4544 52.704C81.4495 51.6169 79.9394 51.4726 78.5479 52.3794C74.5578 54.9721 70.5776 57.5794 66.6073 60.2015C66.2611 60.4312 65.9836 60.9026 65.8704 61.3139C65.1767 63.814 62.7075 65.4687 60.1211 65.0533C55.9155 64.3856 51.7153 63.6804 47.5137 62.9886C46.7122 62.8551 46.2232 62.2942 46.339 61.6531C46.463 60.968 47.1177 60.5941 47.9421 60.7303C52.1216 61.4221 56.3016 62.1126 60.4821 62.8017C61.9248 63.0394 63.3393 62.0004 63.6787 60.4672C63.9684 59.1598 62.985 57.6039 61.6258 57.2874C58.7241 56.6116 55.8171 55.9599 52.9128 55.2988C50.0301 54.6444 47.1473 53.986 44.2618 53.3423C43.3391 53.1367 42.4136 52.9751 41.503 52.7961Z" fill="white"/>
<path d="M65.737 27.4107C65.6979 31.3611 63.3001 34.8561 59.5565 36.0915C56.4071 37.1291 53.558 36.3586 51.1831 34.0882C46.6946 29.8012 47.6254 22.2583 52.9922 19.1306C56.6953 16.9684 61.6661 18.2251 64.1003 21.9351C65.1755 23.5618 65.7447 25.4659 65.737 27.4107ZM63.4604 27.3252C63.4604 25.8789 63.1519 24.7517 62.4083 23.4523C60.579 20.2538 56.4461 19.3149 53.5324 21.429C49.9707 24.0185 49.5639 29.3899 52.7362 32.4602C54.3528 34.0281 56.2979 34.6304 58.5408 34.0628C61.557 33.2922 63.482 30.2513 63.4604 27.3252Z" fill="white"/>
<path d="M36.0366 28.8279C36.1121 25.5025 38.5853 22.7207 41.6513 22.6045C45.1914 22.4709 48.0351 25.5787 47.7226 29.2419C47.4276 32.7062 44.7172 35.1288 41.4115 34.8844C39.2939 34.7282 37.1089 32.9974 36.5121 30.9594C36.3074 30.2623 36.1929 29.5397 36.0366 28.8279ZM41.9638 32.6448C44.2242 32.7102 45.8151 30.2689 45.4662 28.1896C45.1604 26.3733 43.9103 25.0618 42.4272 24.8815C40.1156 24.6011 38.2081 26.599 38.4102 29.0883C38.5691 31.133 40.0914 32.6555 41.9598 32.6475L41.9638 32.6448Z" fill="white"/>
<path d="M77.9002 28.8037C77.8841 32.3534 75.1158 35.0605 71.6713 34.8962C69.4473 34.7894 67.3606 33.088 66.5726 30.7482C66.1496 29.47 66.1463 28.0917 66.5631 26.8115C66.9799 25.5314 67.7954 24.4151 68.8923 23.6233C71.7023 21.6133 75.7624 22.7018 77.224 25.9163C77.6281 26.8071 77.7952 27.8061 78.0713 28.7543L77.9002 28.8037ZM75.6263 28.7249C75.6156 26.349 73.7728 24.5715 71.5716 24.9027C69.943 25.1484 69.0849 26.2849 68.6444 27.7647C68.0113 29.8881 69.6561 33.0426 72.6358 32.6179C74.2954 32.3801 75.6358 30.6667 75.6263 28.7249Z" fill="white"/>
<path d="M43.3888 46.4751C43.2541 43.5958 44.026 40.8206 46.2675 38.6678C47.3614 37.6167 48.7287 36.8368 50.0124 35.9968C50.5095 35.6709 51.175 35.926 51.4794 36.4135C51.7839 36.9009 51.6694 37.5032 51.1399 37.8825C50.6321 38.2444 50.1 38.577 49.5625 38.8962C46.8993 40.4827 45.7112 42.884 45.6169 45.8888C45.5913 46.7115 45.6263 47.5355 45.6088 48.3582C45.5926 49.066 45.1319 49.5508 44.5204 49.5521C43.9088 49.5534 43.4306 49.0834 43.3942 48.3809C43.3686 47.7986 43.3888 47.219 43.3888 46.4751Z" fill="white"/>
<path d="M70.6523 46.487C70.6523 47.2656 70.6739 47.8225 70.6523 48.378C70.6186 49.0845 70.1471 49.5586 69.5356 49.5479C68.924 49.5372 68.4862 49.0551 68.4471 48.346C68.369 46.8849 68.4148 45.4079 68.1777 43.9682C67.8463 41.9569 66.7215 40.3624 64.9999 39.2192C64.3116 38.7611 63.5976 38.3431 62.9214 37.8703C62.6853 37.7157 62.5177 37.4775 62.4529 37.2044C62.388 36.9314 62.4308 36.6441 62.5725 36.4013C62.724 36.1627 62.9603 35.9891 63.2347 35.9149C63.5091 35.8407 63.8015 35.8713 64.0543 36.0006C66.4467 37.3001 68.598 38.8532 69.7457 41.4428C70.4342 43.033 70.7444 44.7589 70.6523 46.487Z" fill="white"/>
<path d="M80.9724 42.1988C80.9724 42.6395 80.9913 43.0402 80.9724 43.4395C80.9347 44.0859 80.4605 44.5453 79.8624 44.5479C79.2926 44.5479 78.8225 44.1299 78.7578 43.5009C78.7226 43.0798 78.7163 42.6568 78.7389 42.2349C78.8117 40.1448 77.9307 38.5956 76.0785 37.5913C75.8809 37.4866 75.6917 37.3669 75.5127 37.2334C74.9738 36.8328 74.8647 36.2318 75.2136 35.7096C75.3719 35.4764 75.6133 35.3111 75.8894 35.2469C76.1655 35.1828 76.4558 35.2245 76.7021 35.3637C79.4906 36.8141 81.1071 38.9909 80.9724 42.1988Z" fill="white"/>
<path d="M33.0675 42.1211C32.9153 38.9894 34.5211 36.8099 37.3257 35.3635C37.5756 35.2153 37.8741 35.1699 38.1573 35.2372C38.4405 35.3045 38.6859 35.479 38.8409 35.7235C38.9959 35.9679 39.0482 36.2628 38.9865 36.545C38.9249 36.8272 38.7542 37.0742 38.5111 37.2332C38.2414 37.4303 37.9597 37.6109 37.6678 37.7741C36.0392 38.7089 35.3253 40.1513 35.2727 41.9649C35.2593 42.431 35.2862 42.8997 35.2633 43.3645C35.2269 44.1004 34.7999 44.5464 34.1681 44.5477C33.5363 44.5491 33.1026 44.0883 33.0702 43.3698C33.0541 42.9932 33.0675 42.6153 33.0675 42.1211Z" fill="white"/>
<path d="M50.7157 46.4164C50.7157 47.0614 50.7346 47.7078 50.7157 48.3529C50.6901 49.0794 50.2483 49.5441 49.6259 49.5548C49.0036 49.5655 48.5375 49.0954 48.5226 48.3702C48.4957 47.0579 48.4957 45.7451 48.5226 44.4318C48.5361 43.7494 48.9968 43.3153 49.6003 43.3087C50.2038 43.302 50.678 43.7707 50.7063 44.4839C50.7332 45.1249 50.7157 45.7713 50.7157 46.4164Z" fill="white"/>
<path d="M65.5376 46.4978C65.5376 47.1429 65.5605 47.7879 65.5376 48.433C65.5079 49.1007 65.0432 49.5535 64.4437 49.5454C64.1579 49.5454 63.8838 49.4329 63.6817 49.2325C63.4796 49.0322 63.366 48.7604 63.366 48.477C63.3337 47.0988 63.3337 45.7188 63.366 44.337C63.3663 44.197 63.395 44.0585 63.4504 43.9296C63.5057 43.8008 63.5866 43.6844 63.6883 43.5872C63.79 43.49 63.9103 43.4141 64.0422 43.364C64.174 43.3138 64.3147 43.2905 64.4558 43.2953C64.7403 43.2953 65.0132 43.4068 65.215 43.6054C65.4169 43.804 65.5314 44.0737 65.5335 44.3557C65.5658 45.0675 65.5389 45.7847 65.5376 46.4978Z" fill="white"/>
<path d="M39.5107 42.3483C39.5107 42.7022 39.5256 43.0574 39.5107 43.4167C39.4771 44.0657 39.0244 44.5318 38.4331 44.5559C38.1384 44.5592 37.8538 44.4501 37.6379 44.2513C37.4221 44.0525 37.2915 43.779 37.2732 43.4875C37.2247 42.714 37.2274 41.9382 37.2813 41.165C37.2893 41.0201 37.3264 40.8783 37.3906 40.7479C37.4547 40.6174 37.5446 40.5011 37.6548 40.4056C37.765 40.3101 37.8934 40.2375 38.0324 40.192C38.1714 40.1465 38.3182 40.1291 38.4641 40.1407C39.0797 40.1768 39.4851 40.6108 39.5148 41.2892C39.5229 41.6391 39.5107 41.9957 39.5107 42.3483Z" fill="white"/>
<path d="M74.5362 42.315C74.5362 41.9143 74.5106 41.5137 74.5362 41.113C74.5834 40.5134 74.9605 40.1915 75.5438 40.1461C76.0948 40.1034 76.5946 40.3318 76.6498 40.894C76.7414 41.8191 76.7522 42.7503 76.6821 43.6772C76.6377 44.2528 76.0557 44.5947 75.5088 44.5399C75.2403 44.5039 74.9937 44.3739 74.8136 44.1732C74.6335 43.9726 74.5317 43.7147 74.5268 43.4462C74.5039 43.0695 74.5268 42.6903 74.5268 42.3123L74.5362 42.315Z" fill="white"/>
</svg>
