<svg width="107" height="100" viewBox="0 0 107 100" fill="none" xmlns="http://www.w3.org/2000/svg">
<rect opacity="0.2" width="106.024" height="100" rx="12" fill="black"/>
<path d="M55.0237 76.2128C53.946 75.8736 52.8549 75.5784 51.7974 75.1884C49.4279 74.311 47.0826 73.3775 44.7104 72.4921C44.4649 72.4111 44.198 72.422 43.9601 72.5228C42.9484 72.9996 41.9583 73.5204 40.9615 74.0279C40.5978 74.2135 40.5115 74.4406 40.7311 74.8292C41.3265 75.8976 41.8788 76.99 42.446 78.0745C42.9781 79.0934 42.8083 79.6677 41.7818 80.2006C40.036 81.1069 38.2848 82.0039 36.5282 82.8916C36.0473 83.1373 35.5435 83.2322 35.0558 82.9157C34.3028 82.4269 34.3944 81.4132 35.2539 80.9551C36.5551 80.2607 37.8726 79.5969 39.1874 78.9278C40.0172 78.5072 40.0172 78.5138 39.5915 77.6979C35.6499 70.1745 31.707 62.6485 27.7627 55.1199C26.875 53.4265 27.1457 53.6922 25.5818 54.4708C24.4812 55.017 23.3995 55.602 22.303 56.1562C21.6564 56.4821 20.968 56.3018 20.6541 55.7556C20.3187 55.1706 20.4682 54.5349 21.1472 54.173C23.0995 53.1322 25.0667 52.1203 27.0488 51.1374C27.6886 50.8182 28.2315 51.0386 28.6181 51.7304C29.1489 52.6826 29.6446 53.6535 30.1322 54.6284C30.3868 55.1386 30.5997 55.3576 31.2422 55.017C33.7303 53.7002 36.2723 52.4796 38.7725 51.1842C40.1438 50.4737 41.5798 50.3829 43.0266 50.702C47.449 51.6636 51.8567 52.6853 56.2698 53.6829C58.2136 54.1223 60.1642 54.5363 62.1026 55.0024C62.7722 55.1588 63.4009 55.4539 63.9474 55.8682C64.4939 56.2825 64.9459 56.8066 65.2737 57.4063C65.597 57.9712 65.8502 57.9071 66.3069 57.6052C69.9674 55.1942 73.6337 52.7957 77.3059 50.4096C80.2088 48.5238 83.6951 49.5255 85.1365 52.6412C86.1427 54.8181 85.2415 57.5532 83.0377 58.9888L62.0851 72.6323C60.8485 73.4336 59.6078 74.2349 58.3766 75.0455C57.3771 75.7053 56.298 76.0806 55.0843 76.0191L55.0237 76.2128ZM41.503 52.7961C41.0288 52.9003 40.56 52.9136 40.168 53.1046C37.5048 54.4241 34.8646 55.7876 32.2081 57.1205C31.7312 57.3595 31.6868 57.6106 31.9387 58.0553C32.5772 59.2012 33.174 60.3711 33.7801 61.5343C35.499 64.8285 37.217 68.1228 38.9341 71.417C39.3598 72.233 39.3948 72.229 40.2637 71.7829C41.3562 71.2207 42.4365 70.6304 43.56 70.1349C43.9656 69.9618 44.4197 69.9363 44.8424 70.0628C47.5918 71.0751 50.3399 72.0994 53.0448 73.2186C54.6263 73.873 56.0246 73.8636 57.4902 72.8914C61.782 70.0414 66.117 67.2369 70.4384 64.4176C74.2543 61.9247 78.071 59.4344 81.8886 56.9468C82.2359 56.728 82.5306 56.4363 82.7519 56.0924C82.9733 55.7485 83.1159 55.3607 83.1699 54.9562C83.2238 54.5518 83.1877 54.1406 83.0641 53.7514C82.9405 53.3623 82.7324 53.0048 82.4544 52.704C81.4495 51.6169 79.9394 51.4726 78.5479 52.3794C74.5578 54.9721 70.5776 57.5794 66.6073 60.2015C66.2611 60.4312 65.9836 60.9026 65.8704 61.3139C65.1767 63.814 62.7075 65.4687 60.1211 65.0533C55.9155 64.3856 51.7153 63.6804 47.5137 62.9886C46.7122 62.8551 46.2232 62.2942 46.339 61.6531C46.463 60.968 47.1177 60.5941 47.9421 60.7303C52.1216 61.4221 56.3016 62.1126 60.4821 62.8017C61.9248 63.0394 63.3393 62.0004 63.6787 60.4672C63.9684 59.1598 62.985 57.6039 61.6258 57.2874C58.7241 56.6116 55.8171 55.9599 52.9128 55.2988C50.0301 54.6444 47.1473 53.986 44.2618 53.3423C43.3391 53.1367 42.4136 52.9751 41.503 52.7961Z" fill="white"/>
<path d="M65.7372 27.4107C65.6982 31.3611 63.3003 34.8561 59.5568 36.0915C56.4073 37.1291 53.5582 36.3586 51.1833 34.0882C46.6948 29.8012 47.6256 22.2583 52.9924 19.1306C56.6956 16.9684 61.6663 18.2251 64.1005 21.9351C65.1757 23.5618 65.7449 25.4659 65.7372 27.4107ZM63.4606 27.3252C63.4606 25.8789 63.1522 24.7517 62.4086 23.4523C60.5792 20.2538 56.4464 19.3149 53.5326 21.429C49.9709 24.0185 49.5641 29.3899 52.7365 32.4602C54.353 34.0281 56.2982 34.6304 58.5411 34.0628C61.5572 33.2922 63.4822 30.2513 63.4606 27.3252Z" fill="white"/>
<path d="M36.0366 28.8279C36.1121 25.5025 38.5853 22.7207 41.6513 22.6045C45.1914 22.4709 48.0351 25.5787 47.7226 29.2419C47.4276 32.7062 44.7172 35.1288 41.4115 34.8844C39.2939 34.7282 37.1089 32.9974 36.5121 30.9594C36.3074 30.2623 36.1929 29.5397 36.0366 28.8279ZM41.9638 32.6448C44.2242 32.7102 45.8151 30.2689 45.4662 28.1896C45.1604 26.3733 43.9103 25.0618 42.4272 24.8815C40.1156 24.6011 38.2081 26.599 38.4102 29.0883C38.5691 31.133 40.0914 32.6555 41.9598 32.6475L41.9638 32.6448Z" fill="white"/>
<path d="M77.9 28.8038C77.8838 32.3536 75.1156 35.0606 71.6711 34.8963C69.447 34.7895 67.3604 33.0881 66.5723 30.7483C66.1494 29.4701 66.1461 28.0919 66.5629 26.8117C66.9797 25.5315 67.7951 24.4152 68.892 23.6234C71.702 21.6135 75.7622 22.7019 77.2237 25.9164C77.6279 26.8072 77.7949 27.8062 78.0711 28.7544L77.9 28.8038ZM75.6261 28.725C75.6153 26.3491 73.7725 24.5716 71.5714 24.9028C69.9427 25.1485 69.0847 26.285 68.6442 27.7648C68.011 29.8882 69.6558 33.0427 72.6356 32.618C74.2952 32.3803 75.6355 30.6668 75.6261 28.725Z" fill="white"/>
<path d="M43.3889 46.475C43.2542 43.5957 44.026 40.8205 46.2676 38.6677C47.3614 37.6166 48.7287 36.8367 50.0125 35.9967C50.5096 35.6708 51.175 35.9259 51.4795 36.4133C51.7839 36.9008 51.6694 37.5031 51.14 37.8824C50.6322 38.2443 50.1001 38.5768 49.5626 38.896C46.8994 40.4826 45.7112 42.8838 45.617 45.8887C45.5914 46.7114 45.6264 47.5354 45.6089 48.3581C45.5927 49.0659 45.132 49.5507 44.5204 49.552C43.9088 49.5533 43.4306 49.0832 43.3943 48.3808C43.3687 47.7985 43.3889 47.2189 43.3889 46.475Z" fill="white"/>
<path d="M70.6525 46.4868C70.6525 47.2654 70.674 47.8223 70.6525 48.3779C70.6188 49.0844 70.1473 49.5585 69.5358 49.5478C68.9242 49.5371 68.4864 49.055 68.4473 48.3459C68.3692 46.8848 68.415 45.4078 68.1779 43.9681C67.8465 41.9568 66.7217 40.3622 65.0001 39.219C64.3117 38.761 63.5978 38.343 62.9216 37.8702C62.6855 37.7155 62.5179 37.4774 62.4531 37.2043C62.3882 36.9313 62.431 36.644 62.5727 36.4011C62.7242 36.1625 62.9605 35.989 63.2349 35.9148C63.5093 35.8406 63.8017 35.8712 64.0545 36.0005C66.4469 37.2999 68.5982 38.8531 69.7459 41.4427C70.4344 43.0328 70.7446 44.7588 70.6525 46.4868Z" fill="white"/>
<path d="M80.9724 42.1988C80.9724 42.6395 80.9913 43.0402 80.9724 43.4395C80.9347 44.0859 80.4605 44.5453 79.8624 44.5479C79.2926 44.5479 78.8225 44.1299 78.7578 43.5009C78.7226 43.0798 78.7163 42.6568 78.7389 42.2349C78.8117 40.1448 77.9307 38.5956 76.0785 37.5913C75.8809 37.4866 75.6917 37.3669 75.5127 37.2334C74.9738 36.8328 74.8647 36.2318 75.2136 35.7096C75.3719 35.4764 75.6133 35.3111 75.8894 35.2469C76.1655 35.1828 76.4558 35.2245 76.7021 35.3637C79.4906 36.8141 81.1071 38.9909 80.9724 42.1988Z" fill="white"/>
<path d="M33.0674 42.1212C32.9152 38.9895 34.5209 36.8099 37.3256 35.3636C37.5755 35.2153 37.874 35.17 38.1572 35.2373C38.4404 35.3045 38.6858 35.4791 38.8408 35.7235C38.9958 35.968 39.048 36.2629 38.9864 36.5451C38.9248 36.8273 38.7541 37.0743 38.511 37.2333C38.2412 37.4303 37.9596 37.611 37.6677 37.7741C36.0391 38.709 35.3251 40.1513 35.2726 41.9649C35.2591 42.431 35.2861 42.8998 35.2632 43.3646C35.2268 44.1004 34.7998 44.5465 34.168 44.5478C33.5362 44.5491 33.1024 44.0884 33.0701 43.3699C33.054 42.9933 33.0674 42.6153 33.0674 42.1212Z" fill="white"/>
<path d="M50.7158 46.4163C50.7158 47.0613 50.7346 47.7077 50.7158 48.3527C50.6902 49.0792 50.2483 49.544 49.626 49.5547C49.0036 49.5654 48.5375 49.0953 48.5227 48.3701C48.4958 47.0577 48.4958 45.7449 48.5227 44.4317C48.5362 43.7493 48.9969 43.3152 49.6004 43.3085C50.2039 43.3019 50.678 43.7706 50.7063 44.4838C50.7333 45.1248 50.7158 45.7712 50.7158 46.4163Z" fill="white"/>
<path d="M65.5376 46.4978C65.5376 47.1429 65.5605 47.7879 65.5376 48.433C65.508 49.1007 65.0432 49.5535 64.4438 49.5454C64.158 49.5454 63.8839 49.4329 63.6818 49.2325C63.4796 49.0322 63.3661 48.7604 63.3661 48.477C63.3338 47.0988 63.3338 45.7188 63.3661 44.337C63.3664 44.197 63.3951 44.0585 63.4504 43.9296C63.5058 43.8008 63.5867 43.6844 63.6884 43.5872C63.79 43.49 63.9104 43.4141 64.0422 43.364C64.1741 43.3138 64.3148 43.2905 64.4559 43.2953C64.7403 43.2953 65.0132 43.4068 65.2151 43.6054C65.417 43.804 65.5314 44.0737 65.5336 44.3557C65.5659 45.0675 65.539 45.7847 65.5376 46.4978Z" fill="white"/>
<path d="M39.5107 42.3484C39.5107 42.7023 39.5256 43.0576 39.5107 43.4168C39.4771 44.0659 39.0244 44.532 38.4331 44.556C38.1384 44.5593 37.8538 44.4503 37.6379 44.2514C37.4221 44.0526 37.2915 43.7791 37.2732 43.4876C37.2247 42.7141 37.2274 41.9383 37.2813 41.1652C37.2893 41.0203 37.3264 40.8784 37.3906 40.748C37.4547 40.6176 37.5446 40.5012 37.6548 40.4057C37.765 40.3103 37.8934 40.2376 38.0324 40.1921C38.1714 40.1467 38.3182 40.1292 38.4641 40.1408C39.0797 40.1769 39.4851 40.6109 39.5148 41.2894C39.5229 41.6393 39.5107 41.9958 39.5107 42.3484Z" fill="white"/>
<path d="M74.5363 42.315C74.5363 41.9143 74.5107 41.5137 74.5363 41.113C74.5835 40.5134 74.9607 40.1915 75.544 40.1461C76.0949 40.1034 76.5947 40.3318 76.6499 40.894C76.7415 41.8191 76.7523 42.7503 76.6822 43.6772C76.6378 44.2528 76.0558 44.5947 75.5089 44.5399C75.2405 44.5039 74.9938 44.3739 74.8137 44.1732C74.6336 43.9726 74.5319 43.7147 74.5269 43.4462C74.504 43.0695 74.5269 42.6903 74.5269 42.3123L74.5363 42.315Z" fill="white"/>
</svg>
