<svg width="416" height="357" viewBox="0 0 416 357" fill="none" xmlns="http://www.w3.org/2000/svg">
<path d="M415.5 338.666V92.2442C415.5 89.8799 415.029 87.5533 414.131 85.3953C413.605 84.135 412.934 82.9319 412.127 81.8121L405.044 72.0009L335.421 10.6204C328.023 4.09851 318.5 0.5 308.638 0.5H18.3529C8.49325 0.5 0.5 8.48495 0.5 18.334V338.666C0.5 348.515 8.49325 356.5 18.3529 356.5H34.4058H397.647C407.507 356.5 415.5 348.515 415.5 338.666Z" fill="url(#paint0_linear_538_1323)" stroke="#10FF7C"/>
<path d="M38.188 319.528C36.0467 319.528 33.92 319.249 31.808 318.692C29.7253 318.105 27.936 317.284 26.44 316.228L29.256 310.772C30.4293 311.623 31.7787 312.297 33.304 312.796C34.8587 313.295 36.428 313.544 38.012 313.544C39.8013 313.544 41.2093 313.192 42.236 312.488C43.2627 311.784 43.776 310.801 43.776 309.54C43.776 308.748 43.5707 308.044 43.16 307.428C42.7493 306.812 42.016 306.343 40.96 306.02C39.9333 305.697 38.4813 305.536 36.604 305.536H28.728L30.312 288.2H49.1V293.92H32.864L36.56 290.664L35.46 303.028L31.764 299.772H38.276C41.3267 299.772 43.776 300.197 45.624 301.048C47.5013 301.869 48.8653 302.999 49.716 304.436C50.5667 305.873 50.992 307.501 50.992 309.32C50.992 311.139 50.5373 312.825 49.628 314.38C48.7187 315.905 47.3107 317.152 45.404 318.12C43.5267 319.059 41.1213 319.528 38.188 319.528ZM64.2731 319.528C62.1318 319.528 60.0051 319.249 57.8931 318.692C55.8105 318.105 54.0211 317.284 52.5251 316.228L55.3411 310.772C56.5145 311.623 57.8638 312.297 59.3891 312.796C60.9438 313.295 62.5131 313.544 64.0971 313.544C65.8865 313.544 67.2945 313.192 68.3211 312.488C69.3478 311.784 69.8611 310.801 69.8611 309.54C69.8611 308.748 69.6558 308.044 69.2451 307.428C68.8345 306.812 68.1011 306.343 67.0451 306.02C66.0185 305.697 64.5665 305.536 62.6891 305.536H54.8131L56.3971 288.2H75.1851V293.92H58.9491L62.6451 290.664L61.5451 303.028L57.8491 299.772H64.3611C67.4118 299.772 69.8611 300.197 71.7091 301.048C73.5865 301.869 74.9505 302.999 75.8011 304.436C76.6518 305.873 77.0771 307.501 77.0771 309.32C77.0771 311.139 76.6225 312.825 75.7131 314.38C74.8038 315.905 73.3958 317.152 71.4891 318.12C69.6118 319.059 67.2065 319.528 64.2731 319.528ZM93.3011 319.528C90.7784 319.528 88.5198 318.912 86.5251 317.68C84.5304 316.419 82.9611 314.6 81.8171 312.224C80.6731 309.848 80.1011 306.973 80.1011 303.6C80.1011 300.227 80.6731 297.352 81.8171 294.976C82.9611 292.6 84.5304 290.796 86.5251 289.564C88.5198 288.303 90.7784 287.672 93.3011 287.672C95.8531 287.672 98.1118 288.303 100.077 289.564C102.072 290.796 103.641 292.6 104.785 294.976C105.929 297.352 106.501 300.227 106.501 303.6C106.501 306.973 105.929 309.848 104.785 312.224C103.641 314.6 102.072 316.419 100.077 317.68C98.1118 318.912 95.8531 319.528 93.3011 319.528ZM93.3011 313.5C94.5038 313.5 95.5451 313.163 96.4251 312.488C97.3344 311.813 98.0384 310.743 98.5371 309.276C99.0651 307.809 99.3291 305.917 99.3291 303.6C99.3291 301.283 99.0651 299.391 98.5371 297.924C98.0384 296.457 97.3344 295.387 96.4251 294.712C95.5451 294.037 94.5038 293.7 93.3011 293.7C92.1278 293.7 91.0864 294.037 90.1771 294.712C89.2971 295.387 88.5931 296.457 88.0651 297.924C87.5664 299.391 87.3171 301.283 87.3171 303.6C87.3171 305.917 87.5664 307.809 88.0651 309.276C88.5931 310.743 89.2971 311.813 90.1771 312.488C91.0864 313.163 92.1278 313.5 93.3011 313.5ZM123.296 319.528C120.774 319.528 118.515 318.912 116.52 317.68C114.526 316.419 112.956 314.6 111.812 312.224C110.668 309.848 110.096 306.973 110.096 303.6C110.096 300.227 110.668 297.352 111.812 294.976C112.956 292.6 114.526 290.796 116.52 289.564C118.515 288.303 120.774 287.672 123.296 287.672C125.848 287.672 128.107 288.303 130.072 289.564C132.067 290.796 133.636 292.6 134.78 294.976C135.924 297.352 136.496 300.227 136.496 303.6C136.496 306.973 135.924 309.848 134.78 312.224C133.636 314.6 132.067 316.419 130.072 317.68C128.107 318.912 125.848 319.528 123.296 319.528ZM123.296 313.5C124.499 313.5 125.54 313.163 126.42 312.488C127.33 311.813 128.034 310.743 128.532 309.276C129.06 307.809 129.324 305.917 129.324 303.6C129.324 301.283 129.06 299.391 128.532 297.924C128.034 296.457 127.33 295.387 126.42 294.712C125.54 294.037 124.499 293.7 123.296 293.7C122.123 293.7 121.082 294.037 120.172 294.712C119.292 295.387 118.588 296.457 118.06 297.924C117.562 299.391 117.312 301.283 117.312 303.6C117.312 305.917 117.562 307.809 118.06 309.276C118.588 310.743 119.292 311.813 120.172 312.488C121.082 313.163 122.123 313.5 123.296 313.5ZM161.309 313.764V293.436H166.985V313.764H161.309ZM153.697 306.284V300.916H174.641V306.284H153.697Z" fill="white"/>
<rect opacity="0.2" x="26" y="26" width="106.024" height="100" rx="12" fill="black"/>
<path d="M31.236 198H26.204V192.084H28.89C31.5193 192.084 33.2193 191.801 33.99 191.234C34.7607 190.667 35.146 189.455 35.146 187.596V174.2H42.66V187.426C42.66 189.557 42.5127 191.257 42.218 192.526C41.9233 193.795 41.3453 194.861 40.484 195.722C39.6227 196.583 38.4667 197.184 37.016 197.524C35.5653 197.841 33.6387 198 31.236 198ZM60.8941 198.34H58.9901C54.0714 198.34 50.5694 197.479 48.4841 195.756C46.3988 194.033 45.3561 191.087 45.3561 186.916V185.318C45.3561 181.147 46.3988 178.201 48.4841 176.478C50.5694 174.733 54.0714 173.86 58.9901 173.86H60.8941C65.8128 173.86 69.3148 174.733 71.4001 176.478C73.5081 178.201 74.5621 181.147 74.5621 185.318V186.916C74.5621 191.064 73.5081 194.011 71.4001 195.756C69.3148 197.479 65.8128 198.34 60.8941 198.34ZM59.5681 192.696H60.3501C61.7554 192.696 62.9001 192.583 63.7841 192.356C64.6908 192.107 65.3708 191.71 65.8241 191.166C66.3001 190.599 66.6174 189.976 66.7761 189.296C66.9348 188.593 67.0141 187.698 67.0141 186.61V185.59C67.0141 184.479 66.9348 183.584 66.7761 182.904C66.6174 182.201 66.3001 181.578 65.8241 181.034C65.3708 180.49 64.6908 180.105 63.7841 179.878C62.9001 179.629 61.7554 179.504 60.3501 179.504H59.5681C56.8481 179.504 55.0574 179.969 54.1961 180.898C53.3348 181.805 52.9041 183.369 52.9041 185.59V186.61C52.9041 187.721 52.9834 188.616 53.1421 189.296C53.3008 189.976 53.6068 190.599 54.0601 191.166C54.5361 191.71 55.2161 192.107 56.1001 192.356C57.0068 192.583 58.1628 192.696 59.5681 192.696ZM85.1571 174.2V198H77.7451V174.2H85.1571ZM118.314 174.2V198H107.128L96.2817 181.442H96.0097V198H88.9037V174.2H100.09L110.936 190.792H111.208V174.2H118.314ZM144.992 192.628V198H122.076V174.2H144.992V179.572H129.488V183.38H144.992V188.786H129.488V192.628H144.992ZM175.777 185.658V186.576C175.777 190.769 174.78 193.727 172.785 195.45C170.79 197.15 167.345 198 162.449 198H148.475V174.2H162.313C167.209 174.2 170.677 175.073 172.717 176.818C174.757 178.541 175.777 181.487 175.777 185.658ZM161.429 179.81H155.887V192.39H161.429C162.857 192.39 164.024 192.277 164.931 192.05C165.838 191.823 166.529 191.438 167.005 190.894C167.481 190.35 167.798 189.727 167.957 189.024C168.138 188.321 168.229 187.415 168.229 186.304V185.93C168.229 184.819 168.138 183.913 167.957 183.21C167.798 182.507 167.481 181.884 167.005 181.34C166.529 180.796 165.838 180.411 164.931 180.184C164.024 179.935 162.857 179.81 161.429 179.81Z" fill="white"/>
<path d="M45.8 238.44H44.26C39.244 238.44 35.2693 237.736 32.336 236.328C29.432 234.92 27.7307 232.515 27.232 229.112H37.44C37.8507 230.168 38.6427 230.872 39.816 231.224C41.0187 231.576 42.8813 231.752 45.404 231.752C48.044 231.752 49.9067 231.532 50.992 231.092C52.0773 230.652 52.6347 229.904 52.664 228.848V228.496C52.664 227.645 52.3707 227.044 51.784 226.692C51.1973 226.311 50.1413 226.105 48.616 226.076L40.08 225.768C35.68 225.592 32.5707 224.859 30.752 223.568C28.9333 222.248 28.024 220.107 28.024 217.144V216.836C28.024 213.287 29.2853 210.72 31.808 209.136C34.36 207.552 38.452 206.76 44.084 206.76H45.272C55.4507 206.76 61.024 210.001 61.992 216.484H51.784C51.432 215.34 50.684 214.548 49.54 214.108C48.396 213.668 46.68 213.448 44.392 213.448C41.8693 213.448 40.1387 213.668 39.2 214.108C38.2613 214.519 37.792 215.252 37.792 216.308V216.44C37.792 217.291 38.0707 217.907 38.628 218.288C39.2147 218.669 40.2707 218.889 41.796 218.948L50.288 219.212C54.6587 219.329 57.7533 220.063 59.572 221.412C61.42 222.732 62.344 224.844 62.344 227.748V228.056C62.344 231.84 61.0093 234.524 58.34 236.108C55.7 237.663 51.52 238.44 45.8 238.44ZM84.5991 214.944V238H75.0071V214.944H63.7871V207.2H95.9071V214.944H84.5991ZM116.667 238.44H114.071C109.905 238.44 106.693 238.015 104.435 237.164C102.205 236.284 100.621 234.891 99.6828 232.984C98.7735 231.048 98.3188 228.276 98.3188 224.668V207.2H108.087V224.272C108.087 227.029 108.541 228.848 109.451 229.728C110.389 230.608 112.193 231.048 114.863 231.048H115.831C118.529 231.048 120.333 230.608 121.243 229.728C122.152 228.848 122.607 227.029 122.607 224.272V207.2H132.375V224.668C132.375 228.276 131.905 231.048 130.967 232.984C130.057 234.92 128.488 236.313 126.259 237.164C124.029 238.015 120.832 238.44 116.667 238.44ZM171.87 222.028V223.216C171.87 228.643 170.579 232.471 167.998 234.7C165.416 236.9 160.958 238 154.622 238H136.538V207.2H154.446C160.782 207.2 165.27 208.329 167.91 210.588C170.55 212.817 171.87 216.631 171.87 222.028ZM153.302 214.46H146.13V230.74H153.302C155.15 230.74 156.66 230.593 157.834 230.3C159.007 230.007 159.902 229.508 160.518 228.804C161.134 228.1 161.544 227.293 161.75 226.384C161.984 225.475 162.102 224.301 162.102 222.864V222.38C162.102 220.943 161.984 219.769 161.75 218.86C161.544 217.951 161.134 217.144 160.518 216.44C159.902 215.736 159.007 215.237 157.834 214.944C156.66 214.621 155.15 214.46 153.302 214.46ZM205.685 231.048V238H176.029V207.2H205.685V214.152H185.621V219.08H205.685V226.076H185.621V231.048H205.685ZM248.252 207.2V238H233.776L219.74 216.572H219.388V238H210.192V207.2H224.668L238.704 228.672H239.056V207.2H248.252ZM272.173 214.944V238H262.581V214.944H251.361V207.2H283.481V214.944H272.173ZM303.505 238.44H301.965C296.949 238.44 292.975 237.736 290.041 236.328C287.137 234.92 285.436 232.515 284.937 229.112H295.145C295.556 230.168 296.348 230.872 297.521 231.224C298.724 231.576 300.587 231.752 303.109 231.752C305.749 231.752 307.612 231.532 308.697 231.092C309.783 230.652 310.34 229.904 310.369 228.848V228.496C310.369 227.645 310.076 227.044 309.489 226.692C308.903 226.311 307.847 226.105 306.321 226.076L297.785 225.768C293.385 225.592 290.276 224.859 288.457 223.568C286.639 222.248 285.729 220.107 285.729 217.144V216.836C285.729 213.287 286.991 210.72 289.513 209.136C292.065 207.552 296.157 206.76 301.789 206.76H302.977C313.156 206.76 318.729 210.001 319.697 216.484H309.489C309.137 215.34 308.389 214.548 307.245 214.108C306.101 213.668 304.385 213.448 302.097 213.448C299.575 213.448 297.844 213.668 296.905 214.108C295.967 214.519 295.497 215.252 295.497 216.308V216.44C295.497 217.291 295.776 217.907 296.333 218.288C296.92 218.669 297.976 218.889 299.501 218.948L307.993 219.212C312.364 219.329 315.459 220.063 317.277 221.412C319.125 222.732 320.049 224.844 320.049 227.748V228.056C320.049 231.84 318.715 234.524 316.045 236.108C313.405 237.663 309.225 238.44 303.505 238.44Z" fill="#10FF7C"/>
<path d="M96.3215 79.9142C96.3215 79.8759 96.3215 79.8492 96.3215 79.8217C96.3206 75.7819 96.3215 71.742 96.3148 67.7013C96.3148 67.4913 96.2698 67.2779 96.2248 67.0712C96.1864 66.8928 96.1331 66.7145 96.0589 66.5486C95.9706 66.3502 95.8414 66.171 95.7497 65.9735C95.5822 65.6118 95.2946 65.3534 95.0279 65.0717C94.9087 64.945 94.8129 64.7916 94.722 64.6341C94.5637 64.3582 94.537 64.0673 94.582 63.7773C94.6212 63.5206 94.7454 63.2855 94.9371 63.0905C95.0829 62.9421 95.2754 62.8771 95.4438 62.7696C95.4821 62.7454 95.5438 62.7621 95.5938 62.7529C95.678 62.7379 95.7614 62.7171 95.8447 62.6988C95.8622 62.6946 95.8814 62.6854 95.8981 62.6879C96.0314 62.7113 96.1673 62.7254 96.2948 62.7671C96.3965 62.7996 96.4898 62.8621 96.5815 62.9196C96.8757 63.1038 97.1224 63.3397 97.3283 63.6198C97.3992 63.7156 97.4933 63.7939 97.5658 63.889C97.6817 64.039 97.7925 64.1932 97.8976 64.3499C98.0118 64.5207 98.1301 64.6899 98.221 64.8733C98.326 65.0842 98.4035 65.3092 98.4927 65.5292C98.5702 65.7201 98.6519 65.9101 98.7235 66.1043C98.7619 66.2077 98.7861 66.3161 98.8119 66.4244C98.8427 66.5544 98.8777 66.6853 98.8936 66.817C98.9294 67.1245 98.9811 67.4329 98.9811 67.7413C98.9861 73.2531 98.9861 78.7649 98.9811 84.2767C98.9811 84.58 98.9377 84.8851 98.8919 85.1868C98.8569 85.4185 98.7977 85.6477 98.7277 85.8719C98.666 86.0686 98.5727 86.2553 98.4977 86.4479C98.4593 86.5471 98.441 86.6537 98.3977 86.7496C98.3335 86.8904 98.2551 87.0255 98.181 87.1622C98.1159 87.283 98.0543 87.4055 97.9818 87.5214C97.8976 87.6564 97.8101 87.7906 97.7117 87.9156C97.5267 88.1515 97.3375 88.3857 97.1399 88.6107C97.0399 88.7249 96.9182 88.8191 96.8049 88.9208C96.6999 89.015 96.5965 89.1117 96.4848 89.1983C96.3465 89.305 96.2031 89.405 96.0589 89.5042C95.9239 89.5967 95.7864 89.6859 95.6472 89.7734C95.5647 89.8251 95.4788 89.8726 95.3905 89.9151C95.2571 89.9793 95.1221 90.0402 94.9854 90.0977C94.8579 90.1518 94.7278 90.1993 94.5995 90.2502C94.4778 90.2985 94.3569 90.3477 94.2353 90.3969C94.2269 90.4002 94.2194 90.4061 94.2111 90.4077C94.0494 90.4394 93.8869 90.4694 93.726 90.5019C93.4901 90.5502 93.2543 90.6011 93.0184 90.6478C92.9642 90.6586 92.9075 90.6578 92.8525 90.6586C91.5798 90.6611 90.3071 90.6636 89.0352 90.6644C87.8133 90.6653 86.5914 90.6644 85.3704 90.6644H85.1504C85.1879 90.7361 85.2154 90.7886 85.2429 90.8403C85.3171 90.9812 85.3912 91.1212 85.4654 91.262C85.4988 91.3262 85.5346 91.3896 85.5646 91.4554C85.6546 91.6529 85.7363 91.8538 85.8321 92.048C85.8988 92.183 85.988 92.3064 86.0564 92.4397C86.1264 92.5764 86.1805 92.7206 86.2456 92.8598C86.3056 92.9907 86.3622 93.124 86.4364 93.2465C86.4731 93.3066 86.5398 93.3349 86.6281 93.3349C88.1042 93.3299 89.5803 93.3274 91.0564 93.3349C91.4365 93.3366 91.7473 93.5066 91.9957 93.7991C92.1191 93.9442 92.1874 94.1059 92.2599 94.2792C92.3408 94.4718 92.3358 94.6568 92.3141 94.8385C92.2808 95.1194 92.1691 95.3819 91.954 95.5794C91.8273 95.6953 91.6898 95.8053 91.5415 95.8895C91.4373 95.9487 91.3073 95.9703 91.1856 95.9903C91.0814 96.007 90.973 95.997 90.8672 95.997C82.9542 95.997 75.0411 95.997 67.1272 95.997C67.0672 95.997 67.0064 95.9995 66.9472 95.9962C66.6063 95.9745 66.3029 95.8695 66.0762 95.5986C65.972 95.4736 65.8404 95.3594 65.7762 95.2152C65.6603 94.956 65.6237 94.6668 65.687 94.3892C65.727 94.2142 65.822 94.0442 65.9262 93.895C66.0437 93.7258 66.1912 93.5841 66.3905 93.4866C66.618 93.3749 66.8447 93.3291 67.0931 93.3299C68.5183 93.3332 69.9436 93.3299 71.3688 93.3332C71.498 93.3332 71.548 93.2707 71.5922 93.1599C71.6497 93.0173 71.7364 92.8856 71.8106 92.7498C71.8447 92.6864 71.8814 92.6248 71.9114 92.5598C72.0014 92.3631 72.0823 92.1622 72.1781 91.9688C72.244 91.8346 72.3348 91.7121 72.4023 91.5779C72.4715 91.4412 72.5215 91.2954 72.5899 91.1587C72.6632 91.0128 72.7482 90.872 72.8266 90.7286C72.8324 90.7178 72.8266 90.7019 72.8266 90.6661C72.7599 90.6661 72.6932 90.6661 72.6257 90.6661C70.2336 90.6661 67.8407 90.6661 65.4486 90.6653C65.3703 90.6653 65.2903 90.6694 65.2127 90.6611C64.9644 90.6353 64.716 90.6078 64.4693 90.5736C64.3368 90.5552 64.2034 90.5302 64.0767 90.4894C63.865 90.4219 63.6591 90.3377 63.4491 90.266C63.3333 90.226 63.2099 90.2085 63.0982 90.1602C62.9507 90.096 62.8107 90.0135 62.669 89.9368C62.5673 89.8818 62.4681 89.8243 62.3681 89.7676C62.2581 89.7059 62.1431 89.6518 62.038 89.5826C61.8822 89.4792 61.7305 89.3709 61.5838 89.255C61.4388 89.1417 61.2937 89.0258 61.1637 88.895C60.892 88.6232 60.6236 88.3474 60.3677 88.0606C60.2586 87.9381 60.1802 87.7881 60.0902 87.6489C59.981 87.4789 59.866 87.313 59.7701 87.1355C59.696 86.998 59.6485 86.8454 59.5868 86.7012C59.5084 86.5179 59.4192 86.3387 59.3509 86.1528C59.3051 86.0286 59.2884 85.8936 59.2534 85.7644C59.205 85.5861 59.1525 85.4085 59.1017 85.231C59.0984 85.2177 59.0967 85.2035 59.0959 85.1901C59.0742 84.7659 58.9992 84.3475 59 83.9191C59.0092 79.4625 59.0058 75.0059 59.0058 70.5493C59.0058 69.6283 59.0058 68.7073 59.0067 67.7863C59.0067 67.703 59.0017 67.6188 59.0108 67.5363C59.0367 67.2929 59.0642 67.0487 59.0984 66.807C59.1175 66.6744 59.1425 66.5411 59.1825 66.4136C59.2501 66.201 59.3334 65.9935 59.4059 65.7826C59.4442 65.6718 59.4668 65.5543 59.5093 65.4451C59.5459 65.3509 59.6026 65.2642 59.6501 65.1734C59.6835 65.11 59.7243 65.0492 59.7468 64.9817C59.841 64.6991 60.0227 64.4649 60.181 64.2199C60.3111 64.0198 60.4819 63.8456 60.6395 63.6639C60.7886 63.4906 60.9295 63.3055 61.1004 63.1563C61.2462 63.0297 61.3779 62.873 61.5905 62.8329C61.7505 62.8021 61.9038 62.7379 62.0614 62.6954C62.0922 62.6871 62.1314 62.7071 62.1656 62.7163C62.2089 62.7279 62.2514 62.7504 62.2956 62.7521C62.4748 62.7571 62.6215 62.8329 62.7832 62.9071C63.0482 63.0288 63.1857 63.2514 63.3158 63.4681C63.4649 63.7181 63.4733 64.0307 63.4049 64.3049C63.3208 64.6433 63.1282 64.9383 62.8565 65.1767C62.704 65.31 62.5598 65.4592 62.4414 65.6226C62.3281 65.7776 62.2539 65.9602 62.1606 66.1294C62.0855 66.266 61.998 66.3961 61.9372 66.5378C61.8872 66.6536 61.8697 66.7836 61.8372 66.9078C61.788 67.0954 61.738 67.2829 61.6905 67.4704C61.6813 67.5054 61.6788 67.5438 61.678 67.5804C61.6746 67.7563 61.6721 67.9322 61.6721 68.108C61.6721 71.9862 61.6721 75.8644 61.6721 79.7425V79.9184H96.3256L96.3215 79.9142ZM96.309 82.5989H61.6813C61.6763 82.6472 61.668 82.688 61.668 82.7289C61.668 83.289 61.6638 83.8491 61.6763 84.4083C61.6805 84.5867 61.728 84.7651 61.763 84.9418C61.7822 85.0401 61.8072 85.1401 61.8463 85.2327C61.9172 85.4002 61.9997 85.5635 62.0772 85.7286C62.1422 85.8669 62.1939 86.0145 62.2739 86.1428C62.3639 86.287 62.4706 86.4237 62.5865 86.5479C62.7582 86.7329 62.9332 86.9171 63.1266 87.0788C63.2866 87.213 63.4716 87.3197 63.6508 87.428C63.8333 87.5381 64.0175 87.6497 64.2117 87.7364C64.3776 87.8106 64.556 87.8614 64.7335 87.9015C64.9269 87.9456 65.1244 87.974 65.3219 87.9923C65.487 88.0073 65.6545 87.999 65.8212 87.999C73.9243 87.999 82.0273 87.999 90.1304 87.999C90.9355 87.999 91.7407 88.004 92.5458 87.9931C92.7842 87.9898 93.0217 87.9373 93.2601 87.9073C93.2734 87.9056 93.2868 87.9015 93.3001 87.8965C93.4285 87.8481 93.556 87.7973 93.6843 87.7506C93.7827 87.7156 93.8885 87.6964 93.9802 87.6506C94.1136 87.5839 94.2386 87.4989 94.367 87.4205C94.4886 87.3455 94.6203 87.2813 94.727 87.1897C94.9154 87.028 95.0854 86.8454 95.2671 86.6754C95.5088 86.4495 95.6972 86.187 95.8297 85.8844C95.8605 85.8144 95.8964 85.7469 95.9306 85.6777C95.9756 85.5877 96.0322 85.5027 96.0648 85.4085C96.1073 85.2852 96.1314 85.1551 96.1614 85.0268C96.2131 84.8068 96.299 84.5875 96.3081 84.3658C96.3306 83.8249 96.3181 83.2832 96.3181 82.7414C96.3181 82.6964 96.3106 82.6505 96.3065 82.598L96.309 82.5989ZM83.4867 93.3207C83.4284 93.1849 83.3817 93.054 83.3184 92.9315C83.22 92.7423 83.1067 92.5614 83.0058 92.3739C82.9183 92.2114 82.835 92.0463 82.7566 91.8788C82.6641 91.6796 82.5791 91.4754 82.4899 91.2745C82.4607 91.2087 82.4266 91.1453 82.3932 91.082C82.344 90.9895 82.2907 90.9003 82.244 90.807C82.204 90.7261 82.1623 90.6619 82.0548 90.6628C80.0136 90.6644 77.9733 90.6644 75.9321 90.6628C75.8254 90.6628 75.7812 90.7253 75.7479 90.812C75.7154 90.8961 75.6837 90.9812 75.6412 91.0603C75.5704 91.1929 75.4854 91.317 75.4187 91.4512C75.3487 91.5921 75.302 91.7446 75.2303 91.8846C75.1336 92.0747 75.0169 92.2547 74.9194 92.4439C74.8494 92.5798 74.8019 92.7265 74.7361 92.864C74.6986 92.9415 74.636 93.0073 74.596 93.084C74.5577 93.1574 74.5352 93.2382 74.5035 93.3199H83.4884L83.4867 93.3207Z" fill="white"/>
<path d="M90.9888 65.025C90.9888 66.7461 90.9922 68.4681 90.9847 70.1892C90.9838 70.4418 90.9488 70.6976 90.893 70.9444C90.8463 71.1494 90.7471 71.3419 90.6704 71.5403C90.6388 71.622 90.6113 71.7053 90.5746 71.7845C90.5171 71.9104 90.4679 72.042 90.3912 72.1554C90.2679 72.3371 90.1278 72.508 89.9886 72.6772C89.8553 72.8389 89.7253 73.0047 89.5277 73.1014C89.4594 73.1347 89.4102 73.2056 89.3477 73.2531C89.1693 73.3881 88.9851 73.509 88.7759 73.5982C88.5801 73.6815 88.405 73.8115 88.215 73.9099C88.075 73.9816 87.9208 74.0257 87.7799 74.0966C87.5891 74.1933 87.409 74.3108 87.2182 74.4075C87.0781 74.4791 86.9248 74.525 86.7839 74.595C86.6497 74.6617 86.5247 74.7475 86.393 74.8209C86.3305 74.8559 86.263 74.8842 86.1972 74.9134C85.9996 75.0017 85.7996 75.0842 85.6037 75.1776C85.3795 75.2843 85.1595 75.4001 84.9369 75.5118C84.7711 75.5952 84.6052 75.6785 84.4394 75.761C84.2168 75.8727 83.9943 75.9836 83.7717 76.0944C83.6059 76.1778 83.44 76.2611 83.2742 76.3436C83.0516 76.4553 82.8291 76.5653 82.6065 76.677C82.3882 76.787 82.1706 76.8987 81.9523 77.0079C81.7822 77.0929 81.6089 77.1713 81.4422 77.2613C81.2538 77.3621 81.0746 77.4813 80.8821 77.5738C80.7245 77.6497 80.5495 77.6897 80.3887 77.7605C80.1978 77.8447 79.9903 77.8706 79.7994 77.9356C79.516 78.0331 79.2368 77.9772 78.9576 78.0039C78.8751 78.0122 78.79 78.0097 78.7084 78.0006C78.4617 77.9731 78.2108 77.9597 77.9699 77.9022C77.7724 77.8547 77.5873 77.7539 77.3965 77.6755C77.2506 77.6155 77.1023 77.5622 76.9614 77.4922C76.8239 77.4238 76.6947 77.3388 76.5605 77.263C76.5022 77.2296 76.4405 77.2004 76.3788 77.1729C76.1779 77.0838 75.9746 76.9996 75.7754 76.9071C75.6078 76.8295 75.4436 76.7454 75.2811 76.6578C75.0944 76.557 74.9135 76.4428 74.7252 76.3461C74.586 76.2744 74.4335 76.2286 74.2934 76.1586C74.1601 76.0919 74.0351 76.0086 73.9042 75.9361C73.8375 75.8994 73.7667 75.8685 73.6967 75.8377C73.5 75.7494 73.3016 75.6652 73.1066 75.5743C72.9399 75.496 72.774 75.4135 72.6115 75.3251C72.4239 75.2234 72.2439 75.1084 72.0547 75.0117C71.9155 74.9401 71.763 74.895 71.6221 74.8259C71.4888 74.7592 71.3646 74.6733 71.2337 74.6017C71.1629 74.5633 71.0845 74.5391 71.0129 74.5025C70.9204 74.4558 70.8312 74.4025 70.7395 74.3541C70.6761 74.3199 70.612 74.2874 70.5461 74.2583C70.3453 74.1691 70.1419 74.0849 69.9427 73.9924C69.7752 73.9149 69.6001 73.8449 69.4509 73.7398C69.2451 73.5956 69.0117 73.5048 68.8025 73.3606C68.4983 73.1506 68.2091 72.9314 67.9698 72.6513C67.8523 72.5138 67.7631 72.3529 67.659 72.2029C67.5864 72.0987 67.5031 72.002 67.4406 71.892C67.3914 71.8053 67.3664 71.7053 67.3322 71.6111C67.3014 71.5253 67.2781 71.4369 67.2405 71.3544C67.1464 71.1452 67.1197 70.9219 67.0705 70.701C66.9255 70.0517 67.008 69.3983 67.0055 68.7481C66.993 65.7868 66.998 62.8246 67.0055 59.8633C67.0055 59.6016 67.0497 59.3382 67.0964 59.0798C67.1289 58.9006 67.1872 58.7222 67.2614 58.5556C67.3481 58.3605 67.4614 58.178 67.5681 57.9921C67.654 57.8429 67.7315 57.6846 67.8407 57.5545C68.0032 57.3612 68.1832 57.182 68.3691 57.0094C68.5199 56.8703 68.6825 56.7402 68.8517 56.6252C68.9734 56.5427 69.1159 56.491 69.2484 56.4235C69.3376 56.3777 69.4234 56.3235 69.5143 56.2835C69.606 56.2435 69.7018 56.2143 69.7977 56.1826C69.8852 56.1543 69.9719 56.1235 70.0619 56.1035C70.5311 55.9993 71.0079 55.9851 71.4838 56.0243C71.6655 56.0393 71.8422 56.1185 72.0214 56.166C72.1489 56.2001 72.2806 56.2218 72.4048 56.2643C72.499 56.2968 72.584 56.356 72.674 56.401C72.7423 56.4352 72.8115 56.4685 72.8815 56.5002C73.0791 56.5894 73.2816 56.6694 73.475 56.7669C73.6625 56.8619 73.8384 56.9803 74.0251 57.0761C74.1651 57.1478 74.3193 57.1936 74.4601 57.2645C74.5952 57.332 74.7193 57.4229 74.8544 57.4904C74.9952 57.5612 75.1478 57.6104 75.2894 57.6804C75.4245 57.7479 75.5495 57.8363 75.6845 57.9046C75.8212 57.9746 75.9671 58.0271 76.1054 58.0946C76.2413 58.1613 76.3721 58.238 76.5063 58.3088C76.578 58.3463 76.6505 58.383 76.7247 58.4164C76.8647 58.4789 77.0106 58.5314 77.1473 58.6014C77.3331 58.6981 77.5107 58.8114 77.6949 58.9114C77.8099 58.974 77.9307 59.0281 78.0508 59.0815C78.1949 59.1457 78.34 59.2082 78.4867 59.2657C78.5725 59.299 78.6617 59.3365 78.7509 59.3424C78.9351 59.3532 79.1226 59.3615 79.3043 59.3374C79.4277 59.3207 79.5443 59.2473 79.6627 59.1965C79.7327 59.1665 79.7994 59.1281 79.8686 59.0965C80.0653 59.0073 80.2645 58.9223 80.4603 58.8306C80.6279 58.7514 80.7937 58.6689 80.9571 58.5814C81.1446 58.4805 81.3255 58.3664 81.5155 58.2697C81.6547 58.198 81.8081 58.1538 81.9473 58.083C82.1373 57.9871 82.3173 57.8721 82.5065 57.7746C82.6424 57.7046 82.7891 57.6562 82.9258 57.5879C83.0641 57.5195 83.195 57.437 83.3308 57.3637C83.3975 57.327 83.4675 57.2953 83.5367 57.2645C83.7342 57.1761 83.9334 57.092 84.1285 57.0003C84.296 56.9211 84.4585 56.8328 84.6244 56.7502C84.8461 56.6394 85.0745 56.5385 85.2903 56.416C85.4995 56.2968 85.7146 56.2051 85.9538 56.1701C86.0855 56.151 86.2222 56.1335 86.3439 56.0843C86.6706 55.9534 87.0081 56.0101 87.3374 56.0251C87.5624 56.0359 87.7974 56.0676 88.015 56.1643C88.1333 56.2168 88.2717 56.2235 88.3959 56.266C88.4901 56.2985 88.5767 56.3543 88.6659 56.3993C88.7343 56.4335 88.8001 56.4735 88.871 56.5019C89.0118 56.5602 89.1293 56.6602 89.2577 56.7327C89.6102 56.9319 89.847 57.2495 90.1262 57.5212C90.2487 57.6412 90.3195 57.8146 90.4121 57.9646C90.4912 58.093 90.5762 58.218 90.6421 58.353C90.6896 58.4497 90.7071 58.5597 90.7429 58.6622C90.7871 58.7889 90.8371 58.9131 90.8846 59.0381C90.8896 59.0506 90.8946 59.064 90.8963 59.0773C90.9271 59.3382 90.983 59.5999 90.9838 59.8608C90.9913 61.5819 90.988 63.3039 90.988 65.025H90.9888ZM80.3278 74.8634C80.5078 74.7792 80.6612 74.7108 80.8112 74.6367C80.9529 74.5675 81.0904 74.4908 81.2313 74.4208C81.3672 74.3533 81.5055 74.2916 81.6414 74.2241C81.7864 74.1516 81.9281 74.0741 82.0731 74.0024C82.2048 73.9365 82.339 73.8765 82.4707 73.8115C82.6207 73.7373 82.7682 73.6582 82.9174 73.5831C83.0458 73.519 83.1758 73.459 83.3042 73.3948C83.4492 73.3214 83.5934 73.2448 83.7367 73.1689C83.8751 73.0964 84.0118 73.0214 84.151 72.9514C84.286 72.8839 84.4244 72.8222 84.5594 72.7555C84.6994 72.6872 84.8378 72.6155 84.9769 72.5455C85.1111 72.4771 85.2453 72.4071 85.3804 72.3404C85.5204 72.2713 85.6629 72.2079 85.8029 72.1387C85.9405 72.0696 86.0738 71.992 86.2122 71.9245C86.3489 71.8579 86.493 71.8045 86.6281 71.7345C86.8189 71.6361 87.004 71.5278 87.1923 71.4253C87.3999 71.3119 87.6199 71.2177 87.8116 71.0819C87.9958 70.951 88.1492 70.7668 88.2292 70.5568C88.2967 70.3809 88.3225 70.1784 88.3225 69.9875C88.3275 66.6828 88.3267 63.3789 88.3259 60.0741C88.3259 59.9866 88.335 59.8966 88.32 59.8108C88.2984 59.6891 88.2809 59.5582 88.2208 59.4549C88.1383 59.3123 88.0225 59.1873 87.9133 59.0615C87.7041 58.8189 87.4232 58.7164 87.1165 58.6789C87.0115 58.6664 86.9015 58.6647 86.7981 58.6822C86.6722 58.7039 86.5481 58.7439 86.4289 58.7906C86.3439 58.8231 86.2705 58.8839 86.1872 58.9231C86.048 58.989 85.9029 59.0431 85.7663 59.1131C85.6321 59.1815 85.5079 59.2665 85.3754 59.3382C85.2162 59.424 85.0536 59.504 84.8919 59.5849C84.6686 59.6974 84.4469 59.8124 84.221 59.92C84.0243 60.0133 83.8234 60.0975 83.6242 60.1875C83.5584 60.2175 83.4934 60.2517 83.4292 60.285C83.2833 60.3609 83.1383 60.4392 82.9916 60.5126C82.8616 60.5776 82.7282 60.6359 82.5974 60.7009C82.4507 60.7743 82.3065 60.8551 82.1598 60.9285C82.0298 60.9935 81.8948 61.0501 81.7656 61.1168C81.6314 61.1868 81.5038 61.271 81.3688 61.3377C81.2305 61.406 81.0854 61.4602 80.9446 61.5236C80.8787 61.5536 80.8171 61.5911 80.7537 61.6252C80.6729 61.6686 80.5954 61.7328 80.5087 61.7494C80.367 61.7769 80.3253 61.8461 80.3253 61.9836C80.3278 66.2135 80.327 70.4434 80.327 74.6733C80.327 74.7233 80.327 74.7742 80.327 74.8642L80.3278 74.8634ZM77.664 74.8517V65.7301C77.664 64.4807 77.6624 63.2314 77.6657 61.982C77.6657 61.8453 77.6257 61.7628 77.4807 61.7536C77.4665 61.7528 77.4515 61.7536 77.4398 61.7478C77.2523 61.6444 77.0672 61.5369 76.878 61.436C76.7147 61.3485 76.5488 61.2652 76.3813 61.1868C76.1854 61.0952 75.9862 61.0101 75.7895 60.921C75.7203 60.8893 75.6512 60.8568 75.5837 60.8209C75.447 60.7476 75.3153 60.6667 75.1761 60.5984C75.0386 60.5301 74.8927 60.4801 74.7568 60.41C74.6235 60.3417 74.4985 60.2558 74.3668 60.1842C74.2076 60.0983 74.0467 60.015 73.8834 59.9375C73.6875 59.8449 73.4883 59.7608 73.2908 59.6716C73.2208 59.6399 73.1516 59.6091 73.0841 59.5732C72.9474 59.4999 72.8157 59.4182 72.6773 59.349C72.5398 59.2807 72.3948 59.229 72.2573 59.1623C72.1022 59.0873 71.9522 59.0023 71.7997 58.9239C71.728 58.8873 71.6555 58.8523 71.5813 58.8214C71.4613 58.7723 71.3413 58.6922 71.2179 58.6872C71.0195 58.6789 70.8228 58.6522 70.6153 58.7389C70.4378 58.8131 70.2694 58.8848 70.1227 59.0081C69.966 59.1398 69.8327 59.2973 69.7635 59.4849C69.6943 59.6716 69.6618 59.8708 69.6618 60.0791C69.6676 63.3831 69.6676 66.6878 69.6643 69.9917C69.6643 70.2926 69.7376 70.5651 69.9177 70.801C70.021 70.936 70.1369 71.076 70.2794 71.1627C70.5453 71.3244 70.8328 71.4511 71.1129 71.5878C71.2554 71.6578 71.4029 71.7162 71.5463 71.7853C71.6955 71.857 71.843 71.9337 71.9905 72.0104C72.1272 72.0812 72.2639 72.1521 72.3998 72.2246C72.5198 72.2888 72.6365 72.3579 72.7582 72.4188C72.9157 72.4971 73.0774 72.5663 73.2349 72.6447C73.3566 72.7047 73.4725 72.7772 73.5941 72.8364C73.745 72.9089 73.9025 72.9672 74.0517 73.0431C74.2268 73.1322 74.3918 73.2398 74.5668 73.3281C74.7594 73.4248 74.9586 73.5065 75.1536 73.5973C75.1969 73.6173 75.2336 73.6515 75.2769 73.6723C75.3695 73.7165 75.4653 73.7523 75.5562 73.7965C75.6937 73.864 75.8287 73.9365 75.9654 74.0066C76.1104 74.0807 76.2554 74.1566 76.4021 74.2291C76.5363 74.2958 76.6722 74.3574 76.8055 74.4241C76.9481 74.495 77.0889 74.5692 77.2314 74.64C77.3681 74.7083 77.5048 74.775 77.6649 74.8542L77.664 74.8517Z" fill="#00F38E"/>
<path d="M78.9917 84.0001C79.075 84.0001 79.1626 83.9842 79.2401 84.0034C79.3634 84.0351 79.4801 84.0909 79.6001 84.1351C79.8335 84.2201 79.9635 84.4251 80.1236 84.5927C80.1711 84.6427 80.2111 84.7093 80.2311 84.776C80.3102 85.0369 80.3861 85.3111 80.3111 85.5762C80.2344 85.8462 80.1077 86.1104 79.8927 86.303C79.791 86.3946 79.6418 86.4313 79.5251 86.508C79.3626 86.6147 79.1709 86.6422 78.9959 86.6447C78.8208 86.6472 78.6383 86.5938 78.4658 86.513C78.3149 86.4421 78.1765 86.3621 78.0674 86.2438C77.9715 86.1396 77.9048 86.0096 77.819 85.8962C77.6406 85.6612 77.6456 85.3878 77.6715 85.1202C77.684 84.9886 77.7665 84.8652 77.8081 84.7352C77.8823 84.5026 78.0649 84.3634 78.2416 84.2201C78.3041 84.1701 78.3682 84.1109 78.4416 84.0892C78.6191 84.0367 78.8025 84.0042 78.9842 83.9634C78.9867 83.975 78.9884 83.9875 78.9909 83.9992L78.9917 84.0001Z" fill="white"/>
<defs>
<linearGradient id="paint0_linear_538_1323" x1="3.13549e-06" y1="174.77" x2="403.949" y2="-95.5549" gradientUnits="userSpaceOnUse">
<stop stop-color="#2D3344"/>
<stop offset="1" stop-color="#050A18"/>
</linearGradient>
</defs>
</svg>
